<mxfile host="Electron" modified="2025-05-21T00:08:28.952Z" agent="Mozilla/5.0 (Windows NT 10.0; Win64; x64) AppleWebKit/537.36 (KHTML, like Gecko) draw.io/22.1.21 Chrome/120.0.6099.109 Electron/28.1.0 Safari/537.36" etag="5AoycSkAiyaZrwPAB0Ug" version="22.1.21" type="device">
  <diagram id="R2lEEEUBdFMjLlhIrx00" name="Page-1">
    <mxGraphModel dx="3103" dy="1920" grid="0" gridSize="10" guides="1" tooltips="1" connect="1" arrows="1" fold="1" page="1" pageScale="1" pageWidth="850" pageHeight="1100" background="#262626" math="0" shadow="0" extFonts="Permanent Marker^https://fonts.googleapis.com/css?family=Permanent+Marker">
      <root>
        <mxCell id="0" />
        <mxCell id="1" parent="0" />
        <mxCell id="i_u9Ulbk1Ha4xllaxans-170" style="edgeStyle=orthogonalEdgeStyle;rounded=0;orthogonalLoop=1;jettySize=auto;html=1;entryX=0;entryY=0.5;entryDx=0;entryDy=0;exitX=1;exitY=0.5;exitDx=0;exitDy=0;curved=1;endArrow=ERmany;endFill=0;startArrow=ERmany;startFill=0;" parent="1" source="i_u9Ulbk1Ha4xllaxans-5" target="i_u9Ulbk1Ha4xllaxans-164" edge="1">
          <mxGeometry relative="1" as="geometry" />
        </mxCell>
        <mxCell id="i_u9Ulbk1Ha4xllaxans-217" style="edgeStyle=orthogonalEdgeStyle;rounded=0;orthogonalLoop=1;jettySize=auto;html=1;entryX=0;entryY=0.5;entryDx=0;entryDy=0;exitX=0.908;exitY=0.003;exitDx=0;exitDy=0;exitPerimeter=0;curved=1;startArrow=ERone;startFill=0;endArrow=ERoneToMany;endFill=0;" parent="1" source="i_u9Ulbk1Ha4xllaxans-1" target="i_u9Ulbk1Ha4xllaxans-192" edge="1">
          <mxGeometry relative="1" as="geometry" />
        </mxCell>
        <mxCell id="i_u9Ulbk1Ha4xllaxans-238" style="edgeStyle=orthogonalEdgeStyle;shape=connector;curved=1;rounded=0;orthogonalLoop=1;jettySize=auto;html=1;labelBackgroundColor=default;strokeColor=default;align=center;verticalAlign=middle;fontFamily=Helvetica;fontSize=11;fontColor=default;startArrow=ERoneToMany;startFill=0;endArrow=ERzeroToMany;endFill=0;" parent="1" source="i_u9Ulbk1Ha4xllaxans-1" target="i_u9Ulbk1Ha4xllaxans-230" edge="1">
          <mxGeometry relative="1" as="geometry" />
        </mxCell>
        <mxCell id="i_u9Ulbk1Ha4xllaxans-267" style="edgeStyle=orthogonalEdgeStyle;shape=connector;curved=1;rounded=0;orthogonalLoop=1;jettySize=auto;html=1;labelBackgroundColor=default;strokeColor=default;align=center;verticalAlign=middle;fontFamily=Helvetica;fontSize=11;fontColor=default;startArrow=ERoneToMany;startFill=0;endArrow=ERoneToMany;endFill=0;exitX=-0.002;exitY=0.872;exitDx=0;exitDy=0;exitPerimeter=0;" parent="1" source="i_u9Ulbk1Ha4xllaxans-5" target="i_u9Ulbk1Ha4xllaxans-253" edge="1">
          <mxGeometry relative="1" as="geometry" />
        </mxCell>
        <mxCell id="i_u9Ulbk1Ha4xllaxans-268" style="edgeStyle=orthogonalEdgeStyle;shape=connector;curved=1;rounded=0;orthogonalLoop=1;jettySize=auto;html=1;entryX=1;entryY=0.5;entryDx=0;entryDy=0;labelBackgroundColor=default;strokeColor=default;align=center;verticalAlign=middle;fontFamily=Helvetica;fontSize=11;fontColor=default;startArrow=ERoneToMany;startFill=0;endArrow=ERoneToMany;endFill=0;exitX=0.073;exitY=1.009;exitDx=0;exitDy=0;exitPerimeter=0;" parent="1" source="i_u9Ulbk1Ha4xllaxans-5" target="i_u9Ulbk1Ha4xllaxans-261" edge="1">
          <mxGeometry relative="1" as="geometry">
            <mxPoint x="-531" y="315" as="sourcePoint" />
          </mxGeometry>
        </mxCell>
        <mxCell id="i_u9Ulbk1Ha4xllaxans-1" value="Films" style="shape=table;startSize=30;container=1;collapsible=1;childLayout=tableLayout;fixedRows=1;rowLines=0;fontStyle=1;align=center;resizeLast=1;html=1;fillColor=#0050ef;strokeColor=#001DBC;fontColor=#ffffff;" parent="1" vertex="1">
          <mxGeometry x="-571" y="-62.86" width="259.4999999999998" height="491.86363636363626" as="geometry" />
        </mxCell>
        <mxCell id="i_u9Ulbk1Ha4xllaxans-2" value="" style="shape=tableRow;horizontal=0;startSize=0;swimlaneHead=0;swimlaneBody=0;fillColor=none;collapsible=0;dropTarget=0;points=[[0,0.5],[1,0.5]];portConstraint=eastwest;top=0;left=0;right=0;bottom=1;" parent="i_u9Ulbk1Ha4xllaxans-1" vertex="1">
          <mxGeometry y="30" width="259.4999999999998" height="30" as="geometry" />
        </mxCell>
        <mxCell id="i_u9Ulbk1Ha4xllaxans-3" value="PK" style="shape=partialRectangle;connectable=0;fillColor=none;top=0;left=0;bottom=0;right=0;fontStyle=1;overflow=hidden;whiteSpace=wrap;html=1;" parent="i_u9Ulbk1Ha4xllaxans-2" vertex="1">
          <mxGeometry width="30" height="30" as="geometry">
            <mxRectangle width="30" height="30" as="alternateBounds" />
          </mxGeometry>
        </mxCell>
        <mxCell id="i_u9Ulbk1Ha4xllaxans-4" value="film_id: int auto_increment" style="shape=partialRectangle;connectable=0;fillColor=none;top=0;left=0;bottom=0;right=0;align=left;spacingLeft=6;fontStyle=5;overflow=hidden;whiteSpace=wrap;html=1;" parent="i_u9Ulbk1Ha4xllaxans-2" vertex="1">
          <mxGeometry x="30" width="229.49999999999977" height="30" as="geometry">
            <mxRectangle width="229.49999999999977" height="30" as="alternateBounds" />
          </mxGeometry>
        </mxCell>
        <mxCell id="i_u9Ulbk1Ha4xllaxans-5" value="" style="shape=tableRow;horizontal=0;startSize=0;swimlaneHead=0;swimlaneBody=0;fillColor=none;collapsible=0;dropTarget=0;points=[[0,0.5],[1,0.5]];portConstraint=eastwest;top=0;left=0;right=0;bottom=0;" parent="i_u9Ulbk1Ha4xllaxans-1" vertex="1">
          <mxGeometry y="60" width="259.4999999999998" height="431" as="geometry" />
        </mxCell>
        <mxCell id="i_u9Ulbk1Ha4xllaxans-6" value="" style="shape=partialRectangle;connectable=0;fillColor=none;top=0;left=0;bottom=0;right=0;editable=1;overflow=hidden;whiteSpace=wrap;html=1;" parent="i_u9Ulbk1Ha4xllaxans-5" vertex="1">
          <mxGeometry width="30" height="431" as="geometry">
            <mxRectangle width="30" height="431" as="alternateBounds" />
          </mxGeometry>
        </mxCell>
        <mxCell id="i_u9Ulbk1Ha4xllaxans-7" value="&lt;div style=&quot;text-align: justify;&quot;&gt;&lt;span style=&quot;background-color: initial;&quot;&gt;title: varchar(100) not null&lt;/span&gt;&lt;/div&gt;&lt;div style=&quot;text-align: justify;&quot;&gt;&lt;span style=&quot;background-color: initial;&quot;&gt;&lt;br&gt;&lt;/span&gt;&lt;/div&gt;&lt;div style=&quot;&quot;&gt;&lt;span style=&quot;background-color: initial;&quot;&gt;release_year: year check (release_year&amp;gt;=1880 and release_year&amp;lt;= year(curdate()))&lt;/span&gt;&lt;/div&gt;&lt;div style=&quot;text-align: justify;&quot;&gt;&lt;span style=&quot;background-color: initial;&quot;&gt;&lt;br&gt;&lt;/span&gt;&lt;/div&gt;&lt;div style=&quot;text-align: justify;&quot;&gt;&lt;span style=&quot;background-color: initial;&quot;&gt;runtime: unsigned int&lt;/span&gt;&lt;/div&gt;&lt;div style=&quot;text-align: justify;&quot;&gt;&lt;br&gt;&lt;/div&gt;&lt;div style=&quot;text-align: justify;&quot;&gt;synopsis: text&lt;/div&gt;&lt;div style=&quot;text-align: justify;&quot;&gt;&lt;br&gt;&lt;/div&gt;&lt;div style=&quot;text-align: justify;&quot;&gt;budget: unsigned int&lt;/div&gt;&lt;div style=&quot;text-align: justify;&quot;&gt;&lt;br&gt;&lt;/div&gt;&lt;div style=&quot;text-align: justify;&quot;&gt;box_office: unsigned int&lt;/div&gt;&lt;div style=&quot;text-align: justify;&quot;&gt;&lt;br&gt;&lt;/div&gt;&lt;div style=&quot;text-align: justify;&quot;&gt;status: varchar(255)&lt;/div&gt;&lt;div style=&quot;text-align: justify;&quot;&gt;&lt;br&gt;&lt;/div&gt;&lt;div style=&quot;text-align: justify;&quot;&gt;tagline(varchar(255)&lt;/div&gt;&lt;div style=&quot;text-align: justify;&quot;&gt;&lt;br&gt;&lt;/div&gt;&lt;div style=&quot;text-align: justify;&quot;&gt;awards_and_nominations: varchar(255)&lt;/div&gt;&lt;div style=&quot;text-align: justify;&quot;&gt;&lt;br&gt;&lt;/div&gt;&lt;div style=&quot;text-align: justify;&quot;&gt;&lt;div&gt;poster_url: varchar(255)&lt;/div&gt;&lt;div&gt;&lt;br&gt;&lt;/div&gt;&lt;div&gt;&lt;div&gt;backdrop_url: varchar(255)&lt;/div&gt;&lt;/div&gt;&lt;div&gt;&lt;br&gt;&lt;/div&gt;&lt;div&gt;original_language: varchar(10)&lt;/div&gt;&lt;div&gt;&lt;br&gt;&lt;/div&gt;&lt;/div&gt;&lt;div style=&quot;text-align: justify;&quot;&gt;active: bit not null default 1&lt;/div&gt;&lt;div style=&quot;text-align: justify;&quot;&gt;&lt;br&gt;&lt;/div&gt;&lt;div style=&quot;text-align: justify;&quot;&gt;deleted: bit not null default 0&lt;/div&gt;" style="shape=partialRectangle;connectable=0;fillColor=none;top=0;left=0;bottom=0;right=0;align=left;spacingLeft=6;overflow=hidden;whiteSpace=wrap;html=1;" parent="i_u9Ulbk1Ha4xllaxans-5" vertex="1">
          <mxGeometry x="30" width="229.49999999999977" height="431" as="geometry">
            <mxRectangle width="229.49999999999977" height="431" as="alternateBounds" />
          </mxGeometry>
        </mxCell>
        <mxCell id="i_u9Ulbk1Ha4xllaxans-33" value="Genres" style="shape=table;startSize=30;container=1;collapsible=1;childLayout=tableLayout;fixedRows=1;rowLines=0;fontStyle=1;align=center;resizeLast=1;html=1;fillColor=#0050ef;fontColor=#ffffff;strokeColor=#001DBC;" parent="1" vertex="1">
          <mxGeometry x="-836" y="-623" width="210" height="180" as="geometry" />
        </mxCell>
        <mxCell id="i_u9Ulbk1Ha4xllaxans-34" value="" style="shape=tableRow;horizontal=0;startSize=0;swimlaneHead=0;swimlaneBody=0;fillColor=none;collapsible=0;dropTarget=0;points=[[0,0.5],[1,0.5]];portConstraint=eastwest;top=0;left=0;right=0;bottom=1;" parent="i_u9Ulbk1Ha4xllaxans-33" vertex="1">
          <mxGeometry y="30" width="210" height="30" as="geometry" />
        </mxCell>
        <mxCell id="i_u9Ulbk1Ha4xllaxans-35" value="PK" style="shape=partialRectangle;connectable=0;fillColor=none;top=0;left=0;bottom=0;right=0;fontStyle=1;overflow=hidden;whiteSpace=wrap;html=1;" parent="i_u9Ulbk1Ha4xllaxans-34" vertex="1">
          <mxGeometry width="30" height="30" as="geometry">
            <mxRectangle width="30" height="30" as="alternateBounds" />
          </mxGeometry>
        </mxCell>
        <mxCell id="i_u9Ulbk1Ha4xllaxans-36" value="genre_id: int auto_increment" style="shape=partialRectangle;connectable=0;fillColor=none;top=0;left=0;bottom=0;right=0;align=left;spacingLeft=6;fontStyle=5;overflow=hidden;whiteSpace=wrap;html=1;" parent="i_u9Ulbk1Ha4xllaxans-34" vertex="1">
          <mxGeometry x="30" width="180" height="30" as="geometry">
            <mxRectangle width="180" height="30" as="alternateBounds" />
          </mxGeometry>
        </mxCell>
        <mxCell id="i_u9Ulbk1Ha4xllaxans-37" value="" style="shape=tableRow;horizontal=0;startSize=0;swimlaneHead=0;swimlaneBody=0;fillColor=none;collapsible=0;dropTarget=0;points=[[0,0.5],[1,0.5]];portConstraint=eastwest;top=0;left=0;right=0;bottom=0;" parent="i_u9Ulbk1Ha4xllaxans-33" vertex="1">
          <mxGeometry y="60" width="210" height="100" as="geometry" />
        </mxCell>
        <mxCell id="i_u9Ulbk1Ha4xllaxans-38" value="" style="shape=partialRectangle;connectable=0;fillColor=none;top=0;left=0;bottom=0;right=0;editable=1;overflow=hidden;whiteSpace=wrap;html=1;" parent="i_u9Ulbk1Ha4xllaxans-37" vertex="1">
          <mxGeometry width="30" height="100" as="geometry">
            <mxRectangle width="30" height="100" as="alternateBounds" />
          </mxGeometry>
        </mxCell>
        <mxCell id="i_u9Ulbk1Ha4xllaxans-39" value="&lt;div style=&quot;text-align: justify;&quot;&gt;&lt;span style=&quot;background-color: initial;&quot;&gt;genre_name: varchar(80) not null unique&lt;/span&gt;&lt;/div&gt;&lt;div style=&quot;text-align: justify;&quot;&gt;&lt;div&gt;&lt;br&gt;&lt;/div&gt;&lt;/div&gt;&lt;div style=&quot;text-align: justify;&quot;&gt;active: bit not null default 1&lt;/div&gt;&lt;div style=&quot;text-align: justify;&quot;&gt;&lt;br&gt;&lt;/div&gt;&lt;div style=&quot;text-align: justify;&quot;&gt;deleted: bit not null default 0&lt;/div&gt;" style="shape=partialRectangle;connectable=0;fillColor=none;top=0;left=0;bottom=0;right=0;align=left;spacingLeft=6;overflow=hidden;whiteSpace=wrap;html=1;" parent="i_u9Ulbk1Ha4xllaxans-37" vertex="1">
          <mxGeometry x="30" width="180" height="100" as="geometry">
            <mxRectangle width="180" height="100" as="alternateBounds" />
          </mxGeometry>
        </mxCell>
        <mxCell id="i_u9Ulbk1Ha4xllaxans-40" style="edgeStyle=orthogonalEdgeStyle;rounded=0;orthogonalLoop=1;jettySize=auto;html=1;entryX=0.5;entryY=1;entryDx=0;entryDy=0;startArrow=ERoneToMany;startFill=0;endArrow=ERoneToMany;endFill=0;curved=1;" parent="1" source="i_u9Ulbk1Ha4xllaxans-41" target="i_u9Ulbk1Ha4xllaxans-33" edge="1">
          <mxGeometry relative="1" as="geometry">
            <mxPoint x="-425" y="-250" as="targetPoint" />
          </mxGeometry>
        </mxCell>
        <mxCell id="i_u9Ulbk1Ha4xllaxans-41" value="FIlmsAndGenres" style="shape=table;startSize=30;container=1;collapsible=1;childLayout=tableLayout;fixedRows=1;rowLines=0;fontStyle=1;align=center;resizeLast=1;html=1;fillColor=#0050ef;fontColor=#ffffff;strokeColor=#001DBC;" parent="1" vertex="1">
          <mxGeometry x="-841" y="-384" width="240" height="200" as="geometry" />
        </mxCell>
        <mxCell id="i_u9Ulbk1Ha4xllaxans-42" value="" style="shape=tableRow;horizontal=0;startSize=0;swimlaneHead=0;swimlaneBody=0;fillColor=none;collapsible=0;dropTarget=0;points=[[0,0.5],[1,0.5]];portConstraint=eastwest;top=0;left=0;right=0;bottom=1;" parent="i_u9Ulbk1Ha4xllaxans-41" vertex="1">
          <mxGeometry y="30" width="240" height="90" as="geometry" />
        </mxCell>
        <mxCell id="i_u9Ulbk1Ha4xllaxans-43" value="PK&lt;br&gt;&lt;br&gt;FK&lt;br&gt;&lt;br&gt;FK" style="shape=partialRectangle;connectable=0;fillColor=none;top=0;left=0;bottom=0;right=0;fontStyle=1;overflow=hidden;whiteSpace=wrap;html=1;" parent="i_u9Ulbk1Ha4xllaxans-42" vertex="1">
          <mxGeometry width="30" height="90" as="geometry">
            <mxRectangle width="30" height="90" as="alternateBounds" />
          </mxGeometry>
        </mxCell>
        <mxCell id="i_u9Ulbk1Ha4xllaxans-44" value="film_genre_id: int auto_increment&lt;br&gt;&lt;br&gt;film_id: int not null&lt;br&gt;&lt;br&gt;genre_id: int not null" style="shape=partialRectangle;connectable=0;fillColor=none;top=0;left=0;bottom=0;right=0;align=left;spacingLeft=6;fontStyle=5;overflow=hidden;whiteSpace=wrap;html=1;" parent="i_u9Ulbk1Ha4xllaxans-42" vertex="1">
          <mxGeometry x="30" width="210" height="90" as="geometry">
            <mxRectangle width="210" height="90" as="alternateBounds" />
          </mxGeometry>
        </mxCell>
        <mxCell id="i_u9Ulbk1Ha4xllaxans-45" value="" style="shape=tableRow;horizontal=0;startSize=0;swimlaneHead=0;swimlaneBody=0;fillColor=none;collapsible=0;dropTarget=0;points=[[0,0.5],[1,0.5]];portConstraint=eastwest;top=0;left=0;right=0;bottom=0;" parent="i_u9Ulbk1Ha4xllaxans-41" vertex="1">
          <mxGeometry y="120" width="240" height="70" as="geometry" />
        </mxCell>
        <mxCell id="i_u9Ulbk1Ha4xllaxans-46" value="" style="shape=partialRectangle;connectable=0;fillColor=none;top=0;left=0;bottom=0;right=0;editable=1;overflow=hidden;whiteSpace=wrap;html=1;" parent="i_u9Ulbk1Ha4xllaxans-45" vertex="1">
          <mxGeometry width="30" height="70" as="geometry">
            <mxRectangle width="30" height="70" as="alternateBounds" />
          </mxGeometry>
        </mxCell>
        <mxCell id="i_u9Ulbk1Ha4xllaxans-47" value="&lt;div style=&quot;text-align: justify;&quot;&gt;&lt;span style=&quot;background-color: initial;&quot;&gt;active: bit not null default 1&lt;/span&gt;&lt;br&gt;&lt;/div&gt;&lt;div style=&quot;text-align: justify;&quot;&gt;&lt;div&gt;&lt;br&gt;&lt;/div&gt;&lt;div&gt;deleted: bit not null default 0&lt;/div&gt;&lt;/div&gt;" style="shape=partialRectangle;connectable=0;fillColor=none;top=0;left=0;bottom=0;right=0;align=left;spacingLeft=6;overflow=hidden;whiteSpace=wrap;html=1;" parent="i_u9Ulbk1Ha4xllaxans-45" vertex="1">
          <mxGeometry x="30" width="210" height="70" as="geometry">
            <mxRectangle width="210" height="70" as="alternateBounds" />
          </mxGeometry>
        </mxCell>
        <mxCell id="i_u9Ulbk1Ha4xllaxans-48" style="edgeStyle=orthogonalEdgeStyle;rounded=0;orthogonalLoop=1;jettySize=auto;html=1;entryX=0.5;entryY=1;entryDx=0;entryDy=0;curved=1;startArrow=ERoneToMany;startFill=0;endArrow=ERoneToMany;endFill=0;exitX=0.469;exitY=-0.003;exitDx=0;exitDy=0;exitPerimeter=0;" parent="1" source="i_u9Ulbk1Ha4xllaxans-1" target="i_u9Ulbk1Ha4xllaxans-41" edge="1">
          <mxGeometry relative="1" as="geometry">
            <mxPoint x="-615" y="725" as="sourcePoint" />
            <mxPoint x="-710" y="640" as="targetPoint" />
            <Array as="points">
              <mxPoint x="-433" y="-143" />
              <mxPoint x="-721" y="-143" />
            </Array>
          </mxGeometry>
        </mxCell>
        <mxCell id="i_u9Ulbk1Ha4xllaxans-179" style="edgeStyle=orthogonalEdgeStyle;rounded=0;orthogonalLoop=1;jettySize=auto;html=1;entryX=0.5;entryY=0;entryDx=0;entryDy=0;exitX=0.739;exitY=1.008;exitDx=0;exitDy=0;exitPerimeter=0;curved=1;startArrow=ERmany;startFill=0;endArrow=ERmany;endFill=0;" parent="1" source="i_u9Ulbk1Ha4xllaxans-98" target="i_u9Ulbk1Ha4xllaxans-172" edge="1">
          <mxGeometry relative="1" as="geometry">
            <Array as="points">
              <mxPoint x="551" y="-460" />
              <mxPoint x="551" y="-402" />
              <mxPoint x="499" y="-402" />
            </Array>
          </mxGeometry>
        </mxCell>
        <mxCell id="i_u9Ulbk1Ha4xllaxans-94" value="Comments" style="shape=table;startSize=30;container=1;collapsible=1;childLayout=tableLayout;fixedRows=1;rowLines=0;fontStyle=1;align=center;resizeLast=1;html=1;fillColor=#76608a;fontColor=#ffffff;strokeColor=#432D57;" parent="1" vertex="1">
          <mxGeometry x="350" y="-792" width="280" height="330.0000000000002" as="geometry" />
        </mxCell>
        <mxCell id="i_u9Ulbk1Ha4xllaxans-95" value="" style="shape=tableRow;horizontal=0;startSize=0;swimlaneHead=0;swimlaneBody=0;fillColor=none;collapsible=0;dropTarget=0;points=[[0,0.5],[1,0.5]];portConstraint=eastwest;top=0;left=0;right=0;bottom=1;" parent="i_u9Ulbk1Ha4xllaxans-94" vertex="1">
          <mxGeometry y="30" width="280" height="110" as="geometry" />
        </mxCell>
        <mxCell id="i_u9Ulbk1Ha4xllaxans-96" value="PK&lt;br&gt;&lt;br&gt;FK&lt;br&gt;&lt;br&gt;FK&lt;br&gt;&lt;br&gt;FK" style="shape=partialRectangle;connectable=0;fillColor=none;top=0;left=0;bottom=0;right=0;fontStyle=1;overflow=hidden;whiteSpace=wrap;html=1;" parent="i_u9Ulbk1Ha4xllaxans-95" vertex="1">
          <mxGeometry width="30" height="110" as="geometry">
            <mxRectangle width="30" height="110" as="alternateBounds" />
          </mxGeometry>
        </mxCell>
        <mxCell id="i_u9Ulbk1Ha4xllaxans-97" value="comment_id: int auto_increment&lt;br&gt;&lt;br&gt;comment_id: int auto_increment&amp;nbsp;&lt;br&gt;&lt;br&gt;user_id: int not null&lt;br&gt;&lt;br&gt;film_id: int not null" style="shape=partialRectangle;connectable=0;fillColor=none;top=0;left=0;bottom=0;right=0;align=left;spacingLeft=6;fontStyle=5;overflow=hidden;whiteSpace=wrap;html=1;" parent="i_u9Ulbk1Ha4xllaxans-95" vertex="1">
          <mxGeometry x="30" width="250" height="110" as="geometry">
            <mxRectangle width="250" height="110" as="alternateBounds" />
          </mxGeometry>
        </mxCell>
        <mxCell id="i_u9Ulbk1Ha4xllaxans-98" value="" style="shape=tableRow;horizontal=0;startSize=0;swimlaneHead=0;swimlaneBody=0;fillColor=none;collapsible=0;dropTarget=0;points=[[0,0.5],[1,0.5]];portConstraint=eastwest;top=0;left=0;right=0;bottom=0;" parent="i_u9Ulbk1Ha4xllaxans-94" vertex="1">
          <mxGeometry y="140" width="280" height="190" as="geometry" />
        </mxCell>
        <mxCell id="i_u9Ulbk1Ha4xllaxans-99" value="" style="shape=partialRectangle;connectable=0;fillColor=none;top=0;left=0;bottom=0;right=0;editable=1;overflow=hidden;whiteSpace=wrap;html=1;" parent="i_u9Ulbk1Ha4xllaxans-98" vertex="1">
          <mxGeometry width="30" height="190" as="geometry">
            <mxRectangle width="30" height="190" as="alternateBounds" />
          </mxGeometry>
        </mxCell>
        <mxCell id="i_u9Ulbk1Ha4xllaxans-100" value="&lt;div style=&quot;text-align: justify;&quot;&gt;&lt;span style=&quot;background-color: initial;&quot;&gt;parent_comment_id: int default null&lt;/span&gt;&lt;/div&gt;&lt;div style=&quot;&quot;&gt;&lt;div&gt;&lt;br&gt;&lt;/div&gt;&lt;/div&gt;&lt;div style=&quot;text-align: justify;&quot;&gt;&lt;div&gt;body: text not null&lt;/div&gt;&lt;div&gt;&lt;br&gt;&lt;/div&gt;&lt;div&gt;creation_date: timestamp not null default current_tiemstamp&lt;/div&gt;&lt;div&gt;&lt;br&gt;&lt;/div&gt;&lt;/div&gt;&lt;div style=&quot;text-align: justify;&quot;&gt;active: bit not null default 1&lt;/div&gt;&lt;div style=&quot;text-align: justify;&quot;&gt;&lt;br&gt;&lt;/div&gt;&lt;div style=&quot;text-align: justify;&quot;&gt;deleted: bit not null default 0&lt;/div&gt;" style="shape=partialRectangle;connectable=0;fillColor=none;top=0;left=0;bottom=0;right=0;align=left;spacingLeft=6;overflow=hidden;whiteSpace=wrap;html=1;" parent="i_u9Ulbk1Ha4xllaxans-98" vertex="1">
          <mxGeometry x="30" width="250" height="190" as="geometry">
            <mxRectangle width="250" height="190" as="alternateBounds" />
          </mxGeometry>
        </mxCell>
        <mxCell id="i_u9Ulbk1Ha4xllaxans-321" style="edgeStyle=orthogonalEdgeStyle;shape=connector;curved=1;rounded=0;orthogonalLoop=1;jettySize=auto;html=1;labelBackgroundColor=default;strokeColor=default;align=center;verticalAlign=middle;fontFamily=Helvetica;fontSize=11;fontColor=default;startArrow=ERone;startFill=0;endArrow=ERzeroToMany;endFill=0;entryX=0.524;entryY=0;entryDx=0;entryDy=0;entryPerimeter=0;exitX=1;exitY=0.5;exitDx=0;exitDy=0;" parent="i_u9Ulbk1Ha4xllaxans-94" source="i_u9Ulbk1Ha4xllaxans-98" target="i_u9Ulbk1Ha4xllaxans-94" edge="1">
          <mxGeometry relative="1" as="geometry">
            <mxPoint x="375" y="-123" as="targetPoint" />
            <mxPoint x="424" y="50" as="sourcePoint" />
            <Array as="points">
              <mxPoint x="429" y="235" />
              <mxPoint x="429" y="-20" />
              <mxPoint x="147" y="-20" />
            </Array>
          </mxGeometry>
        </mxCell>
        <mxCell id="i_u9Ulbk1Ha4xllaxans-102" style="edgeStyle=orthogonalEdgeStyle;rounded=0;orthogonalLoop=1;jettySize=auto;html=1;entryX=0;entryY=0.5;entryDx=0;entryDy=0;startArrow=ERone;startFill=0;endArrow=ERzeroToMany;endFill=0;curved=1;exitX=0.687;exitY=0.009;exitDx=0;exitDy=0;exitPerimeter=0;" parent="1" source="i_u9Ulbk1Ha4xllaxans-1" target="i_u9Ulbk1Ha4xllaxans-95" edge="1">
          <mxGeometry relative="1" as="geometry">
            <mxPoint x="-264" y="-604.952380952381" as="sourcePoint" />
          </mxGeometry>
        </mxCell>
        <mxCell id="i_u9Ulbk1Ha4xllaxans-103" value="ListsAndFilms" style="shape=table;startSize=30;container=1;collapsible=1;childLayout=tableLayout;fixedRows=1;rowLines=0;fontStyle=1;align=center;resizeLast=1;html=1;fillColor=#60a917;fontColor=#ffffff;strokeColor=#2D7600;" parent="1" vertex="1">
          <mxGeometry x="-571" y="847" width="230" height="235" as="geometry" />
        </mxCell>
        <mxCell id="i_u9Ulbk1Ha4xllaxans-104" value="" style="shape=tableRow;horizontal=0;startSize=0;swimlaneHead=0;swimlaneBody=0;fillColor=none;collapsible=0;dropTarget=0;points=[[0,0.5],[1,0.5]];portConstraint=eastwest;top=0;left=0;right=0;bottom=1;" parent="i_u9Ulbk1Ha4xllaxans-103" vertex="1">
          <mxGeometry y="30" width="230" height="95" as="geometry" />
        </mxCell>
        <mxCell id="i_u9Ulbk1Ha4xllaxans-105" value="PK&lt;br&gt;&lt;br&gt;FK&lt;br&gt;&lt;br&gt;FK" style="shape=partialRectangle;connectable=0;fillColor=none;top=0;left=0;bottom=0;right=0;fontStyle=1;overflow=hidden;whiteSpace=wrap;html=1;" parent="i_u9Ulbk1Ha4xllaxans-104" vertex="1">
          <mxGeometry width="30" height="95" as="geometry">
            <mxRectangle width="30" height="95" as="alternateBounds" />
          </mxGeometry>
        </mxCell>
        <mxCell id="i_u9Ulbk1Ha4xllaxans-106" value="list_film_id: int auto_increment&lt;br&gt;&lt;br&gt;list_id: int not null&lt;br&gt;&lt;br&gt;film_id: int not null" style="shape=partialRectangle;connectable=0;fillColor=none;top=0;left=0;bottom=0;right=0;align=left;spacingLeft=6;fontStyle=5;overflow=hidden;whiteSpace=wrap;html=1;" parent="i_u9Ulbk1Ha4xllaxans-104" vertex="1">
          <mxGeometry x="30" width="200" height="95" as="geometry">
            <mxRectangle width="200" height="95" as="alternateBounds" />
          </mxGeometry>
        </mxCell>
        <mxCell id="i_u9Ulbk1Ha4xllaxans-107" value="" style="shape=tableRow;horizontal=0;startSize=0;swimlaneHead=0;swimlaneBody=0;fillColor=none;collapsible=0;dropTarget=0;points=[[0,0.5],[1,0.5]];portConstraint=eastwest;top=0;left=0;right=0;bottom=0;" parent="i_u9Ulbk1Ha4xllaxans-103" vertex="1">
          <mxGeometry y="125" width="230" height="110" as="geometry" />
        </mxCell>
        <mxCell id="i_u9Ulbk1Ha4xllaxans-108" value="" style="shape=partialRectangle;connectable=0;fillColor=none;top=0;left=0;bottom=0;right=0;editable=1;overflow=hidden;whiteSpace=wrap;html=1;" parent="i_u9Ulbk1Ha4xllaxans-107" vertex="1">
          <mxGeometry width="30" height="110" as="geometry">
            <mxRectangle width="30" height="110" as="alternateBounds" />
          </mxGeometry>
        </mxCell>
        <mxCell id="i_u9Ulbk1Ha4xllaxans-109" value="&lt;div style=&quot;text-align: justify;&quot;&gt;sort_order&lt;/div&gt;&lt;div style=&quot;text-align: justify;&quot;&gt;&lt;span style=&quot;background-color: initial;&quot;&gt;&lt;br&gt;&lt;/span&gt;&lt;/div&gt;&lt;div style=&quot;text-align: justify;&quot;&gt;&lt;span style=&quot;background-color: initial;&quot;&gt;active: bit not null default 1&lt;/span&gt;&lt;br&gt;&lt;/div&gt;&lt;div style=&quot;text-align: justify;&quot;&gt;&lt;div&gt;&lt;br&gt;&lt;/div&gt;&lt;div&gt;deleted: bit not null default 0&lt;/div&gt;&lt;/div&gt;" style="shape=partialRectangle;connectable=0;fillColor=none;top=0;left=0;bottom=0;right=0;align=left;spacingLeft=6;overflow=hidden;whiteSpace=wrap;html=1;" parent="i_u9Ulbk1Ha4xllaxans-107" vertex="1">
          <mxGeometry x="30" width="200" height="110" as="geometry">
            <mxRectangle width="200" height="110" as="alternateBounds" />
          </mxGeometry>
        </mxCell>
        <mxCell id="i_u9Ulbk1Ha4xllaxans-125" style="edgeStyle=orthogonalEdgeStyle;rounded=0;orthogonalLoop=1;jettySize=auto;html=1;entryX=0.5;entryY=0;entryDx=0;entryDy=0;curved=1;startArrow=ERzeroToMany;startFill=0;endArrow=ERoneToMany;endFill=0;" parent="1" source="i_u9Ulbk1Ha4xllaxans-117" target="i_u9Ulbk1Ha4xllaxans-163" edge="1">
          <mxGeometry relative="1" as="geometry">
            <mxPoint x="-87" y="414.99999999999955" as="targetPoint" />
          </mxGeometry>
        </mxCell>
        <mxCell id="i_u9Ulbk1Ha4xllaxans-117" value="Ratings" style="shape=table;startSize=30;container=1;collapsible=1;childLayout=tableLayout;fixedRows=1;rowLines=0;fontStyle=1;align=center;resizeLast=1;html=1;fillColor=#e3c800;fontColor=#000000;strokeColor=#B09500;" parent="1" vertex="1">
          <mxGeometry x="-193" y="89" width="210" height="170" as="geometry" />
        </mxCell>
        <mxCell id="i_u9Ulbk1Ha4xllaxans-118" value="" style="shape=tableRow;horizontal=0;startSize=0;swimlaneHead=0;swimlaneBody=0;fillColor=none;collapsible=0;dropTarget=0;points=[[0,0.5],[1,0.5]];portConstraint=eastwest;top=0;left=0;right=0;bottom=1;" parent="i_u9Ulbk1Ha4xllaxans-117" vertex="1">
          <mxGeometry y="30" width="210" height="30" as="geometry" />
        </mxCell>
        <mxCell id="i_u9Ulbk1Ha4xllaxans-119" value="PK" style="shape=partialRectangle;connectable=0;fillColor=none;top=0;left=0;bottom=0;right=0;fontStyle=1;overflow=hidden;whiteSpace=wrap;html=1;" parent="i_u9Ulbk1Ha4xllaxans-118" vertex="1">
          <mxGeometry width="30" height="30" as="geometry">
            <mxRectangle width="30" height="30" as="alternateBounds" />
          </mxGeometry>
        </mxCell>
        <mxCell id="i_u9Ulbk1Ha4xllaxans-120" value="rating_id: int auto_increment" style="shape=partialRectangle;connectable=0;fillColor=none;top=0;left=0;bottom=0;right=0;align=left;spacingLeft=6;fontStyle=5;overflow=hidden;whiteSpace=wrap;html=1;" parent="i_u9Ulbk1Ha4xllaxans-118" vertex="1">
          <mxGeometry x="30" width="180" height="30" as="geometry">
            <mxRectangle width="180" height="30" as="alternateBounds" />
          </mxGeometry>
        </mxCell>
        <mxCell id="i_u9Ulbk1Ha4xllaxans-121" value="" style="shape=tableRow;horizontal=0;startSize=0;swimlaneHead=0;swimlaneBody=0;fillColor=none;collapsible=0;dropTarget=0;points=[[0,0.5],[1,0.5]];portConstraint=eastwest;top=0;left=0;right=0;bottom=0;" parent="i_u9Ulbk1Ha4xllaxans-117" vertex="1">
          <mxGeometry y="60" width="210" height="110" as="geometry" />
        </mxCell>
        <mxCell id="i_u9Ulbk1Ha4xllaxans-122" value="" style="shape=partialRectangle;connectable=0;fillColor=none;top=0;left=0;bottom=0;right=0;editable=1;overflow=hidden;whiteSpace=wrap;html=1;" parent="i_u9Ulbk1Ha4xllaxans-121" vertex="1">
          <mxGeometry width="30" height="110" as="geometry">
            <mxRectangle width="30" height="110" as="alternateBounds" />
          </mxGeometry>
        </mxCell>
        <mxCell id="i_u9Ulbk1Ha4xllaxans-123" value="&lt;div style=&quot;text-align: justify;&quot;&gt;rating_value&lt;span style=&quot;background-color: initial;&quot;&gt;: decimal(2, 1) not null check (rating_value&amp;gt;=0.5 and rating_value&amp;lt;=5)&lt;/span&gt;&lt;/div&gt;&lt;div style=&quot;text-align: justify;&quot;&gt;&lt;div&gt;&lt;br&gt;&lt;/div&gt;&lt;/div&gt;&lt;div style=&quot;text-align: justify;&quot;&gt;active: bit not null default 1&lt;/div&gt;&lt;div style=&quot;text-align: justify;&quot;&gt;&lt;br&gt;&lt;/div&gt;&lt;div style=&quot;text-align: justify;&quot;&gt;deleted: bit not null default 0&lt;/div&gt;" style="shape=partialRectangle;connectable=0;fillColor=none;top=0;left=0;bottom=0;right=0;align=left;spacingLeft=6;overflow=hidden;whiteSpace=wrap;html=1;" parent="i_u9Ulbk1Ha4xllaxans-121" vertex="1">
          <mxGeometry x="30" width="180" height="110" as="geometry">
            <mxRectangle width="180" height="110" as="alternateBounds" />
          </mxGeometry>
        </mxCell>
        <mxCell id="i_u9Ulbk1Ha4xllaxans-126" style="edgeStyle=orthogonalEdgeStyle;rounded=0;orthogonalLoop=1;jettySize=auto;html=1;entryX=0.172;entryY=0.001;entryDx=0;entryDy=0;entryPerimeter=0;curved=1;exitX=0.25;exitY=1;exitDx=0;exitDy=0;startArrow=ERoneToMany;startFill=0;endArrow=ERzeroToMany;endFill=0;" parent="1" source="i_u9Ulbk1Ha4xllaxans-1" target="i_u9Ulbk1Ha4xllaxans-103" edge="1">
          <mxGeometry relative="1" as="geometry" />
        </mxCell>
        <mxCell id="i_u9Ulbk1Ha4xllaxans-127" value="Lists" style="shape=table;startSize=30;container=1;collapsible=1;childLayout=tableLayout;fixedRows=1;rowLines=0;fontStyle=1;align=center;resizeLast=1;html=1;fillColor=#60a917;fontColor=#ffffff;strokeColor=#2D7600;" parent="1" vertex="1">
          <mxGeometry x="-207" y="815.33" width="230" height="262" as="geometry" />
        </mxCell>
        <mxCell id="i_u9Ulbk1Ha4xllaxans-128" value="" style="shape=tableRow;horizontal=0;startSize=0;swimlaneHead=0;swimlaneBody=0;fillColor=none;collapsible=0;dropTarget=0;points=[[0,0.5],[1,0.5]];portConstraint=eastwest;top=0;left=0;right=0;bottom=1;" parent="i_u9Ulbk1Ha4xllaxans-127" vertex="1">
          <mxGeometry y="30" width="230" height="70" as="geometry" />
        </mxCell>
        <mxCell id="i_u9Ulbk1Ha4xllaxans-129" value="PK&lt;br&gt;&lt;br&gt;FK" style="shape=partialRectangle;connectable=0;fillColor=none;top=0;left=0;bottom=0;right=0;fontStyle=1;overflow=hidden;whiteSpace=wrap;html=1;" parent="i_u9Ulbk1Ha4xllaxans-128" vertex="1">
          <mxGeometry width="30" height="70" as="geometry">
            <mxRectangle width="30" height="70" as="alternateBounds" />
          </mxGeometry>
        </mxCell>
        <mxCell id="i_u9Ulbk1Ha4xllaxans-130" value="list_id: int auto_increment&lt;br&gt;&lt;br&gt;user_id: int not null" style="shape=partialRectangle;connectable=0;fillColor=none;top=0;left=0;bottom=0;right=0;align=left;spacingLeft=6;fontStyle=5;overflow=hidden;whiteSpace=wrap;html=1;" parent="i_u9Ulbk1Ha4xllaxans-128" vertex="1">
          <mxGeometry x="30" width="200" height="70" as="geometry">
            <mxRectangle width="200" height="70" as="alternateBounds" />
          </mxGeometry>
        </mxCell>
        <mxCell id="i_u9Ulbk1Ha4xllaxans-131" value="" style="shape=tableRow;horizontal=0;startSize=0;swimlaneHead=0;swimlaneBody=0;fillColor=none;collapsible=0;dropTarget=0;points=[[0,0.5],[1,0.5]];portConstraint=eastwest;top=0;left=0;right=0;bottom=0;" parent="i_u9Ulbk1Ha4xllaxans-127" vertex="1">
          <mxGeometry y="100" width="230" height="162" as="geometry" />
        </mxCell>
        <mxCell id="i_u9Ulbk1Ha4xllaxans-132" value="" style="shape=partialRectangle;connectable=0;fillColor=none;top=0;left=0;bottom=0;right=0;editable=1;overflow=hidden;whiteSpace=wrap;html=1;" parent="i_u9Ulbk1Ha4xllaxans-131" vertex="1">
          <mxGeometry width="30" height="162" as="geometry">
            <mxRectangle width="30" height="162" as="alternateBounds" />
          </mxGeometry>
        </mxCell>
        <mxCell id="i_u9Ulbk1Ha4xllaxans-133" value="&lt;div style=&quot;text-align: justify;&quot;&gt;&lt;span style=&quot;background-color: initial;&quot;&gt;list_name: varchar(100) not null&lt;/span&gt;&lt;/div&gt;&lt;div style=&quot;text-align: justify;&quot;&gt;&lt;span style=&quot;background-color: initial;&quot;&gt;&lt;br&gt;&lt;/span&gt;&lt;/div&gt;&lt;div style=&quot;text-align: justify;&quot;&gt;&lt;span style=&quot;background-color: initial;&quot;&gt;list_description: text&lt;/span&gt;&lt;/div&gt;&lt;div style=&quot;text-align: justify;&quot;&gt;&lt;span style=&quot;background-color: initial;&quot;&gt;&lt;br&gt;&lt;/span&gt;&lt;/div&gt;&lt;div style=&quot;text-align: justify;&quot;&gt;&lt;span style=&quot;background-color: initial;&quot;&gt;&lt;br&gt;&lt;/span&gt;&lt;/div&gt;&lt;div style=&quot;text-align: justify;&quot;&gt;date_of_creation: timestamp not null deault current_timestamp&lt;span style=&quot;background-color: initial;&quot;&gt;&lt;br&gt;&lt;/span&gt;&lt;/div&gt;&lt;div style=&quot;text-align: justify;&quot;&gt;&lt;br&gt;&lt;/div&gt;&lt;div style=&quot;text-align: justify;&quot;&gt;&lt;span style=&quot;background-color: initial;&quot;&gt;active: bit not null default 1&lt;/span&gt;&lt;br&gt;&lt;/div&gt;&lt;div style=&quot;text-align: justify;&quot;&gt;&lt;div&gt;&lt;br&gt;&lt;/div&gt;&lt;div&gt;deleted: bit not null default 0&lt;/div&gt;&lt;/div&gt;" style="shape=partialRectangle;connectable=0;fillColor=none;top=0;left=0;bottom=0;right=0;align=left;spacingLeft=6;overflow=hidden;whiteSpace=wrap;html=1;" parent="i_u9Ulbk1Ha4xllaxans-131" vertex="1">
          <mxGeometry x="30" width="200" height="162" as="geometry">
            <mxRectangle width="200" height="162" as="alternateBounds" />
          </mxGeometry>
        </mxCell>
        <mxCell id="i_u9Ulbk1Ha4xllaxans-134" style="edgeStyle=orthogonalEdgeStyle;rounded=0;orthogonalLoop=1;jettySize=auto;html=1;entryX=1;entryY=0.5;entryDx=0;entryDy=0;curved=1;endArrow=ERoneToMany;endFill=0;startArrow=ERzeroToMany;startFill=0;" parent="1" source="i_u9Ulbk1Ha4xllaxans-128" target="i_u9Ulbk1Ha4xllaxans-104" edge="1">
          <mxGeometry relative="1" as="geometry" />
        </mxCell>
        <mxCell id="i_u9Ulbk1Ha4xllaxans-142" style="edgeStyle=orthogonalEdgeStyle;rounded=0;orthogonalLoop=1;jettySize=auto;html=1;exitX=0.25;exitY=1;exitDx=0;exitDy=0;entryX=0.5;entryY=0;entryDx=0;entryDy=0;startArrow=ERone;startFill=0;endArrow=ERzeroToMany;endFill=0;curved=1;" parent="1" source="i_u9Ulbk1Ha4xllaxans-135" target="i_u9Ulbk1Ha4xllaxans-127" edge="1">
          <mxGeometry relative="1" as="geometry" />
        </mxCell>
        <mxCell id="i_u9Ulbk1Ha4xllaxans-216" style="edgeStyle=orthogonalEdgeStyle;rounded=0;orthogonalLoop=1;jettySize=auto;html=1;exitX=0;exitY=0;exitDx=0;exitDy=0;curved=1;startArrow=ERone;startFill=0;endArrow=ERoneToMany;endFill=0;" parent="1" source="i_u9Ulbk1Ha4xllaxans-135" target="i_u9Ulbk1Ha4xllaxans-192" edge="1">
          <mxGeometry relative="1" as="geometry" />
        </mxCell>
        <mxCell id="i_u9Ulbk1Ha4xllaxans-218" style="edgeStyle=orthogonalEdgeStyle;rounded=0;orthogonalLoop=1;jettySize=auto;html=1;entryX=0.5;entryY=1;entryDx=0;entryDy=0;exitX=0.25;exitY=0;exitDx=0;exitDy=0;curved=1;endArrow=ERmany;endFill=0;startArrow=ERmany;startFill=0;" parent="1" source="i_u9Ulbk1Ha4xllaxans-135" target="i_u9Ulbk1Ha4xllaxans-202" edge="1">
          <mxGeometry relative="1" as="geometry" />
        </mxCell>
        <mxCell id="i_u9Ulbk1Ha4xllaxans-228" style="edgeStyle=orthogonalEdgeStyle;rounded=0;orthogonalLoop=1;jettySize=auto;html=1;entryX=0.5;entryY=0;entryDx=0;entryDy=0;curved=1;exitX=0.5;exitY=1;exitDx=0;exitDy=0;" parent="1" source="i_u9Ulbk1Ha4xllaxans-135" target="i_u9Ulbk1Ha4xllaxans-221" edge="1">
          <mxGeometry relative="1" as="geometry">
            <mxPoint x="279" y="560" as="sourcePoint" />
          </mxGeometry>
        </mxCell>
        <mxCell id="i_u9Ulbk1Ha4xllaxans-135" value="Users" style="shape=table;startSize=30;container=1;collapsible=1;childLayout=tableLayout;fixedRows=1;rowLines=0;fontStyle=1;align=center;resizeLast=1;html=1;fillColor=#d80073;fontColor=#ffffff;strokeColor=#A50040;" parent="1" vertex="1">
          <mxGeometry x="171" y="189" width="260" height="369.23529411764696" as="geometry" />
        </mxCell>
        <mxCell id="i_u9Ulbk1Ha4xllaxans-136" value="" style="shape=tableRow;horizontal=0;startSize=0;swimlaneHead=0;swimlaneBody=0;fillColor=none;collapsible=0;dropTarget=0;points=[[0,0.5],[1,0.5]];portConstraint=eastwest;top=0;left=0;right=0;bottom=1;" parent="i_u9Ulbk1Ha4xllaxans-135" vertex="1">
          <mxGeometry y="30" width="260" height="37" as="geometry" />
        </mxCell>
        <mxCell id="i_u9Ulbk1Ha4xllaxans-137" value="PK" style="shape=partialRectangle;connectable=0;fillColor=none;top=0;left=0;bottom=0;right=0;fontStyle=1;overflow=hidden;whiteSpace=wrap;html=1;" parent="i_u9Ulbk1Ha4xllaxans-136" vertex="1">
          <mxGeometry width="30" height="37" as="geometry">
            <mxRectangle width="30" height="37" as="alternateBounds" />
          </mxGeometry>
        </mxCell>
        <mxCell id="i_u9Ulbk1Ha4xllaxans-138" value="user_id: int auto_increment" style="shape=partialRectangle;connectable=0;fillColor=none;top=0;left=0;bottom=0;right=0;align=left;spacingLeft=6;fontStyle=5;overflow=hidden;whiteSpace=wrap;html=1;" parent="i_u9Ulbk1Ha4xllaxans-136" vertex="1">
          <mxGeometry x="30" width="230" height="37" as="geometry">
            <mxRectangle width="230" height="37" as="alternateBounds" />
          </mxGeometry>
        </mxCell>
        <mxCell id="i_u9Ulbk1Ha4xllaxans-139" value="" style="shape=tableRow;horizontal=0;startSize=0;swimlaneHead=0;swimlaneBody=0;fillColor=none;collapsible=0;dropTarget=0;points=[[0,0.5],[1,0.5]];portConstraint=eastwest;top=0;left=0;right=0;bottom=0;" parent="i_u9Ulbk1Ha4xllaxans-135" vertex="1">
          <mxGeometry y="67" width="260" height="292" as="geometry" />
        </mxCell>
        <mxCell id="i_u9Ulbk1Ha4xllaxans-140" value="" style="shape=partialRectangle;connectable=0;fillColor=none;top=0;left=0;bottom=0;right=0;editable=1;overflow=hidden;whiteSpace=wrap;html=1;" parent="i_u9Ulbk1Ha4xllaxans-139" vertex="1">
          <mxGeometry width="30" height="292" as="geometry">
            <mxRectangle width="30" height="292" as="alternateBounds" />
          </mxGeometry>
        </mxCell>
        <mxCell id="i_u9Ulbk1Ha4xllaxans-141" value="&lt;div style=&quot;text-align: justify;&quot;&gt;&lt;span style=&quot;background-color: initial;&quot;&gt;username: varchar(50) unique not null&lt;/span&gt;&lt;/div&gt;&lt;div style=&quot;text-align: justify;&quot;&gt;&lt;span style=&quot;background-color: initial;&quot;&gt;&lt;br&gt;&lt;/span&gt;&lt;/div&gt;&lt;div style=&quot;text-align: justify;&quot;&gt;&lt;span style=&quot;background-color: initial;&quot;&gt;email: varchar(100) unique not null&lt;/span&gt;&lt;/div&gt;&lt;div style=&quot;text-align: justify;&quot;&gt;&lt;span style=&quot;background-color: initial;&quot;&gt;&lt;br&gt;&lt;/span&gt;&lt;/div&gt;&lt;div style=&quot;text-align: justify;&quot;&gt;&lt;span style=&quot;background-color: initial;&quot;&gt;password: varchar(255) not null&lt;/span&gt;&lt;/div&gt;&lt;div style=&quot;text-align: justify;&quot;&gt;&lt;span style=&quot;background-color: initial;&quot;&gt;&lt;br&gt;&lt;/span&gt;&lt;/div&gt;&lt;div style=&quot;text-align: justify;&quot;&gt;&lt;span style=&quot;background-color: initial;&quot;&gt;first_name: varchar(80) not null&lt;/span&gt;&lt;/div&gt;&lt;div style=&quot;text-align: justify;&quot;&gt;&lt;span style=&quot;background-color: initial;&quot;&gt;&lt;br&gt;&lt;/span&gt;&lt;/div&gt;&lt;div style=&quot;text-align: justify;&quot;&gt;&lt;span style=&quot;background-color: initial;&quot;&gt;last_name varchar(80) not null&lt;/span&gt;&lt;/div&gt;&lt;div style=&quot;text-align: justify;&quot;&gt;&lt;span style=&quot;background-color: initial;&quot;&gt;&lt;br&gt;&lt;/span&gt;&lt;/div&gt;&lt;div style=&quot;text-align: justify;&quot;&gt;date_of_birth: date&lt;/div&gt;&lt;div style=&quot;text-align: justify;&quot;&gt;&lt;br&gt;&lt;/div&gt;&lt;div style=&quot;text-align: justify;&quot;&gt;registration_date: timestamp not null default current_tiemstamp&lt;/div&gt;&lt;div style=&quot;text-align: justify;&quot;&gt;&lt;br&gt;&lt;/div&gt;&lt;div style=&quot;text-align: justify;&quot;&gt;picture_url: varchar(255)&lt;/div&gt;&lt;div style=&quot;text-align: justify;&quot;&gt;&lt;br&gt;&lt;/div&gt;&lt;div style=&quot;text-align: justify;&quot;&gt;active: bit not null default 1&lt;/div&gt;&lt;div style=&quot;text-align: justify;&quot;&gt;&lt;br&gt;&lt;/div&gt;&lt;div style=&quot;text-align: justify;&quot;&gt;deleted: bit not null default 0&lt;/div&gt;&lt;div style=&quot;text-align: justify;&quot;&gt;&lt;br&gt;&lt;/div&gt;&lt;div style=&quot;text-align: justify;&quot;&gt;&lt;br&gt;&lt;/div&gt;" style="shape=partialRectangle;connectable=0;fillColor=none;top=0;left=0;bottom=0;right=0;align=left;spacingLeft=6;overflow=hidden;whiteSpace=wrap;html=1;" parent="i_u9Ulbk1Ha4xllaxans-139" vertex="1">
          <mxGeometry x="30" width="230" height="292" as="geometry">
            <mxRectangle width="230" height="292" as="alternateBounds" />
          </mxGeometry>
        </mxCell>
        <mxCell id="i_u9Ulbk1Ha4xllaxans-151" value="PrivateMessages" style="shape=table;startSize=30;container=1;collapsible=1;childLayout=tableLayout;fixedRows=1;rowLines=0;fontStyle=1;align=center;resizeLast=1;html=1;fillColor=#76608a;fontColor=#ffffff;strokeColor=#432D57;" parent="1" vertex="1">
          <mxGeometry x="1002" y="238" width="230" height="303.4117647058831" as="geometry" />
        </mxCell>
        <mxCell id="i_u9Ulbk1Ha4xllaxans-152" value="" style="shape=tableRow;horizontal=0;startSize=0;swimlaneHead=0;swimlaneBody=0;fillColor=none;collapsible=0;dropTarget=0;points=[[0,0.5],[1,0.5]];portConstraint=eastwest;top=0;left=0;right=0;bottom=1;" parent="i_u9Ulbk1Ha4xllaxans-151" vertex="1">
          <mxGeometry y="30" width="230" height="96" as="geometry" />
        </mxCell>
        <mxCell id="i_u9Ulbk1Ha4xllaxans-153" value="PK&lt;br&gt;&lt;br&gt;FK&lt;br&gt;&lt;br&gt;FK" style="shape=partialRectangle;connectable=0;fillColor=none;top=0;left=0;bottom=0;right=0;fontStyle=1;overflow=hidden;whiteSpace=wrap;html=1;" parent="i_u9Ulbk1Ha4xllaxans-152" vertex="1">
          <mxGeometry width="30" height="96" as="geometry">
            <mxRectangle width="30" height="96" as="alternateBounds" />
          </mxGeometry>
        </mxCell>
        <mxCell id="i_u9Ulbk1Ha4xllaxans-154" value="message_id: int auto_increment&lt;br&gt;&lt;br&gt;conversation_id: int not null&lt;br&gt;&lt;br&gt;sender_id: int not null" style="shape=partialRectangle;connectable=0;fillColor=none;top=0;left=0;bottom=0;right=0;align=left;spacingLeft=6;fontStyle=5;overflow=hidden;whiteSpace=wrap;html=1;" parent="i_u9Ulbk1Ha4xllaxans-152" vertex="1">
          <mxGeometry x="30" width="200" height="96" as="geometry">
            <mxRectangle width="200" height="96" as="alternateBounds" />
          </mxGeometry>
        </mxCell>
        <mxCell id="i_u9Ulbk1Ha4xllaxans-155" value="" style="shape=tableRow;horizontal=0;startSize=0;swimlaneHead=0;swimlaneBody=0;fillColor=none;collapsible=0;dropTarget=0;points=[[0,0.5],[1,0.5]];portConstraint=eastwest;top=0;left=0;right=0;bottom=0;" parent="i_u9Ulbk1Ha4xllaxans-151" vertex="1">
          <mxGeometry y="126" width="230" height="177" as="geometry" />
        </mxCell>
        <mxCell id="i_u9Ulbk1Ha4xllaxans-156" value="" style="shape=partialRectangle;connectable=0;fillColor=none;top=0;left=0;bottom=0;right=0;editable=1;overflow=hidden;whiteSpace=wrap;html=1;" parent="i_u9Ulbk1Ha4xllaxans-155" vertex="1">
          <mxGeometry width="30" height="177" as="geometry">
            <mxRectangle width="30" height="177" as="alternateBounds" />
          </mxGeometry>
        </mxCell>
        <mxCell id="i_u9Ulbk1Ha4xllaxans-157" value="&lt;div style=&quot;text-align: justify;&quot;&gt;date_sent: timestamp not null default current_timestamp&lt;/div&gt;&lt;div style=&quot;text-align: justify;&quot;&gt;&lt;br&gt;&lt;/div&gt;&lt;div style=&quot;text-align: justify;&quot;&gt;content: text not null&lt;/div&gt;&lt;div style=&quot;text-align: justify;&quot;&gt;&lt;br&gt;&lt;/div&gt;&lt;div style=&quot;text-align: justify;&quot;&gt;read_status: bit not null default 0&lt;/div&gt;&lt;div style=&quot;text-align: justify;&quot;&gt;&lt;br&gt;&lt;/div&gt;&lt;div style=&quot;text-align: justify;&quot;&gt;&lt;div&gt;active: bit not null default 1&lt;/div&gt;&lt;div&gt;&lt;br&gt;&lt;/div&gt;&lt;div&gt;deleted: bit not null default 0&lt;/div&gt;&lt;/div&gt;" style="shape=partialRectangle;connectable=0;fillColor=none;top=0;left=0;bottom=0;right=0;align=left;spacingLeft=6;overflow=hidden;whiteSpace=wrap;html=1;" parent="i_u9Ulbk1Ha4xllaxans-155" vertex="1">
          <mxGeometry x="30" width="200" height="177" as="geometry">
            <mxRectangle width="200" height="177" as="alternateBounds" />
          </mxGeometry>
        </mxCell>
        <mxCell id="i_u9Ulbk1Ha4xllaxans-160" style="edgeStyle=orthogonalEdgeStyle;rounded=0;orthogonalLoop=1;jettySize=auto;html=1;curved=1;startArrow=ERone;startFill=0;endArrow=ERzeroToMany;endFill=0;entryX=0.565;entryY=1.023;entryDx=0;entryDy=0;entryPerimeter=0;" parent="1" source="i_u9Ulbk1Ha4xllaxans-135" target="i_u9Ulbk1Ha4xllaxans-98" edge="1">
          <mxGeometry relative="1" as="geometry">
            <mxPoint x="176" y="-216" as="targetPoint" />
          </mxGeometry>
        </mxCell>
        <mxCell id="i_u9Ulbk1Ha4xllaxans-163" value="FilmsAndUsers" style="shape=table;startSize=30;container=1;collapsible=1;childLayout=tableLayout;fixedRows=1;rowLines=0;fontStyle=1;align=center;resizeLast=1;html=1;fillColor=#60a917;fontColor=#ffffff;strokeColor=#2D7600;" parent="1" vertex="1">
          <mxGeometry x="-153" y="305" width="237" height="262.2105263157899" as="geometry" />
        </mxCell>
        <mxCell id="i_u9Ulbk1Ha4xllaxans-164" value="" style="shape=tableRow;horizontal=0;startSize=0;swimlaneHead=0;swimlaneBody=0;fillColor=none;collapsible=0;dropTarget=0;points=[[0,0.5],[1,0.5]];portConstraint=eastwest;top=0;left=0;right=0;bottom=1;" parent="i_u9Ulbk1Ha4xllaxans-163" vertex="1">
          <mxGeometry y="30" width="237" height="116" as="geometry" />
        </mxCell>
        <mxCell id="i_u9Ulbk1Ha4xllaxans-165" value="PK&lt;br&gt;&lt;br&gt;FK&lt;br&gt;&lt;br&gt;&lt;br&gt;FK&lt;br&gt;&lt;br&gt;FK" style="shape=partialRectangle;connectable=0;fillColor=none;top=0;left=0;bottom=0;right=0;fontStyle=1;overflow=hidden;whiteSpace=wrap;html=1;" parent="i_u9Ulbk1Ha4xllaxans-164" vertex="1">
          <mxGeometry width="30" height="116" as="geometry">
            <mxRectangle width="30" height="116" as="alternateBounds" />
          </mxGeometry>
        </mxCell>
        <mxCell id="i_u9Ulbk1Ha4xllaxans-166" value="film_and_user__id: int auto_increment&lt;br&gt;&lt;br&gt;film_id: int not null&lt;br&gt;&lt;br&gt;user_id: int not null&lt;br&gt;&lt;br&gt;rating_id: int" style="shape=partialRectangle;connectable=0;fillColor=none;top=0;left=0;bottom=0;right=0;align=left;spacingLeft=6;fontStyle=5;overflow=hidden;whiteSpace=wrap;html=1;" parent="i_u9Ulbk1Ha4xllaxans-164" vertex="1">
          <mxGeometry x="30" width="207" height="116" as="geometry">
            <mxRectangle width="207" height="116" as="alternateBounds" />
          </mxGeometry>
        </mxCell>
        <mxCell id="i_u9Ulbk1Ha4xllaxans-167" value="" style="shape=tableRow;horizontal=0;startSize=0;swimlaneHead=0;swimlaneBody=0;fillColor=none;collapsible=0;dropTarget=0;points=[[0,0.5],[1,0.5]];portConstraint=eastwest;top=0;left=0;right=0;bottom=0;" parent="i_u9Ulbk1Ha4xllaxans-163" vertex="1">
          <mxGeometry y="146" width="237" height="116" as="geometry" />
        </mxCell>
        <mxCell id="i_u9Ulbk1Ha4xllaxans-168" value="" style="shape=partialRectangle;connectable=0;fillColor=none;top=0;left=0;bottom=0;right=0;editable=1;overflow=hidden;whiteSpace=wrap;html=1;" parent="i_u9Ulbk1Ha4xllaxans-167" vertex="1">
          <mxGeometry width="30" height="116" as="geometry">
            <mxRectangle width="30" height="116" as="alternateBounds" />
          </mxGeometry>
        </mxCell>
        <mxCell id="i_u9Ulbk1Ha4xllaxans-169" value="&lt;div style=&quot;text-align: justify;&quot;&gt;watched: bit not null default 1&lt;/div&gt;&lt;div style=&quot;text-align: justify;&quot;&gt;&lt;br&gt;&lt;/div&gt;&lt;div style=&quot;text-align: justify;&quot;&gt;liked: bit not null default 0&lt;/div&gt;&lt;div style=&quot;text-align: justify;&quot;&gt;&lt;br&gt;&lt;/div&gt;&lt;div style=&quot;text-align: justify;&quot;&gt;&lt;span style=&quot;background-color: initial;&quot;&gt;active: bit not null default 1&lt;/span&gt;&lt;br&gt;&lt;/div&gt;&lt;div style=&quot;text-align: justify;&quot;&gt;&lt;div&gt;&lt;br&gt;&lt;/div&gt;&lt;div&gt;deleted: bit not null default 0&lt;/div&gt;&lt;/div&gt;" style="shape=partialRectangle;connectable=0;fillColor=none;top=0;left=0;bottom=0;right=0;align=left;spacingLeft=6;overflow=hidden;whiteSpace=wrap;html=1;" parent="i_u9Ulbk1Ha4xllaxans-167" vertex="1">
          <mxGeometry x="30" width="207" height="116" as="geometry">
            <mxRectangle width="207" height="116" as="alternateBounds" />
          </mxGeometry>
        </mxCell>
        <mxCell id="i_u9Ulbk1Ha4xllaxans-171" style="edgeStyle=orthogonalEdgeStyle;rounded=0;orthogonalLoop=1;jettySize=auto;html=1;entryX=1;entryY=0.5;entryDx=0;entryDy=0;curved=1;exitX=-0.005;exitY=0.227;exitDx=0;exitDy=0;exitPerimeter=0;endArrow=ERmany;endFill=0;startArrow=ERmany;startFill=0;" parent="1" source="i_u9Ulbk1Ha4xllaxans-139" target="i_u9Ulbk1Ha4xllaxans-167" edge="1">
          <mxGeometry relative="1" as="geometry" />
        </mxCell>
        <mxCell id="i_u9Ulbk1Ha4xllaxans-172" value="CommentsAndLikesByUser" style="shape=table;startSize=30;container=1;collapsible=1;childLayout=tableLayout;fixedRows=1;rowLines=0;fontStyle=1;align=center;resizeLast=1;html=1;fillColor=#76608a;fontColor=#ffffff;strokeColor=#432D57;" parent="1" vertex="1">
          <mxGeometry x="380" y="-341.87" width="237" height="240" as="geometry" />
        </mxCell>
        <mxCell id="i_u9Ulbk1Ha4xllaxans-173" value="" style="shape=tableRow;horizontal=0;startSize=0;swimlaneHead=0;swimlaneBody=0;fillColor=none;collapsible=0;dropTarget=0;points=[[0,0.5],[1,0.5]];portConstraint=eastwest;top=0;left=0;right=0;bottom=1;" parent="i_u9Ulbk1Ha4xllaxans-172" vertex="1">
          <mxGeometry y="30" width="237" height="140" as="geometry" />
        </mxCell>
        <mxCell id="i_u9Ulbk1Ha4xllaxans-174" value="PK&lt;br&gt;&lt;br&gt;FK&lt;br&gt;&lt;br&gt;&lt;br&gt;FK" style="shape=partialRectangle;connectable=0;fillColor=none;top=0;left=0;bottom=0;right=0;fontStyle=1;overflow=hidden;whiteSpace=wrap;html=1;" parent="i_u9Ulbk1Ha4xllaxans-173" vertex="1">
          <mxGeometry width="30" height="140" as="geometry">
            <mxRectangle width="30" height="140" as="alternateBounds" />
          </mxGeometry>
        </mxCell>
        <mxCell id="i_u9Ulbk1Ha4xllaxans-175" value="like_id: int auto_increment&lt;br&gt;&lt;br&gt;comment_id: int not null&lt;br&gt;&lt;br&gt;user_id: int not null" style="shape=partialRectangle;connectable=0;fillColor=none;top=0;left=0;bottom=0;right=0;align=left;spacingLeft=6;fontStyle=5;overflow=hidden;whiteSpace=wrap;html=1;" parent="i_u9Ulbk1Ha4xllaxans-173" vertex="1">
          <mxGeometry x="30" width="207" height="140" as="geometry">
            <mxRectangle width="207" height="140" as="alternateBounds" />
          </mxGeometry>
        </mxCell>
        <mxCell id="i_u9Ulbk1Ha4xllaxans-176" value="" style="shape=tableRow;horizontal=0;startSize=0;swimlaneHead=0;swimlaneBody=0;fillColor=none;collapsible=0;dropTarget=0;points=[[0,0.5],[1,0.5]];portConstraint=eastwest;top=0;left=0;right=0;bottom=0;" parent="i_u9Ulbk1Ha4xllaxans-172" vertex="1">
          <mxGeometry y="170" width="237" height="70" as="geometry" />
        </mxCell>
        <mxCell id="i_u9Ulbk1Ha4xllaxans-177" value="" style="shape=partialRectangle;connectable=0;fillColor=none;top=0;left=0;bottom=0;right=0;editable=1;overflow=hidden;whiteSpace=wrap;html=1;" parent="i_u9Ulbk1Ha4xllaxans-176" vertex="1">
          <mxGeometry width="30" height="70" as="geometry">
            <mxRectangle width="30" height="70" as="alternateBounds" />
          </mxGeometry>
        </mxCell>
        <mxCell id="i_u9Ulbk1Ha4xllaxans-178" value="&lt;div style=&quot;text-align: justify;&quot;&gt;&lt;span style=&quot;background-color: initial;&quot;&gt;active: bit not null default 1&lt;/span&gt;&lt;br&gt;&lt;/div&gt;&lt;div style=&quot;text-align: justify;&quot;&gt;&lt;div&gt;&lt;br&gt;&lt;/div&gt;&lt;div&gt;deleted: bit not null default 0&lt;/div&gt;&lt;/div&gt;" style="shape=partialRectangle;connectable=0;fillColor=none;top=0;left=0;bottom=0;right=0;align=left;spacingLeft=6;overflow=hidden;whiteSpace=wrap;html=1;" parent="i_u9Ulbk1Ha4xllaxans-176" vertex="1">
          <mxGeometry x="30" width="207" height="70" as="geometry">
            <mxRectangle width="207" height="70" as="alternateBounds" />
          </mxGeometry>
        </mxCell>
        <mxCell id="i_u9Ulbk1Ha4xllaxans-180" style="edgeStyle=orthogonalEdgeStyle;rounded=0;orthogonalLoop=1;jettySize=auto;html=1;entryX=0.459;entryY=0.997;entryDx=0;entryDy=0;entryPerimeter=0;curved=1;exitX=0.75;exitY=0;exitDx=0;exitDy=0;startArrow=ERmany;startFill=0;endArrow=ERmany;endFill=0;" parent="1" source="i_u9Ulbk1Ha4xllaxans-135" target="i_u9Ulbk1Ha4xllaxans-176" edge="1">
          <mxGeometry relative="1" as="geometry" />
        </mxCell>
        <mxCell id="i_u9Ulbk1Ha4xllaxans-188" value="Logs" style="shape=table;startSize=30;container=1;collapsible=1;childLayout=tableLayout;fixedRows=1;rowLines=0;fontStyle=1;align=center;resizeLast=1;html=1;fillColor=#e3c800;fontColor=#000000;strokeColor=#B09500;" parent="1" vertex="1">
          <mxGeometry x="-187" y="-274" width="237" height="325" as="geometry" />
        </mxCell>
        <mxCell id="i_u9Ulbk1Ha4xllaxans-189" value="" style="shape=tableRow;horizontal=0;startSize=0;swimlaneHead=0;swimlaneBody=0;fillColor=none;collapsible=0;dropTarget=0;points=[[0,0.5],[1,0.5]];portConstraint=eastwest;top=0;left=0;right=0;bottom=1;" parent="i_u9Ulbk1Ha4xllaxans-188" vertex="1">
          <mxGeometry y="30" width="237" height="134" as="geometry" />
        </mxCell>
        <mxCell id="i_u9Ulbk1Ha4xllaxans-190" value="PK&lt;br&gt;&lt;br&gt;FK&lt;br&gt;&lt;br&gt;FK&lt;br&gt;&lt;br&gt;FK" style="shape=partialRectangle;connectable=0;fillColor=none;top=0;left=0;bottom=0;right=0;fontStyle=1;overflow=hidden;whiteSpace=wrap;html=1;" parent="i_u9Ulbk1Ha4xllaxans-189" vertex="1">
          <mxGeometry width="30" height="134" as="geometry">
            <mxRectangle width="30" height="134" as="alternateBounds" />
          </mxGeometry>
        </mxCell>
        <mxCell id="i_u9Ulbk1Ha4xllaxans-191" value="&lt;br&gt;log_id: int auto_increment&lt;br&gt;&lt;br&gt;film_id: int not null&lt;br&gt;&lt;br&gt;user_id: int not null&lt;br&gt;&lt;br&gt;&lt;div style=&quot;font-weight: 400; text-align: justify;&quot;&gt;rating_id: int&lt;/div&gt;&lt;div&gt;&lt;span style=&quot;background-color: initial;&quot;&gt;&lt;br&gt;&lt;/span&gt;&lt;/div&gt;" style="shape=partialRectangle;connectable=0;fillColor=none;top=0;left=0;bottom=0;right=0;align=left;spacingLeft=6;fontStyle=5;overflow=hidden;whiteSpace=wrap;html=1;" parent="i_u9Ulbk1Ha4xllaxans-189" vertex="1">
          <mxGeometry x="30" width="207" height="134" as="geometry">
            <mxRectangle width="207" height="134" as="alternateBounds" />
          </mxGeometry>
        </mxCell>
        <mxCell id="i_u9Ulbk1Ha4xllaxans-192" value="" style="shape=tableRow;horizontal=0;startSize=0;swimlaneHead=0;swimlaneBody=0;fillColor=none;collapsible=0;dropTarget=0;points=[[0,0.5],[1,0.5]];portConstraint=eastwest;top=0;left=0;right=0;bottom=0;" parent="i_u9Ulbk1Ha4xllaxans-188" vertex="1">
          <mxGeometry y="164" width="237" height="161" as="geometry" />
        </mxCell>
        <mxCell id="i_u9Ulbk1Ha4xllaxans-193" value="" style="shape=partialRectangle;connectable=0;fillColor=none;top=0;left=0;bottom=0;right=0;editable=1;overflow=hidden;whiteSpace=wrap;html=1;" parent="i_u9Ulbk1Ha4xllaxans-192" vertex="1">
          <mxGeometry width="30" height="161" as="geometry">
            <mxRectangle width="30" height="161" as="alternateBounds" />
          </mxGeometry>
        </mxCell>
        <mxCell id="i_u9Ulbk1Ha4xllaxans-194" value="&lt;div style=&quot;text-align: justify;&quot;&gt;&lt;span style=&quot;background-color: initial;&quot;&gt;liked: bit not null default 0&lt;/span&gt;&lt;br&gt;&lt;/div&gt;&lt;div style=&quot;text-align: justify;&quot;&gt;&lt;span style=&quot;background-color: initial;&quot;&gt;&lt;br&gt;&lt;/span&gt;&lt;/div&gt;&lt;div style=&quot;text-align: justify;&quot;&gt;&lt;span style=&quot;background-color: initial;&quot;&gt;entry_date: timestamp not null deault current_timestamp&lt;/span&gt;&lt;/div&gt;&lt;div style=&quot;text-align: justify;&quot;&gt;&lt;span style=&quot;background-color: initial;&quot;&gt;&lt;br&gt;&lt;/span&gt;&lt;/div&gt;&lt;div style=&quot;text-align: justify;&quot;&gt;&lt;span style=&quot;background-color: initial;&quot;&gt;active: bit not null default 1&lt;/span&gt;&lt;br&gt;&lt;/div&gt;&lt;div style=&quot;text-align: justify;&quot;&gt;&lt;div&gt;&lt;br&gt;&lt;/div&gt;&lt;div&gt;deleted: bit not null default 0&lt;/div&gt;&lt;/div&gt;" style="shape=partialRectangle;connectable=0;fillColor=none;top=0;left=0;bottom=0;right=0;align=left;spacingLeft=6;overflow=hidden;whiteSpace=wrap;html=1;" parent="i_u9Ulbk1Ha4xllaxans-192" vertex="1">
          <mxGeometry x="30" width="207" height="161" as="geometry">
            <mxRectangle width="207" height="161" as="alternateBounds" />
          </mxGeometry>
        </mxCell>
        <mxCell id="i_u9Ulbk1Ha4xllaxans-220" style="edgeStyle=orthogonalEdgeStyle;rounded=0;orthogonalLoop=1;jettySize=auto;html=1;entryX=0.5;entryY=0;entryDx=0;entryDy=0;startArrow=ERzeroToOne;startFill=0;endArrow=ERone;endFill=0;" parent="1" source="i_u9Ulbk1Ha4xllaxans-195" target="i_u9Ulbk1Ha4xllaxans-188" edge="1">
          <mxGeometry relative="1" as="geometry" />
        </mxCell>
        <mxCell id="i_u9Ulbk1Ha4xllaxans-195" value="Reviews" style="shape=table;startSize=28;container=1;collapsible=1;childLayout=tableLayout;fixedRows=1;rowLines=0;fontStyle=1;align=center;resizeLast=1;html=1;fillColor=#e3c800;fontColor=#000000;strokeColor=#B09500;" parent="1" vertex="1">
          <mxGeometry x="-187" y="-550" width="237" height="207.78571428571445" as="geometry" />
        </mxCell>
        <mxCell id="i_u9Ulbk1Ha4xllaxans-196" value="" style="shape=tableRow;horizontal=0;startSize=0;swimlaneHead=0;swimlaneBody=0;fillColor=none;collapsible=0;dropTarget=0;points=[[0,0.5],[1,0.5]];portConstraint=eastwest;top=0;left=0;right=0;bottom=1;" parent="i_u9Ulbk1Ha4xllaxans-195" vertex="1">
          <mxGeometry y="28" width="237" height="108" as="geometry" />
        </mxCell>
        <mxCell id="i_u9Ulbk1Ha4xllaxans-197" value="PK&lt;br&gt;&lt;br&gt;FK" style="shape=partialRectangle;connectable=0;fillColor=none;top=0;left=0;bottom=0;right=0;fontStyle=1;overflow=hidden;whiteSpace=wrap;html=1;" parent="i_u9Ulbk1Ha4xllaxans-196" vertex="1">
          <mxGeometry width="30" height="108" as="geometry">
            <mxRectangle width="30" height="108" as="alternateBounds" />
          </mxGeometry>
        </mxCell>
        <mxCell id="i_u9Ulbk1Ha4xllaxans-198" value="review_id: int auto_increment&lt;br&gt;&lt;br&gt;log_id: int not null" style="shape=partialRectangle;connectable=0;fillColor=none;top=0;left=0;bottom=0;right=0;align=left;spacingLeft=6;fontStyle=5;overflow=hidden;whiteSpace=wrap;html=1;" parent="i_u9Ulbk1Ha4xllaxans-196" vertex="1">
          <mxGeometry x="30" width="207" height="108" as="geometry">
            <mxRectangle width="207" height="108" as="alternateBounds" />
          </mxGeometry>
        </mxCell>
        <mxCell id="i_u9Ulbk1Ha4xllaxans-199" value="" style="shape=tableRow;horizontal=0;startSize=0;swimlaneHead=0;swimlaneBody=0;fillColor=none;collapsible=0;dropTarget=0;points=[[0,0.5],[1,0.5]];portConstraint=eastwest;top=0;left=0;right=0;bottom=0;" parent="i_u9Ulbk1Ha4xllaxans-195" vertex="1">
          <mxGeometry y="136" width="237" height="70" as="geometry" />
        </mxCell>
        <mxCell id="i_u9Ulbk1Ha4xllaxans-200" value="" style="shape=partialRectangle;connectable=0;fillColor=none;top=0;left=0;bottom=0;right=0;editable=1;overflow=hidden;whiteSpace=wrap;html=1;" parent="i_u9Ulbk1Ha4xllaxans-199" vertex="1">
          <mxGeometry width="30" height="70" as="geometry">
            <mxRectangle width="30" height="70" as="alternateBounds" />
          </mxGeometry>
        </mxCell>
        <mxCell id="i_u9Ulbk1Ha4xllaxans-201" value="&lt;div style=&quot;text-align: justify;&quot;&gt;&lt;span style=&quot;background-color: initial;&quot;&gt;body: text&lt;/span&gt;&lt;/div&gt;&lt;div style=&quot;text-align: justify;&quot;&gt;&lt;span style=&quot;background-color: initial;&quot;&gt;&lt;br&gt;&lt;/span&gt;&lt;/div&gt;&lt;div style=&quot;text-align: justify;&quot;&gt;&lt;span style=&quot;background-color: initial;&quot;&gt;active: bit not null default 1&lt;/span&gt;&lt;br&gt;&lt;/div&gt;&lt;div style=&quot;text-align: justify;&quot;&gt;&lt;div&gt;&lt;br&gt;&lt;/div&gt;&lt;div&gt;deleted: bit not null default 0&lt;/div&gt;&lt;/div&gt;" style="shape=partialRectangle;connectable=0;fillColor=none;top=0;left=0;bottom=0;right=0;align=left;spacingLeft=6;overflow=hidden;whiteSpace=wrap;html=1;" parent="i_u9Ulbk1Ha4xllaxans-199" vertex="1">
          <mxGeometry x="30" width="207" height="70" as="geometry">
            <mxRectangle width="207" height="70" as="alternateBounds" />
          </mxGeometry>
        </mxCell>
        <mxCell id="i_u9Ulbk1Ha4xllaxans-219" style="edgeStyle=orthogonalEdgeStyle;rounded=0;orthogonalLoop=1;jettySize=auto;html=1;curved=1;startArrow=ERmany;startFill=0;endArrow=ERmany;endFill=0;" parent="1" source="i_u9Ulbk1Ha4xllaxans-202" target="i_u9Ulbk1Ha4xllaxans-196" edge="1">
          <mxGeometry relative="1" as="geometry" />
        </mxCell>
        <mxCell id="i_u9Ulbk1Ha4xllaxans-202" value="ReviewsAndLikesByUser" style="shape=table;startSize=28;container=1;collapsible=1;childLayout=tableLayout;fixedRows=1;rowLines=0;fontStyle=1;align=center;resizeLast=1;html=1;fillColor=#e3c800;fontColor=#000000;strokeColor=#B09500;" parent="1" vertex="1">
          <mxGeometry x="88" y="-533" width="237" height="207.78571428571445" as="geometry" />
        </mxCell>
        <mxCell id="i_u9Ulbk1Ha4xllaxans-203" value="" style="shape=tableRow;horizontal=0;startSize=0;swimlaneHead=0;swimlaneBody=0;fillColor=none;collapsible=0;dropTarget=0;points=[[0,0.5],[1,0.5]];portConstraint=eastwest;top=0;left=0;right=0;bottom=1;" parent="i_u9Ulbk1Ha4xllaxans-202" vertex="1">
          <mxGeometry y="28" width="237" height="108" as="geometry" />
        </mxCell>
        <mxCell id="i_u9Ulbk1Ha4xllaxans-204" value="PK&lt;br&gt;&lt;br&gt;FK&lt;br&gt;&lt;br&gt;FK" style="shape=partialRectangle;connectable=0;fillColor=none;top=0;left=0;bottom=0;right=0;fontStyle=1;overflow=hidden;whiteSpace=wrap;html=1;" parent="i_u9Ulbk1Ha4xllaxans-203" vertex="1">
          <mxGeometry width="30" height="108" as="geometry">
            <mxRectangle width="30" height="108" as="alternateBounds" />
          </mxGeometry>
        </mxCell>
        <mxCell id="i_u9Ulbk1Ha4xllaxans-205" value="like_id: int auto_increment&lt;br&gt;&lt;br&gt;log_id: int not null&lt;br&gt;&lt;br&gt;user_id: int not null" style="shape=partialRectangle;connectable=0;fillColor=none;top=0;left=0;bottom=0;right=0;align=left;spacingLeft=6;fontStyle=5;overflow=hidden;whiteSpace=wrap;html=1;" parent="i_u9Ulbk1Ha4xllaxans-203" vertex="1">
          <mxGeometry x="30" width="207" height="108" as="geometry">
            <mxRectangle width="207" height="108" as="alternateBounds" />
          </mxGeometry>
        </mxCell>
        <mxCell id="i_u9Ulbk1Ha4xllaxans-206" value="" style="shape=tableRow;horizontal=0;startSize=0;swimlaneHead=0;swimlaneBody=0;fillColor=none;collapsible=0;dropTarget=0;points=[[0,0.5],[1,0.5]];portConstraint=eastwest;top=0;left=0;right=0;bottom=0;" parent="i_u9Ulbk1Ha4xllaxans-202" vertex="1">
          <mxGeometry y="136" width="237" height="70" as="geometry" />
        </mxCell>
        <mxCell id="i_u9Ulbk1Ha4xllaxans-207" value="" style="shape=partialRectangle;connectable=0;fillColor=none;top=0;left=0;bottom=0;right=0;editable=1;overflow=hidden;whiteSpace=wrap;html=1;" parent="i_u9Ulbk1Ha4xllaxans-206" vertex="1">
          <mxGeometry width="30" height="70" as="geometry">
            <mxRectangle width="30" height="70" as="alternateBounds" />
          </mxGeometry>
        </mxCell>
        <mxCell id="i_u9Ulbk1Ha4xllaxans-208" value="&lt;div style=&quot;text-align: justify;&quot;&gt;&lt;span style=&quot;background-color: initial;&quot;&gt;active: bit not null default 1&lt;/span&gt;&lt;br&gt;&lt;/div&gt;&lt;div style=&quot;text-align: justify;&quot;&gt;&lt;div&gt;&lt;br&gt;&lt;/div&gt;&lt;div&gt;deleted: bit not null default 0&lt;/div&gt;&lt;/div&gt;" style="shape=partialRectangle;connectable=0;fillColor=none;top=0;left=0;bottom=0;right=0;align=left;spacingLeft=6;overflow=hidden;whiteSpace=wrap;html=1;" parent="i_u9Ulbk1Ha4xllaxans-206" vertex="1">
          <mxGeometry x="30" width="207" height="70" as="geometry">
            <mxRectangle width="207" height="70" as="alternateBounds" />
          </mxGeometry>
        </mxCell>
        <mxCell id="i_u9Ulbk1Ha4xllaxans-229" style="edgeStyle=orthogonalEdgeStyle;rounded=0;orthogonalLoop=1;jettySize=auto;html=1;entryX=1;entryY=0.5;entryDx=0;entryDy=0;curved=1;exitX=0;exitY=0.5;exitDx=0;exitDy=0;" parent="1" source="i_u9Ulbk1Ha4xllaxans-222" target="i_u9Ulbk1Ha4xllaxans-131" edge="1">
          <mxGeometry relative="1" as="geometry" />
        </mxCell>
        <mxCell id="i_u9Ulbk1Ha4xllaxans-221" value="ListsAndLikesByUsers" style="shape=table;startSize=30;container=1;collapsible=1;childLayout=tableLayout;fixedRows=1;rowLines=0;fontStyle=1;align=center;resizeLast=1;html=1;fillColor=#60a917;fontColor=#ffffff;strokeColor=#2D7600;" parent="1" vertex="1">
          <mxGeometry x="95" y="941" width="230" height="252.33333333333314" as="geometry" />
        </mxCell>
        <mxCell id="i_u9Ulbk1Ha4xllaxans-222" value="" style="shape=tableRow;horizontal=0;startSize=0;swimlaneHead=0;swimlaneBody=0;fillColor=none;collapsible=0;dropTarget=0;points=[[0,0.5],[1,0.5]];portConstraint=eastwest;top=0;left=0;right=0;bottom=1;" parent="i_u9Ulbk1Ha4xllaxans-221" vertex="1">
          <mxGeometry y="30" width="230" height="112" as="geometry" />
        </mxCell>
        <mxCell id="i_u9Ulbk1Ha4xllaxans-223" value="PK&lt;br&gt;&lt;br&gt;FK&lt;br&gt;&lt;br&gt;FK" style="shape=partialRectangle;connectable=0;fillColor=none;top=0;left=0;bottom=0;right=0;fontStyle=1;overflow=hidden;whiteSpace=wrap;html=1;" parent="i_u9Ulbk1Ha4xllaxans-222" vertex="1">
          <mxGeometry width="30" height="112" as="geometry">
            <mxRectangle width="30" height="112" as="alternateBounds" />
          </mxGeometry>
        </mxCell>
        <mxCell id="i_u9Ulbk1Ha4xllaxans-224" value="like_id: int auto_increment&lt;br&gt;&lt;br&gt;user_id: int not null&lt;br&gt;&lt;br&gt;list_id: int not null" style="shape=partialRectangle;connectable=0;fillColor=none;top=0;left=0;bottom=0;right=0;align=left;spacingLeft=6;fontStyle=5;overflow=hidden;whiteSpace=wrap;html=1;" parent="i_u9Ulbk1Ha4xllaxans-222" vertex="1">
          <mxGeometry x="30" width="200" height="112" as="geometry">
            <mxRectangle width="200" height="112" as="alternateBounds" />
          </mxGeometry>
        </mxCell>
        <mxCell id="i_u9Ulbk1Ha4xllaxans-225" value="" style="shape=tableRow;horizontal=0;startSize=0;swimlaneHead=0;swimlaneBody=0;fillColor=none;collapsible=0;dropTarget=0;points=[[0,0.5],[1,0.5]];portConstraint=eastwest;top=0;left=0;right=0;bottom=0;" parent="i_u9Ulbk1Ha4xllaxans-221" vertex="1">
          <mxGeometry y="142" width="230" height="110" as="geometry" />
        </mxCell>
        <mxCell id="i_u9Ulbk1Ha4xllaxans-226" value="" style="shape=partialRectangle;connectable=0;fillColor=none;top=0;left=0;bottom=0;right=0;editable=1;overflow=hidden;whiteSpace=wrap;html=1;" parent="i_u9Ulbk1Ha4xllaxans-225" vertex="1">
          <mxGeometry width="30" height="110" as="geometry">
            <mxRectangle width="30" height="110" as="alternateBounds" />
          </mxGeometry>
        </mxCell>
        <mxCell id="i_u9Ulbk1Ha4xllaxans-227" value="&lt;div style=&quot;text-align: justify;&quot;&gt;&lt;span style=&quot;background-color: initial;&quot;&gt;active: bit not null default 1&lt;/span&gt;&lt;br&gt;&lt;/div&gt;&lt;div style=&quot;text-align: justify;&quot;&gt;&lt;div&gt;&lt;br&gt;&lt;/div&gt;&lt;div&gt;deleted: bit not null default 0&lt;/div&gt;&lt;/div&gt;" style="shape=partialRectangle;connectable=0;fillColor=none;top=0;left=0;bottom=0;right=0;align=left;spacingLeft=6;overflow=hidden;whiteSpace=wrap;html=1;" parent="i_u9Ulbk1Ha4xllaxans-225" vertex="1">
          <mxGeometry x="30" width="200" height="110" as="geometry">
            <mxRectangle width="200" height="110" as="alternateBounds" />
          </mxGeometry>
        </mxCell>
        <mxCell id="i_u9Ulbk1Ha4xllaxans-230" value="Watchlists" style="shape=table;startSize=30;container=1;collapsible=1;childLayout=tableLayout;fixedRows=1;rowLines=0;fontStyle=1;align=center;resizeLast=1;html=1;fillColor=#60a917;fontColor=#ffffff;strokeColor=#2D7600;" parent="1" vertex="1">
          <mxGeometry x="-448" y="499.5300000000001" width="237" height="275" as="geometry" />
        </mxCell>
        <mxCell id="i_u9Ulbk1Ha4xllaxans-231" value="" style="shape=tableRow;horizontal=0;startSize=0;swimlaneHead=0;swimlaneBody=0;fillColor=none;collapsible=0;dropTarget=0;points=[[0,0.5],[1,0.5]];portConstraint=eastwest;top=0;left=0;right=0;bottom=1;" parent="i_u9Ulbk1Ha4xllaxans-230" vertex="1">
          <mxGeometry y="30" width="237" height="111" as="geometry" />
        </mxCell>
        <mxCell id="i_u9Ulbk1Ha4xllaxans-232" value="PK&lt;br&gt;&lt;br&gt;FK&lt;br&gt;&lt;br&gt;FK" style="shape=partialRectangle;connectable=0;fillColor=none;top=0;left=0;bottom=0;right=0;fontStyle=1;overflow=hidden;whiteSpace=wrap;html=1;" parent="i_u9Ulbk1Ha4xllaxans-231" vertex="1">
          <mxGeometry width="30" height="111" as="geometry">
            <mxRectangle width="30" height="111" as="alternateBounds" />
          </mxGeometry>
        </mxCell>
        <mxCell id="i_u9Ulbk1Ha4xllaxans-233" value="entry_id: int auto_increment&lt;br&gt;&lt;br&gt;film_id: int not null&lt;br&gt;&lt;br&gt;user_id: int not null" style="shape=partialRectangle;connectable=0;fillColor=none;top=0;left=0;bottom=0;right=0;align=left;spacingLeft=6;fontStyle=5;overflow=hidden;whiteSpace=wrap;html=1;" parent="i_u9Ulbk1Ha4xllaxans-231" vertex="1">
          <mxGeometry x="30" width="207" height="111" as="geometry">
            <mxRectangle width="207" height="111" as="alternateBounds" />
          </mxGeometry>
        </mxCell>
        <mxCell id="i_u9Ulbk1Ha4xllaxans-234" value="" style="shape=tableRow;horizontal=0;startSize=0;swimlaneHead=0;swimlaneBody=0;fillColor=none;collapsible=0;dropTarget=0;points=[[0,0.5],[1,0.5]];portConstraint=eastwest;top=0;left=0;right=0;bottom=0;" parent="i_u9Ulbk1Ha4xllaxans-230" vertex="1">
          <mxGeometry y="141" width="237" height="134" as="geometry" />
        </mxCell>
        <mxCell id="i_u9Ulbk1Ha4xllaxans-235" value="" style="shape=partialRectangle;connectable=0;fillColor=none;top=0;left=0;bottom=0;right=0;editable=1;overflow=hidden;whiteSpace=wrap;html=1;" parent="i_u9Ulbk1Ha4xllaxans-234" vertex="1">
          <mxGeometry width="30" height="134" as="geometry">
            <mxRectangle width="30" height="134" as="alternateBounds" />
          </mxGeometry>
        </mxCell>
        <mxCell id="i_u9Ulbk1Ha4xllaxans-236" value="&lt;div style=&quot;text-align: justify;&quot;&gt;&lt;span style=&quot;background-color: initial;&quot;&gt;date_added: timestamp not null deault current_timestamp&lt;/span&gt;&lt;br&gt;&lt;/div&gt;&lt;div style=&quot;text-align: justify;&quot;&gt;&lt;span style=&quot;background-color: initial;&quot;&gt;&lt;br&gt;&lt;/span&gt;&lt;/div&gt;&lt;div style=&quot;text-align: justify;&quot;&gt;&lt;span style=&quot;background-color: initial;&quot;&gt;active: bit not null default 1&lt;/span&gt;&lt;br&gt;&lt;/div&gt;&lt;div style=&quot;text-align: justify;&quot;&gt;&lt;div&gt;&lt;br&gt;&lt;/div&gt;&lt;div&gt;deleted: bit not null default 0&lt;/div&gt;&lt;/div&gt;" style="shape=partialRectangle;connectable=0;fillColor=none;top=0;left=0;bottom=0;right=0;align=left;spacingLeft=6;overflow=hidden;whiteSpace=wrap;html=1;" parent="i_u9Ulbk1Ha4xllaxans-234" vertex="1">
          <mxGeometry x="30" width="207" height="134" as="geometry">
            <mxRectangle width="207" height="134" as="alternateBounds" />
          </mxGeometry>
        </mxCell>
        <mxCell id="i_u9Ulbk1Ha4xllaxans-237" style="edgeStyle=orthogonalEdgeStyle;shape=connector;curved=1;rounded=0;orthogonalLoop=1;jettySize=auto;html=1;entryX=1;entryY=0.5;entryDx=0;entryDy=0;labelBackgroundColor=default;strokeColor=default;align=center;verticalAlign=middle;fontFamily=Helvetica;fontSize=11;fontColor=default;startArrow=ERoneToMany;startFill=0;endArrow=ERzeroToMany;endFill=0;exitX=-0.007;exitY=0.873;exitDx=0;exitDy=0;exitPerimeter=0;" parent="1" source="i_u9Ulbk1Ha4xllaxans-139" target="i_u9Ulbk1Ha4xllaxans-234" edge="1">
          <mxGeometry relative="1" as="geometry">
            <Array as="points">
              <mxPoint x="68" y="567" />
              <mxPoint x="68" y="674" />
            </Array>
          </mxGeometry>
        </mxCell>
        <mxCell id="i_u9Ulbk1Ha4xllaxans-270" style="edgeStyle=orthogonalEdgeStyle;shape=connector;curved=1;rounded=0;orthogonalLoop=1;jettySize=auto;html=1;entryX=0;entryY=0.5;entryDx=0;entryDy=0;labelBackgroundColor=default;strokeColor=default;align=center;verticalAlign=middle;fontFamily=Helvetica;fontSize=11;fontColor=default;startArrow=ERoneToMany;startFill=0;endArrow=ERoneToMany;endFill=0;" parent="1" source="i_u9Ulbk1Ha4xllaxans-239" target="i_u9Ulbk1Ha4xllaxans-261" edge="1">
          <mxGeometry relative="1" as="geometry" />
        </mxCell>
        <mxCell id="i_u9Ulbk1Ha4xllaxans-239" value="Languages" style="shape=table;startSize=30;container=1;collapsible=1;childLayout=tableLayout;fixedRows=1;rowLines=0;fontStyle=1;align=center;resizeLast=1;html=1;fillColor=#0050ef;fontColor=#ffffff;strokeColor=#001DBC;" parent="1" vertex="1">
          <mxGeometry x="-1136" y="832" width="230" height="189" as="geometry" />
        </mxCell>
        <mxCell id="i_u9Ulbk1Ha4xllaxans-240" value="" style="shape=tableRow;horizontal=0;startSize=0;swimlaneHead=0;swimlaneBody=0;fillColor=none;collapsible=0;dropTarget=0;points=[[0,0.5],[1,0.5]];portConstraint=eastwest;top=0;left=0;right=0;bottom=1;" parent="i_u9Ulbk1Ha4xllaxans-239" vertex="1">
          <mxGeometry y="30" width="230" height="30" as="geometry" />
        </mxCell>
        <mxCell id="i_u9Ulbk1Ha4xllaxans-241" value="PK" style="shape=partialRectangle;connectable=0;fillColor=none;top=0;left=0;bottom=0;right=0;fontStyle=1;overflow=hidden;whiteSpace=wrap;html=1;" parent="i_u9Ulbk1Ha4xllaxans-240" vertex="1">
          <mxGeometry width="30" height="30" as="geometry">
            <mxRectangle width="30" height="30" as="alternateBounds" />
          </mxGeometry>
        </mxCell>
        <mxCell id="i_u9Ulbk1Ha4xllaxans-242" value="language_id: int auto_increment" style="shape=partialRectangle;connectable=0;fillColor=none;top=0;left=0;bottom=0;right=0;align=left;spacingLeft=6;fontStyle=5;overflow=hidden;whiteSpace=wrap;html=1;" parent="i_u9Ulbk1Ha4xllaxans-240" vertex="1">
          <mxGeometry x="30" width="200" height="30" as="geometry">
            <mxRectangle width="200" height="30" as="alternateBounds" />
          </mxGeometry>
        </mxCell>
        <mxCell id="i_u9Ulbk1Ha4xllaxans-243" value="" style="shape=tableRow;horizontal=0;startSize=0;swimlaneHead=0;swimlaneBody=0;fillColor=none;collapsible=0;dropTarget=0;points=[[0,0.5],[1,0.5]];portConstraint=eastwest;top=0;left=0;right=0;bottom=0;" parent="i_u9Ulbk1Ha4xllaxans-239" vertex="1">
          <mxGeometry y="60" width="230" height="129" as="geometry" />
        </mxCell>
        <mxCell id="i_u9Ulbk1Ha4xllaxans-244" value="" style="shape=partialRectangle;connectable=0;fillColor=none;top=0;left=0;bottom=0;right=0;editable=1;overflow=hidden;whiteSpace=wrap;html=1;" parent="i_u9Ulbk1Ha4xllaxans-243" vertex="1">
          <mxGeometry width="30" height="129" as="geometry">
            <mxRectangle width="30" height="129" as="alternateBounds" />
          </mxGeometry>
        </mxCell>
        <mxCell id="i_u9Ulbk1Ha4xllaxans-245" value="&lt;div style=&quot;text-align: justify;&quot;&gt;language_name: varchar(255)&lt;/div&gt;&lt;div style=&quot;text-align: justify;&quot;&gt;&lt;div&gt;&lt;br&gt;&lt;/div&gt;&lt;div&gt;iso_639_1: varchar(10) not null unique&lt;/div&gt;&lt;div&gt;&lt;br&gt;&lt;/div&gt;&lt;/div&gt;&lt;div style=&quot;text-align: justify;&quot;&gt;active: bit not null default 1&lt;/div&gt;&lt;div style=&quot;text-align: justify;&quot;&gt;&lt;br&gt;&lt;/div&gt;&lt;div style=&quot;text-align: justify;&quot;&gt;deleted: bit not null default 0&lt;/div&gt;" style="shape=partialRectangle;connectable=0;fillColor=none;top=0;left=0;bottom=0;right=0;align=left;spacingLeft=6;overflow=hidden;whiteSpace=wrap;html=1;" parent="i_u9Ulbk1Ha4xllaxans-243" vertex="1">
          <mxGeometry x="30" width="200" height="129" as="geometry">
            <mxRectangle width="200" height="129" as="alternateBounds" />
          </mxGeometry>
        </mxCell>
        <mxCell id="i_u9Ulbk1Ha4xllaxans-269" style="edgeStyle=orthogonalEdgeStyle;shape=connector;curved=1;rounded=0;orthogonalLoop=1;jettySize=auto;html=1;entryX=0;entryY=0.5;entryDx=0;entryDy=0;labelBackgroundColor=default;strokeColor=default;align=center;verticalAlign=middle;fontFamily=Helvetica;fontSize=11;fontColor=default;startArrow=ERoneToMany;startFill=0;endArrow=ERoneToMany;endFill=0;" parent="1" source="i_u9Ulbk1Ha4xllaxans-246" target="i_u9Ulbk1Ha4xllaxans-254" edge="1">
          <mxGeometry relative="1" as="geometry" />
        </mxCell>
        <mxCell id="i_u9Ulbk1Ha4xllaxans-246" value="Countries" style="shape=table;startSize=30;container=1;collapsible=1;childLayout=tableLayout;fixedRows=1;rowLines=0;fontStyle=1;align=center;resizeLast=1;html=1;fillColor=#0050ef;fontColor=#ffffff;strokeColor=#001DBC;" parent="1" vertex="1">
          <mxGeometry x="-1185" y="629.41" width="230" height="145.11764705882365" as="geometry" />
        </mxCell>
        <mxCell id="i_u9Ulbk1Ha4xllaxans-247" value="" style="shape=tableRow;horizontal=0;startSize=0;swimlaneHead=0;swimlaneBody=0;fillColor=none;collapsible=0;dropTarget=0;points=[[0,0.5],[1,0.5]];portConstraint=eastwest;top=0;left=0;right=0;bottom=1;" parent="i_u9Ulbk1Ha4xllaxans-246" vertex="1">
          <mxGeometry y="30" width="230" height="30" as="geometry" />
        </mxCell>
        <mxCell id="i_u9Ulbk1Ha4xllaxans-248" value="PK" style="shape=partialRectangle;connectable=0;fillColor=none;top=0;left=0;bottom=0;right=0;fontStyle=1;overflow=hidden;whiteSpace=wrap;html=1;" parent="i_u9Ulbk1Ha4xllaxans-247" vertex="1">
          <mxGeometry width="30" height="30" as="geometry">
            <mxRectangle width="30" height="30" as="alternateBounds" />
          </mxGeometry>
        </mxCell>
        <mxCell id="i_u9Ulbk1Ha4xllaxans-249" value="country_id: int auto_increment" style="shape=partialRectangle;connectable=0;fillColor=none;top=0;left=0;bottom=0;right=0;align=left;spacingLeft=6;fontStyle=5;overflow=hidden;whiteSpace=wrap;html=1;" parent="i_u9Ulbk1Ha4xllaxans-247" vertex="1">
          <mxGeometry x="30" width="200" height="30" as="geometry">
            <mxRectangle width="200" height="30" as="alternateBounds" />
          </mxGeometry>
        </mxCell>
        <mxCell id="i_u9Ulbk1Ha4xllaxans-250" value="" style="shape=tableRow;horizontal=0;startSize=0;swimlaneHead=0;swimlaneBody=0;fillColor=none;collapsible=0;dropTarget=0;points=[[0,0.5],[1,0.5]];portConstraint=eastwest;top=0;left=0;right=0;bottom=0;" parent="i_u9Ulbk1Ha4xllaxans-246" vertex="1">
          <mxGeometry y="60" width="230" height="85" as="geometry" />
        </mxCell>
        <mxCell id="i_u9Ulbk1Ha4xllaxans-251" value="" style="shape=partialRectangle;connectable=0;fillColor=none;top=0;left=0;bottom=0;right=0;editable=1;overflow=hidden;whiteSpace=wrap;html=1;" parent="i_u9Ulbk1Ha4xllaxans-250" vertex="1">
          <mxGeometry width="30" height="85" as="geometry">
            <mxRectangle width="30" height="85" as="alternateBounds" />
          </mxGeometry>
        </mxCell>
        <mxCell id="i_u9Ulbk1Ha4xllaxans-252" value="&lt;div style=&quot;text-align: justify;&quot;&gt;country_name: varchar(255) unique&lt;/div&gt;&lt;div style=&quot;text-align: justify;&quot;&gt;&lt;div&gt;&lt;br&gt;&lt;/div&gt;&lt;/div&gt;&lt;div style=&quot;text-align: justify;&quot;&gt;active: bit not null default 1&lt;/div&gt;&lt;div style=&quot;text-align: justify;&quot;&gt;&lt;br&gt;&lt;/div&gt;&lt;div style=&quot;text-align: justify;&quot;&gt;deleted: bit not null default 0&lt;/div&gt;" style="shape=partialRectangle;connectable=0;fillColor=none;top=0;left=0;bottom=0;right=0;align=left;spacingLeft=6;overflow=hidden;whiteSpace=wrap;html=1;" parent="i_u9Ulbk1Ha4xllaxans-250" vertex="1">
          <mxGeometry x="30" width="200" height="85" as="geometry">
            <mxRectangle width="200" height="85" as="alternateBounds" />
          </mxGeometry>
        </mxCell>
        <mxCell id="i_u9Ulbk1Ha4xllaxans-253" value="FilmsAndCountries" style="shape=table;startSize=30;container=1;collapsible=1;childLayout=tableLayout;fixedRows=1;rowLines=0;fontStyle=1;align=center;resizeLast=1;html=1;fillColor=#0050ef;fontColor=#ffffff;strokeColor=#001DBC;" parent="1" vertex="1">
          <mxGeometry x="-878" y="599.41" width="230" height="179.5882352941187" as="geometry" />
        </mxCell>
        <mxCell id="i_u9Ulbk1Ha4xllaxans-254" value="" style="shape=tableRow;horizontal=0;startSize=0;swimlaneHead=0;swimlaneBody=0;fillColor=none;collapsible=0;dropTarget=0;points=[[0,0.5],[1,0.5]];portConstraint=eastwest;top=0;left=0;right=0;bottom=1;" parent="i_u9Ulbk1Ha4xllaxans-253" vertex="1">
          <mxGeometry y="30" width="230" height="89" as="geometry" />
        </mxCell>
        <mxCell id="i_u9Ulbk1Ha4xllaxans-255" value="PK&lt;br&gt;&lt;br&gt;FK&lt;br&gt;&lt;br&gt;FK" style="shape=partialRectangle;connectable=0;fillColor=none;top=0;left=0;bottom=0;right=0;fontStyle=1;overflow=hidden;whiteSpace=wrap;html=1;" parent="i_u9Ulbk1Ha4xllaxans-254" vertex="1">
          <mxGeometry width="30" height="89" as="geometry">
            <mxRectangle width="30" height="89" as="alternateBounds" />
          </mxGeometry>
        </mxCell>
        <mxCell id="i_u9Ulbk1Ha4xllaxans-256" value="record_id: int auto_increment&lt;br&gt;&lt;br&gt;film_id: int not null&lt;br&gt;&lt;br&gt;country_id: int not null" style="shape=partialRectangle;connectable=0;fillColor=none;top=0;left=0;bottom=0;right=0;align=left;spacingLeft=6;fontStyle=5;overflow=hidden;whiteSpace=wrap;html=1;" parent="i_u9Ulbk1Ha4xllaxans-254" vertex="1">
          <mxGeometry x="30" width="200" height="89" as="geometry">
            <mxRectangle width="200" height="89" as="alternateBounds" />
          </mxGeometry>
        </mxCell>
        <mxCell id="i_u9Ulbk1Ha4xllaxans-257" value="" style="shape=tableRow;horizontal=0;startSize=0;swimlaneHead=0;swimlaneBody=0;fillColor=none;collapsible=0;dropTarget=0;points=[[0,0.5],[1,0.5]];portConstraint=eastwest;top=0;left=0;right=0;bottom=0;" parent="i_u9Ulbk1Ha4xllaxans-253" vertex="1">
          <mxGeometry y="119" width="230" height="60" as="geometry" />
        </mxCell>
        <mxCell id="i_u9Ulbk1Ha4xllaxans-258" value="" style="shape=partialRectangle;connectable=0;fillColor=none;top=0;left=0;bottom=0;right=0;editable=1;overflow=hidden;whiteSpace=wrap;html=1;" parent="i_u9Ulbk1Ha4xllaxans-257" vertex="1">
          <mxGeometry width="30" height="60" as="geometry">
            <mxRectangle width="30" height="60" as="alternateBounds" />
          </mxGeometry>
        </mxCell>
        <mxCell id="i_u9Ulbk1Ha4xllaxans-259" value="&lt;div style=&quot;text-align: justify;&quot;&gt;&lt;span style=&quot;background-color: initial;&quot;&gt;active: bit not null default 1&lt;/span&gt;&lt;br&gt;&lt;/div&gt;&lt;div style=&quot;text-align: justify;&quot;&gt;&lt;br&gt;&lt;/div&gt;&lt;div style=&quot;text-align: justify;&quot;&gt;deleted: bit not null default 0&lt;/div&gt;" style="shape=partialRectangle;connectable=0;fillColor=none;top=0;left=0;bottom=0;right=0;align=left;spacingLeft=6;overflow=hidden;whiteSpace=wrap;html=1;" parent="i_u9Ulbk1Ha4xllaxans-257" vertex="1">
          <mxGeometry x="30" width="200" height="60" as="geometry">
            <mxRectangle width="200" height="60" as="alternateBounds" />
          </mxGeometry>
        </mxCell>
        <mxCell id="i_u9Ulbk1Ha4xllaxans-260" value="FilmsAndLanguages" style="shape=table;startSize=30;container=1;collapsible=1;childLayout=tableLayout;fixedRows=1;rowLines=0;fontStyle=1;align=center;resizeLast=1;html=1;fillColor=#0050ef;fontColor=#ffffff;strokeColor=#001DBC;" parent="1" vertex="1">
          <mxGeometry x="-841" y="819.5400000000001" width="230" height="244.42000000000007" as="geometry" />
        </mxCell>
        <mxCell id="i_u9Ulbk1Ha4xllaxans-261" value="" style="shape=tableRow;horizontal=0;startSize=0;swimlaneHead=0;swimlaneBody=0;fillColor=none;collapsible=0;dropTarget=0;points=[[0,0.5],[1,0.5]];portConstraint=eastwest;top=0;left=0;right=0;bottom=1;" parent="i_u9Ulbk1Ha4xllaxans-260" vertex="1">
          <mxGeometry y="30" width="230" height="89" as="geometry" />
        </mxCell>
        <mxCell id="i_u9Ulbk1Ha4xllaxans-262" value="PK&lt;br&gt;&lt;br&gt;FK&lt;br&gt;&lt;br&gt;FK" style="shape=partialRectangle;connectable=0;fillColor=none;top=0;left=0;bottom=0;right=0;fontStyle=1;overflow=hidden;whiteSpace=wrap;html=1;" parent="i_u9Ulbk1Ha4xllaxans-261" vertex="1">
          <mxGeometry width="30" height="89" as="geometry">
            <mxRectangle width="30" height="89" as="alternateBounds" />
          </mxGeometry>
        </mxCell>
        <mxCell id="i_u9Ulbk1Ha4xllaxans-263" value="record_id: int auto_increment&lt;br&gt;&lt;br&gt;film_id: int not null&lt;br&gt;&lt;br&gt;language_id: int not null" style="shape=partialRectangle;connectable=0;fillColor=none;top=0;left=0;bottom=0;right=0;align=left;spacingLeft=6;fontStyle=5;overflow=hidden;whiteSpace=wrap;html=1;" parent="i_u9Ulbk1Ha4xllaxans-261" vertex="1">
          <mxGeometry x="30" width="200" height="89" as="geometry">
            <mxRectangle width="200" height="89" as="alternateBounds" />
          </mxGeometry>
        </mxCell>
        <mxCell id="i_u9Ulbk1Ha4xllaxans-264" value="" style="shape=tableRow;horizontal=0;startSize=0;swimlaneHead=0;swimlaneBody=0;fillColor=none;collapsible=0;dropTarget=0;points=[[0,0.5],[1,0.5]];portConstraint=eastwest;top=0;left=0;right=0;bottom=0;" parent="i_u9Ulbk1Ha4xllaxans-260" vertex="1">
          <mxGeometry y="119" width="230" height="125" as="geometry" />
        </mxCell>
        <mxCell id="i_u9Ulbk1Ha4xllaxans-265" value="" style="shape=partialRectangle;connectable=0;fillColor=none;top=0;left=0;bottom=0;right=0;editable=1;overflow=hidden;whiteSpace=wrap;html=1;" parent="i_u9Ulbk1Ha4xllaxans-264" vertex="1">
          <mxGeometry width="30" height="125" as="geometry">
            <mxRectangle width="30" height="125" as="alternateBounds" />
          </mxGeometry>
        </mxCell>
        <mxCell id="i_u9Ulbk1Ha4xllaxans-266" value="&lt;div style=&quot;text-align: justify;&quot;&gt;&lt;span style=&quot;background-color: initial;&quot;&gt;original_language boolean default false&lt;br&gt;&lt;/span&gt;&lt;/div&gt;&lt;div style=&quot;text-align: justify;&quot;&gt;&lt;span style=&quot;background-color: initial;&quot;&gt;&lt;br&gt;&lt;/span&gt;&lt;/div&gt;&lt;div style=&quot;text-align: justify;&quot;&gt;&lt;span style=&quot;background-color: initial;&quot;&gt;active: bit not null default 1&lt;/span&gt;&lt;br&gt;&lt;/div&gt;&lt;div style=&quot;text-align: justify;&quot;&gt;&lt;br&gt;&lt;/div&gt;&lt;div style=&quot;text-align: justify;&quot;&gt;deleted: bit not null default 0&lt;/div&gt;" style="shape=partialRectangle;connectable=0;fillColor=none;top=0;left=0;bottom=0;right=0;align=left;spacingLeft=6;overflow=hidden;whiteSpace=wrap;html=1;" parent="i_u9Ulbk1Ha4xllaxans-264" vertex="1">
          <mxGeometry x="30" width="200" height="125" as="geometry">
            <mxRectangle width="200" height="125" as="alternateBounds" />
          </mxGeometry>
        </mxCell>
        <mxCell id="i_u9Ulbk1Ha4xllaxans-271" value="Followers" style="shape=table;startSize=30;container=1;collapsible=1;childLayout=tableLayout;fixedRows=1;rowLines=0;fontStyle=1;align=center;resizeLast=1;html=1;fillColor=#60a917;fontColor=#ffffff;strokeColor=#2D7600;" parent="1" vertex="1">
          <mxGeometry x="380" y="849.1" width="230" height="232.90476190476193" as="geometry" />
        </mxCell>
        <mxCell id="i_u9Ulbk1Ha4xllaxans-272" value="" style="shape=tableRow;horizontal=0;startSize=0;swimlaneHead=0;swimlaneBody=0;fillColor=none;collapsible=0;dropTarget=0;points=[[0,0.5],[1,0.5]];portConstraint=eastwest;top=0;left=0;right=0;bottom=1;" parent="i_u9Ulbk1Ha4xllaxans-271" vertex="1">
          <mxGeometry y="30" width="230" height="90" as="geometry" />
        </mxCell>
        <mxCell id="i_u9Ulbk1Ha4xllaxans-273" value="PK&lt;br&gt;&lt;br&gt;FK&lt;br&gt;&lt;br&gt;FK" style="shape=partialRectangle;connectable=0;fillColor=none;top=0;left=0;bottom=0;right=0;fontStyle=1;overflow=hidden;whiteSpace=wrap;html=1;" parent="i_u9Ulbk1Ha4xllaxans-272" vertex="1">
          <mxGeometry width="30" height="90" as="geometry">
            <mxRectangle width="30" height="90" as="alternateBounds" />
          </mxGeometry>
        </mxCell>
        <mxCell id="i_u9Ulbk1Ha4xllaxans-274" value="record_id: int auto_increment&lt;br&gt;&lt;br&gt;follower_id: int not null&lt;br&gt;&lt;br&gt;followed_id: int not null" style="shape=partialRectangle;connectable=0;fillColor=none;top=0;left=0;bottom=0;right=0;align=left;spacingLeft=6;fontStyle=5;overflow=hidden;whiteSpace=wrap;html=1;" parent="i_u9Ulbk1Ha4xllaxans-272" vertex="1">
          <mxGeometry x="30" width="200" height="90" as="geometry">
            <mxRectangle width="200" height="90" as="alternateBounds" />
          </mxGeometry>
        </mxCell>
        <mxCell id="i_u9Ulbk1Ha4xllaxans-275" value="" style="shape=tableRow;horizontal=0;startSize=0;swimlaneHead=0;swimlaneBody=0;fillColor=none;collapsible=0;dropTarget=0;points=[[0,0.5],[1,0.5]];portConstraint=eastwest;top=0;left=0;right=0;bottom=0;" parent="i_u9Ulbk1Ha4xllaxans-271" vertex="1">
          <mxGeometry y="120" width="230" height="112" as="geometry" />
        </mxCell>
        <mxCell id="i_u9Ulbk1Ha4xllaxans-276" value="" style="shape=partialRectangle;connectable=0;fillColor=none;top=0;left=0;bottom=0;right=0;editable=1;overflow=hidden;whiteSpace=wrap;html=1;" parent="i_u9Ulbk1Ha4xllaxans-275" vertex="1">
          <mxGeometry width="30" height="112" as="geometry">
            <mxRectangle width="30" height="112" as="alternateBounds" />
          </mxGeometry>
        </mxCell>
        <mxCell id="i_u9Ulbk1Ha4xllaxans-277" value="&lt;div style=&quot;text-align: justify;&quot;&gt;date_followed: timestamp not null default current_timestamp&lt;/div&gt;&lt;div style=&quot;text-align: justify;&quot;&gt;&lt;br&gt;&lt;/div&gt;&lt;div style=&quot;text-align: justify;&quot;&gt;&lt;div&gt;active: bit not null default 1&lt;/div&gt;&lt;div&gt;&lt;br&gt;&lt;/div&gt;&lt;div&gt;deleted: bit not null default 0&lt;/div&gt;&lt;/div&gt;" style="shape=partialRectangle;connectable=0;fillColor=none;top=0;left=0;bottom=0;right=0;align=left;spacingLeft=6;overflow=hidden;whiteSpace=wrap;html=1;" parent="i_u9Ulbk1Ha4xllaxans-275" vertex="1">
          <mxGeometry x="30" width="200" height="112" as="geometry">
            <mxRectangle width="200" height="112" as="alternateBounds" />
          </mxGeometry>
        </mxCell>
        <mxCell id="i_u9Ulbk1Ha4xllaxans-278" style="edgeStyle=orthogonalEdgeStyle;shape=connector;curved=1;rounded=0;orthogonalLoop=1;jettySize=auto;html=1;labelBackgroundColor=default;strokeColor=default;align=center;verticalAlign=middle;fontFamily=Helvetica;fontSize=11;fontColor=default;startArrow=ERoneToMany;startFill=0;endArrow=ERone;endFill=0;exitX=0.5;exitY=0;exitDx=0;exitDy=0;" parent="1" source="i_u9Ulbk1Ha4xllaxans-271" edge="1">
          <mxGeometry relative="1" as="geometry">
            <mxPoint x="409" y="561" as="targetPoint" />
          </mxGeometry>
        </mxCell>
        <mxCell id="i_u9Ulbk1Ha4xllaxans-279" style="edgeStyle=orthogonalEdgeStyle;shape=connector;curved=1;rounded=0;orthogonalLoop=1;jettySize=auto;html=1;entryX=0;entryY=0.5;entryDx=0;entryDy=0;labelBackgroundColor=default;strokeColor=default;align=center;verticalAlign=middle;fontFamily=Helvetica;fontSize=11;fontColor=default;startArrow=ERmany;startFill=0;endArrow=ERone;endFill=0;exitX=0.75;exitY=1;exitDx=0;exitDy=0;" parent="1" source="i_u9Ulbk1Ha4xllaxans-135" target="i_u9Ulbk1Ha4xllaxans-272" edge="1">
          <mxGeometry relative="1" as="geometry" />
        </mxCell>
        <mxCell id="i_u9Ulbk1Ha4xllaxans-303" style="edgeStyle=orthogonalEdgeStyle;shape=connector;curved=1;rounded=0;orthogonalLoop=1;jettySize=auto;html=1;labelBackgroundColor=default;strokeColor=default;align=center;verticalAlign=middle;fontFamily=Helvetica;fontSize=11;fontColor=default;startArrow=ERmany;startFill=0;endArrow=ERoneToMany;endFill=0;" parent="1" source="i_u9Ulbk1Ha4xllaxans-280" target="i_u9Ulbk1Ha4xllaxans-288" edge="1">
          <mxGeometry relative="1" as="geometry" />
        </mxCell>
        <mxCell id="i_u9Ulbk1Ha4xllaxans-280" value="Persons" style="shape=table;startSize=30;container=1;collapsible=1;childLayout=tableLayout;fixedRows=1;rowLines=0;fontStyle=1;align=center;resizeLast=1;html=1;fillColor=#0050ef;fontColor=#ffffff;strokeColor=#001DBC;" parent="1" vertex="1">
          <mxGeometry x="-1197" y="-118" width="230" height="319.0000000000002" as="geometry" />
        </mxCell>
        <mxCell id="i_u9Ulbk1Ha4xllaxans-281" value="" style="shape=tableRow;horizontal=0;startSize=0;swimlaneHead=0;swimlaneBody=0;fillColor=none;collapsible=0;dropTarget=0;points=[[0,0.5],[1,0.5]];portConstraint=eastwest;top=0;left=0;right=0;bottom=1;" parent="i_u9Ulbk1Ha4xllaxans-280" vertex="1">
          <mxGeometry y="30" width="230" height="30" as="geometry" />
        </mxCell>
        <mxCell id="i_u9Ulbk1Ha4xllaxans-282" value="PK" style="shape=partialRectangle;connectable=0;fillColor=none;top=0;left=0;bottom=0;right=0;fontStyle=1;overflow=hidden;whiteSpace=wrap;html=1;" parent="i_u9Ulbk1Ha4xllaxans-281" vertex="1">
          <mxGeometry width="30" height="30" as="geometry">
            <mxRectangle width="30" height="30" as="alternateBounds" />
          </mxGeometry>
        </mxCell>
        <mxCell id="i_u9Ulbk1Ha4xllaxans-283" value="person_id: int auto_increment" style="shape=partialRectangle;connectable=0;fillColor=none;top=0;left=0;bottom=0;right=0;align=left;spacingLeft=6;fontStyle=5;overflow=hidden;whiteSpace=wrap;html=1;" parent="i_u9Ulbk1Ha4xllaxans-281" vertex="1">
          <mxGeometry x="30" width="200" height="30" as="geometry">
            <mxRectangle width="200" height="30" as="alternateBounds" />
          </mxGeometry>
        </mxCell>
        <mxCell id="i_u9Ulbk1Ha4xllaxans-284" value="" style="shape=tableRow;horizontal=0;startSize=0;swimlaneHead=0;swimlaneBody=0;fillColor=none;collapsible=0;dropTarget=0;points=[[0,0.5],[1,0.5]];portConstraint=eastwest;top=0;left=0;right=0;bottom=0;" parent="i_u9Ulbk1Ha4xllaxans-280" vertex="1">
          <mxGeometry y="60" width="230" height="259" as="geometry" />
        </mxCell>
        <mxCell id="i_u9Ulbk1Ha4xllaxans-285" value="" style="shape=partialRectangle;connectable=0;fillColor=none;top=0;left=0;bottom=0;right=0;editable=1;overflow=hidden;whiteSpace=wrap;html=1;" parent="i_u9Ulbk1Ha4xllaxans-284" vertex="1">
          <mxGeometry width="30" height="259" as="geometry">
            <mxRectangle width="30" height="259" as="alternateBounds" />
          </mxGeometry>
        </mxCell>
        <mxCell id="i_u9Ulbk1Ha4xllaxans-286" value="&lt;div style=&quot;text-align: justify;&quot;&gt;name: varchar(255) not null&lt;/div&gt;&lt;div style=&quot;text-align: justify;&quot;&gt;&lt;br&gt;&lt;/div&gt;&lt;div style=&quot;text-align: justify;&quot;&gt;biography: text&lt;/div&gt;&lt;div style=&quot;text-align: justify;&quot;&gt;&lt;br&gt;&lt;/div&gt;&lt;div style=&quot;text-align: justify;&quot;&gt;place_of_birth: varchar(255)&lt;/div&gt;&lt;div style=&quot;text-align: justify;&quot;&gt;&lt;br&gt;&lt;/div&gt;&lt;div style=&quot;text-align: justify;&quot;&gt;birthday: date&lt;/div&gt;&lt;div style=&quot;text-align: justify;&quot;&gt;&lt;br&gt;&lt;/div&gt;&lt;div style=&quot;text-align: justify;&quot;&gt;deathday: date&lt;/div&gt;&lt;div style=&quot;text-align: justify;&quot;&gt;&lt;br&gt;&lt;/div&gt;&lt;div style=&quot;text-align: justify;&quot;&gt;picture_url: varchar(255)&lt;/div&gt;&lt;div style=&quot;text-align: justify;&quot;&gt;&lt;br&gt;&lt;/div&gt;&lt;div style=&quot;text-align: justify;&quot;&gt;alias: varchar(255)&lt;/div&gt;&lt;div style=&quot;text-align: justify;&quot;&gt;&lt;div&gt;&lt;br&gt;&lt;/div&gt;&lt;/div&gt;&lt;div style=&quot;text-align: justify;&quot;&gt;active: bit not null default 1&lt;/div&gt;&lt;div style=&quot;text-align: justify;&quot;&gt;&lt;br&gt;&lt;/div&gt;&lt;div style=&quot;text-align: justify;&quot;&gt;deleted: bit not null default 0&lt;/div&gt;" style="shape=partialRectangle;connectable=0;fillColor=none;top=0;left=0;bottom=0;right=0;align=left;spacingLeft=6;overflow=hidden;whiteSpace=wrap;html=1;" parent="i_u9Ulbk1Ha4xllaxans-284" vertex="1">
          <mxGeometry x="30" width="200" height="259" as="geometry">
            <mxRectangle width="200" height="259" as="alternateBounds" />
          </mxGeometry>
        </mxCell>
        <mxCell id="i_u9Ulbk1Ha4xllaxans-287" value="FilmsAndPersons" style="shape=table;startSize=30;container=1;collapsible=1;childLayout=tableLayout;fixedRows=1;rowLines=0;fontStyle=1;align=center;resizeLast=1;html=1;fillColor=#0050ef;fontColor=#ffffff;strokeColor=#001DBC;" parent="1" vertex="1">
          <mxGeometry x="-887" y="-76" width="230" height="272.1250000000008" as="geometry" />
        </mxCell>
        <mxCell id="i_u9Ulbk1Ha4xllaxans-288" value="" style="shape=tableRow;horizontal=0;startSize=0;swimlaneHead=0;swimlaneBody=0;fillColor=none;collapsible=0;dropTarget=0;points=[[0,0.5],[1,0.5]];portConstraint=eastwest;top=0;left=0;right=0;bottom=1;" parent="i_u9Ulbk1Ha4xllaxans-287" vertex="1">
          <mxGeometry y="30" width="230" height="132" as="geometry" />
        </mxCell>
        <mxCell id="i_u9Ulbk1Ha4xllaxans-289" value="PK&lt;br&gt;&lt;br&gt;FK&lt;br&gt;&lt;br&gt;FK&lt;br&gt;&lt;br&gt;FK" style="shape=partialRectangle;connectable=0;fillColor=none;top=0;left=0;bottom=0;right=0;fontStyle=1;overflow=hidden;whiteSpace=wrap;html=1;" parent="i_u9Ulbk1Ha4xllaxans-288" vertex="1">
          <mxGeometry width="30" height="132" as="geometry">
            <mxRectangle width="30" height="132" as="alternateBounds" />
          </mxGeometry>
        </mxCell>
        <mxCell id="i_u9Ulbk1Ha4xllaxans-290" value="record_id: int auto_increment&lt;br&gt;&lt;br&gt;person_id: int not null&lt;br&gt;&lt;br&gt;film_id: int not null&lt;br&gt;&lt;br&gt;role_id: int not null" style="shape=partialRectangle;connectable=0;fillColor=none;top=0;left=0;bottom=0;right=0;align=left;spacingLeft=6;fontStyle=5;overflow=hidden;whiteSpace=wrap;html=1;" parent="i_u9Ulbk1Ha4xllaxans-288" vertex="1">
          <mxGeometry x="30" width="200" height="132" as="geometry">
            <mxRectangle width="200" height="132" as="alternateBounds" />
          </mxGeometry>
        </mxCell>
        <mxCell id="i_u9Ulbk1Ha4xllaxans-291" value="" style="shape=tableRow;horizontal=0;startSize=0;swimlaneHead=0;swimlaneBody=0;fillColor=none;collapsible=0;dropTarget=0;points=[[0,0.5],[1,0.5]];portConstraint=eastwest;top=0;left=0;right=0;bottom=0;" parent="i_u9Ulbk1Ha4xllaxans-287" vertex="1">
          <mxGeometry y="162" width="230" height="109" as="geometry" />
        </mxCell>
        <mxCell id="i_u9Ulbk1Ha4xllaxans-292" value="" style="shape=partialRectangle;connectable=0;fillColor=none;top=0;left=0;bottom=0;right=0;editable=1;overflow=hidden;whiteSpace=wrap;html=1;" parent="i_u9Ulbk1Ha4xllaxans-291" vertex="1">
          <mxGeometry width="30" height="109" as="geometry">
            <mxRectangle width="30" height="109" as="alternateBounds" />
          </mxGeometry>
        </mxCell>
        <mxCell id="i_u9Ulbk1Ha4xllaxans-293" value="&lt;div style=&quot;text-align: justify;&quot;&gt;character: varchar(255)&lt;/div&gt;&lt;div style=&quot;text-align: justify;&quot;&gt;&lt;br&gt;&lt;/div&gt;&lt;div style=&quot;text-align: justify;&quot;&gt;display_order: unsigned int&lt;/div&gt;&lt;div style=&quot;text-align: justify;&quot;&gt;&lt;span style=&quot;background-color: initial;&quot;&gt;&lt;br&gt;&lt;/span&gt;&lt;/div&gt;&lt;div style=&quot;text-align: justify;&quot;&gt;&lt;span style=&quot;background-color: initial;&quot;&gt;active: bit not null default 1&lt;/span&gt;&lt;br&gt;&lt;/div&gt;&lt;div style=&quot;text-align: justify;&quot;&gt;&lt;br&gt;&lt;/div&gt;&lt;div style=&quot;text-align: justify;&quot;&gt;deleted: bit not null default 0&lt;/div&gt;" style="shape=partialRectangle;connectable=0;fillColor=none;top=0;left=0;bottom=0;right=0;align=left;spacingLeft=6;overflow=hidden;whiteSpace=wrap;html=1;" parent="i_u9Ulbk1Ha4xllaxans-291" vertex="1">
          <mxGeometry x="30" width="200" height="109" as="geometry">
            <mxRectangle width="200" height="109" as="alternateBounds" />
          </mxGeometry>
        </mxCell>
        <mxCell id="i_u9Ulbk1Ha4xllaxans-302" style="edgeStyle=orthogonalEdgeStyle;shape=connector;curved=1;rounded=0;orthogonalLoop=1;jettySize=auto;html=1;entryX=0.5;entryY=0;entryDx=0;entryDy=0;labelBackgroundColor=default;strokeColor=default;align=center;verticalAlign=middle;fontFamily=Helvetica;fontSize=11;fontColor=default;startArrow=ERone;startFill=0;endArrow=ERoneToMany;endFill=0;exitX=1.002;exitY=0.401;exitDx=0;exitDy=0;exitPerimeter=0;" parent="1" source="i_u9Ulbk1Ha4xllaxans-298" target="i_u9Ulbk1Ha4xllaxans-287" edge="1">
          <mxGeometry relative="1" as="geometry">
            <Array as="points">
              <mxPoint x="-843" y="-221" />
              <mxPoint x="-843" y="-76" />
            </Array>
          </mxGeometry>
        </mxCell>
        <mxCell id="i_u9Ulbk1Ha4xllaxans-294" value="FilmRoles" style="shape=table;startSize=30;container=1;collapsible=1;childLayout=tableLayout;fixedRows=1;rowLines=0;fontStyle=1;align=center;resizeLast=1;html=1;fillColor=#0050ef;fontColor=#ffffff;strokeColor=#001DBC;" parent="1" vertex="1">
          <mxGeometry x="-1206" y="-316" width="230" height="147.57327586206924" as="geometry" />
        </mxCell>
        <mxCell id="i_u9Ulbk1Ha4xllaxans-295" value="" style="shape=tableRow;horizontal=0;startSize=0;swimlaneHead=0;swimlaneBody=0;fillColor=none;collapsible=0;dropTarget=0;points=[[0,0.5],[1,0.5]];portConstraint=eastwest;top=0;left=0;right=0;bottom=1;" parent="i_u9Ulbk1Ha4xllaxans-294" vertex="1">
          <mxGeometry y="30" width="230" height="30" as="geometry" />
        </mxCell>
        <mxCell id="i_u9Ulbk1Ha4xllaxans-296" value="PK" style="shape=partialRectangle;connectable=0;fillColor=none;top=0;left=0;bottom=0;right=0;fontStyle=1;overflow=hidden;whiteSpace=wrap;html=1;" parent="i_u9Ulbk1Ha4xllaxans-295" vertex="1">
          <mxGeometry width="30" height="30" as="geometry">
            <mxRectangle width="30" height="30" as="alternateBounds" />
          </mxGeometry>
        </mxCell>
        <mxCell id="i_u9Ulbk1Ha4xllaxans-297" value="role_id: int auto_increment" style="shape=partialRectangle;connectable=0;fillColor=none;top=0;left=0;bottom=0;right=0;align=left;spacingLeft=6;fontStyle=5;overflow=hidden;whiteSpace=wrap;html=1;" parent="i_u9Ulbk1Ha4xllaxans-295" vertex="1">
          <mxGeometry x="30" width="200" height="30" as="geometry">
            <mxRectangle width="200" height="30" as="alternateBounds" />
          </mxGeometry>
        </mxCell>
        <mxCell id="i_u9Ulbk1Ha4xllaxans-298" value="" style="shape=tableRow;horizontal=0;startSize=0;swimlaneHead=0;swimlaneBody=0;fillColor=none;collapsible=0;dropTarget=0;points=[[0,0.5],[1,0.5]];portConstraint=eastwest;top=0;left=0;right=0;bottom=0;" parent="i_u9Ulbk1Ha4xllaxans-294" vertex="1">
          <mxGeometry y="60" width="230" height="87" as="geometry" />
        </mxCell>
        <mxCell id="i_u9Ulbk1Ha4xllaxans-299" value="" style="shape=partialRectangle;connectable=0;fillColor=none;top=0;left=0;bottom=0;right=0;editable=1;overflow=hidden;whiteSpace=wrap;html=1;" parent="i_u9Ulbk1Ha4xllaxans-298" vertex="1">
          <mxGeometry width="30" height="87" as="geometry">
            <mxRectangle width="30" height="87" as="alternateBounds" />
          </mxGeometry>
        </mxCell>
        <mxCell id="i_u9Ulbk1Ha4xllaxans-300" value="&lt;div style=&quot;text-align: justify;&quot;&gt;name: varchar(255) not null&lt;/div&gt;&lt;div style=&quot;text-align: justify;&quot;&gt;&lt;div&gt;&lt;br&gt;&lt;/div&gt;&lt;/div&gt;&lt;div style=&quot;text-align: justify;&quot;&gt;active: bit not null default 1&lt;/div&gt;&lt;div style=&quot;text-align: justify;&quot;&gt;&lt;br&gt;&lt;/div&gt;&lt;div style=&quot;text-align: justify;&quot;&gt;deleted: bit not null default 0&lt;/div&gt;" style="shape=partialRectangle;connectable=0;fillColor=none;top=0;left=0;bottom=0;right=0;align=left;spacingLeft=6;overflow=hidden;whiteSpace=wrap;html=1;" parent="i_u9Ulbk1Ha4xllaxans-298" vertex="1">
          <mxGeometry x="30" width="200" height="87" as="geometry">
            <mxRectangle width="200" height="87" as="alternateBounds" />
          </mxGeometry>
        </mxCell>
        <mxCell id="i_u9Ulbk1Ha4xllaxans-301" style="edgeStyle=orthogonalEdgeStyle;shape=connector;curved=1;rounded=0;orthogonalLoop=1;jettySize=auto;html=1;entryX=0.003;entryY=0.315;entryDx=0;entryDy=0;entryPerimeter=0;labelBackgroundColor=default;strokeColor=default;align=center;verticalAlign=middle;fontFamily=Helvetica;fontSize=11;fontColor=default;startArrow=ERmany;startFill=0;endArrow=ERoneToMany;endFill=0;" parent="1" source="i_u9Ulbk1Ha4xllaxans-288" target="i_u9Ulbk1Ha4xllaxans-5" edge="1">
          <mxGeometry relative="1" as="geometry" />
        </mxCell>
        <mxCell id="i_u9Ulbk1Ha4xllaxans-304" value="FilmsAndProductionCompanies" style="shape=table;startSize=30;container=1;collapsible=1;childLayout=tableLayout;fixedRows=1;rowLines=0;fontStyle=1;align=center;resizeLast=1;html=1;fillColor=#0050ef;fontColor=#ffffff;strokeColor=#001DBC;" parent="1" vertex="1">
          <mxGeometry x="-1029" y="297" width="230" height="179.5882352941187" as="geometry" />
        </mxCell>
        <mxCell id="i_u9Ulbk1Ha4xllaxans-305" value="" style="shape=tableRow;horizontal=0;startSize=0;swimlaneHead=0;swimlaneBody=0;fillColor=none;collapsible=0;dropTarget=0;points=[[0,0.5],[1,0.5]];portConstraint=eastwest;top=0;left=0;right=0;bottom=1;" parent="i_u9Ulbk1Ha4xllaxans-304" vertex="1">
          <mxGeometry y="30" width="230" height="89" as="geometry" />
        </mxCell>
        <mxCell id="i_u9Ulbk1Ha4xllaxans-306" value="PK&lt;br&gt;&lt;br&gt;FK&lt;br&gt;&lt;br&gt;FK" style="shape=partialRectangle;connectable=0;fillColor=none;top=0;left=0;bottom=0;right=0;fontStyle=1;overflow=hidden;whiteSpace=wrap;html=1;" parent="i_u9Ulbk1Ha4xllaxans-305" vertex="1">
          <mxGeometry width="30" height="89" as="geometry">
            <mxRectangle width="30" height="89" as="alternateBounds" />
          </mxGeometry>
        </mxCell>
        <mxCell id="i_u9Ulbk1Ha4xllaxans-307" value="record_id: int auto_increment&lt;br&gt;&lt;br&gt;film_id: int not null&lt;br&gt;&lt;br&gt;company_id: int not null" style="shape=partialRectangle;connectable=0;fillColor=none;top=0;left=0;bottom=0;right=0;align=left;spacingLeft=6;fontStyle=5;overflow=hidden;whiteSpace=wrap;html=1;" parent="i_u9Ulbk1Ha4xllaxans-305" vertex="1">
          <mxGeometry x="30" width="200" height="89" as="geometry">
            <mxRectangle width="200" height="89" as="alternateBounds" />
          </mxGeometry>
        </mxCell>
        <mxCell id="i_u9Ulbk1Ha4xllaxans-308" value="" style="shape=tableRow;horizontal=0;startSize=0;swimlaneHead=0;swimlaneBody=0;fillColor=none;collapsible=0;dropTarget=0;points=[[0,0.5],[1,0.5]];portConstraint=eastwest;top=0;left=0;right=0;bottom=0;" parent="i_u9Ulbk1Ha4xllaxans-304" vertex="1">
          <mxGeometry y="119" width="230" height="60" as="geometry" />
        </mxCell>
        <mxCell id="i_u9Ulbk1Ha4xllaxans-309" value="" style="shape=partialRectangle;connectable=0;fillColor=none;top=0;left=0;bottom=0;right=0;editable=1;overflow=hidden;whiteSpace=wrap;html=1;" parent="i_u9Ulbk1Ha4xllaxans-308" vertex="1">
          <mxGeometry width="30" height="60" as="geometry">
            <mxRectangle width="30" height="60" as="alternateBounds" />
          </mxGeometry>
        </mxCell>
        <mxCell id="i_u9Ulbk1Ha4xllaxans-310" value="&lt;div style=&quot;text-align: justify;&quot;&gt;&lt;span style=&quot;background-color: initial;&quot;&gt;active: bit not null default 1&lt;/span&gt;&lt;br&gt;&lt;/div&gt;&lt;div style=&quot;text-align: justify;&quot;&gt;&lt;br&gt;&lt;/div&gt;&lt;div style=&quot;text-align: justify;&quot;&gt;deleted: bit not null default 0&lt;/div&gt;" style="shape=partialRectangle;connectable=0;fillColor=none;top=0;left=0;bottom=0;right=0;align=left;spacingLeft=6;overflow=hidden;whiteSpace=wrap;html=1;" parent="i_u9Ulbk1Ha4xllaxans-308" vertex="1">
          <mxGeometry x="30" width="200" height="60" as="geometry">
            <mxRectangle width="200" height="60" as="alternateBounds" />
          </mxGeometry>
        </mxCell>
        <mxCell id="i_u9Ulbk1Ha4xllaxans-311" value="ProductionCompanies" style="shape=table;startSize=30;container=1;collapsible=1;childLayout=tableLayout;fixedRows=1;rowLines=0;fontStyle=1;align=center;resizeLast=1;html=1;fillColor=#0050ef;fontColor=#ffffff;strokeColor=#001DBC;" parent="1" vertex="1">
          <mxGeometry x="-1330" y="298" width="230" height="179.2128851540615" as="geometry" />
        </mxCell>
        <mxCell id="i_u9Ulbk1Ha4xllaxans-312" value="" style="shape=tableRow;horizontal=0;startSize=0;swimlaneHead=0;swimlaneBody=0;fillColor=none;collapsible=0;dropTarget=0;points=[[0,0.5],[1,0.5]];portConstraint=eastwest;top=0;left=0;right=0;bottom=1;" parent="i_u9Ulbk1Ha4xllaxans-311" vertex="1">
          <mxGeometry y="30" width="230" height="30" as="geometry" />
        </mxCell>
        <mxCell id="i_u9Ulbk1Ha4xllaxans-313" value="PK" style="shape=partialRectangle;connectable=0;fillColor=none;top=0;left=0;bottom=0;right=0;fontStyle=1;overflow=hidden;whiteSpace=wrap;html=1;" parent="i_u9Ulbk1Ha4xllaxans-312" vertex="1">
          <mxGeometry width="30" height="30" as="geometry">
            <mxRectangle width="30" height="30" as="alternateBounds" />
          </mxGeometry>
        </mxCell>
        <mxCell id="i_u9Ulbk1Ha4xllaxans-314" value="company_id: int auto_increment" style="shape=partialRectangle;connectable=0;fillColor=none;top=0;left=0;bottom=0;right=0;align=left;spacingLeft=6;fontStyle=5;overflow=hidden;whiteSpace=wrap;html=1;" parent="i_u9Ulbk1Ha4xllaxans-312" vertex="1">
          <mxGeometry x="30" width="200" height="30" as="geometry">
            <mxRectangle width="200" height="30" as="alternateBounds" />
          </mxGeometry>
        </mxCell>
        <mxCell id="i_u9Ulbk1Ha4xllaxans-315" value="" style="shape=tableRow;horizontal=0;startSize=0;swimlaneHead=0;swimlaneBody=0;fillColor=none;collapsible=0;dropTarget=0;points=[[0,0.5],[1,0.5]];portConstraint=eastwest;top=0;left=0;right=0;bottom=0;" parent="i_u9Ulbk1Ha4xllaxans-311" vertex="1">
          <mxGeometry y="60" width="230" height="119" as="geometry" />
        </mxCell>
        <mxCell id="i_u9Ulbk1Ha4xllaxans-316" value="" style="shape=partialRectangle;connectable=0;fillColor=none;top=0;left=0;bottom=0;right=0;editable=1;overflow=hidden;whiteSpace=wrap;html=1;" parent="i_u9Ulbk1Ha4xllaxans-315" vertex="1">
          <mxGeometry width="30" height="119" as="geometry">
            <mxRectangle width="30" height="119" as="alternateBounds" />
          </mxGeometry>
        </mxCell>
        <mxCell id="i_u9Ulbk1Ha4xllaxans-317" value="&lt;div style=&quot;text-align: justify;&quot;&gt;name: varchar(255) not null&lt;/div&gt;&lt;div style=&quot;text-align: justify;&quot;&gt;&lt;br&gt;&lt;/div&gt;&lt;div style=&quot;text-align: justify;&quot;&gt;origin_country: varchar(255)&lt;/div&gt;&lt;div style=&quot;text-align: justify;&quot;&gt;&lt;div&gt;&lt;br&gt;&lt;/div&gt;&lt;/div&gt;&lt;div style=&quot;text-align: justify;&quot;&gt;active: bit not null default 1&lt;/div&gt;&lt;div style=&quot;text-align: justify;&quot;&gt;&lt;br&gt;&lt;/div&gt;&lt;div style=&quot;text-align: justify;&quot;&gt;deleted: bit not null default 0&lt;/div&gt;" style="shape=partialRectangle;connectable=0;fillColor=none;top=0;left=0;bottom=0;right=0;align=left;spacingLeft=6;overflow=hidden;whiteSpace=wrap;html=1;" parent="i_u9Ulbk1Ha4xllaxans-315" vertex="1">
          <mxGeometry x="30" width="200" height="119" as="geometry">
            <mxRectangle width="200" height="119" as="alternateBounds" />
          </mxGeometry>
        </mxCell>
        <mxCell id="i_u9Ulbk1Ha4xllaxans-318" style="edgeStyle=orthogonalEdgeStyle;shape=connector;curved=1;rounded=0;orthogonalLoop=1;jettySize=auto;html=1;entryX=1;entryY=0.5;entryDx=0;entryDy=0;labelBackgroundColor=default;align=center;verticalAlign=middle;fontFamily=Helvetica;fontSize=11;fontColor=default;startArrow=ERmany;startFill=0;endArrow=ERmany;endFill=0;" parent="1" source="i_u9Ulbk1Ha4xllaxans-5" target="i_u9Ulbk1Ha4xllaxans-305" edge="1">
          <mxGeometry relative="1" as="geometry" />
        </mxCell>
        <mxCell id="i_u9Ulbk1Ha4xllaxans-319" style="edgeStyle=orthogonalEdgeStyle;shape=connector;curved=1;rounded=0;orthogonalLoop=1;jettySize=auto;html=1;labelBackgroundColor=default;strokeColor=default;align=center;verticalAlign=middle;fontFamily=Helvetica;fontSize=11;fontColor=default;startArrow=ERmany;startFill=0;endArrow=ERmany;endFill=0;" parent="1" source="i_u9Ulbk1Ha4xllaxans-305" target="i_u9Ulbk1Ha4xllaxans-315" edge="1">
          <mxGeometry relative="1" as="geometry" />
        </mxCell>
        <mxCell id="i_u9Ulbk1Ha4xllaxans-320" style="edgeStyle=orthogonalEdgeStyle;shape=connector;curved=1;rounded=0;orthogonalLoop=1;jettySize=auto;html=1;entryX=0.555;entryY=1.005;entryDx=0;entryDy=0;entryPerimeter=0;labelBackgroundColor=default;strokeColor=default;align=center;verticalAlign=middle;fontFamily=Helvetica;fontSize=11;fontColor=default;startArrow=ERoneToMany;startFill=0;endArrow=ERzeroToMany;endFill=0;" parent="1" source="i_u9Ulbk1Ha4xllaxans-117" target="i_u9Ulbk1Ha4xllaxans-192" edge="1">
          <mxGeometry relative="1" as="geometry" />
        </mxCell>
        <mxCell id="i_u9Ulbk1Ha4xllaxans-322" value="PrivateConversation" style="shape=table;startSize=30;container=1;collapsible=1;childLayout=tableLayout;fixedRows=1;rowLines=0;fontStyle=1;align=center;resizeLast=1;html=1;fillColor=#76608a;fontColor=#ffffff;strokeColor=#432D57;" parent="1" vertex="1">
          <mxGeometry x="716" y="290" width="230" height="263" as="geometry" />
        </mxCell>
        <mxCell id="i_u9Ulbk1Ha4xllaxans-323" value="" style="shape=tableRow;horizontal=0;startSize=0;swimlaneHead=0;swimlaneBody=0;fillColor=none;collapsible=0;dropTarget=0;points=[[0,0.5],[1,0.5]];portConstraint=eastwest;top=0;left=0;right=0;bottom=1;" parent="i_u9Ulbk1Ha4xllaxans-322" vertex="1">
          <mxGeometry y="30" width="230" height="90" as="geometry" />
        </mxCell>
        <mxCell id="i_u9Ulbk1Ha4xllaxans-324" value="PK&lt;br&gt;&lt;br&gt;FK&lt;br&gt;&lt;br&gt;FK" style="shape=partialRectangle;connectable=0;fillColor=none;top=0;left=0;bottom=0;right=0;fontStyle=1;overflow=hidden;whiteSpace=wrap;html=1;" parent="i_u9Ulbk1Ha4xllaxans-323" vertex="1">
          <mxGeometry width="30" height="90" as="geometry">
            <mxRectangle width="30" height="90" as="alternateBounds" />
          </mxGeometry>
        </mxCell>
        <mxCell id="i_u9Ulbk1Ha4xllaxans-325" value="conversation_id: int auto_increment&lt;br&gt;&lt;br&gt;creator_id: int not null&lt;br&gt;&lt;br&gt;target_id: int not null" style="shape=partialRectangle;connectable=0;fillColor=none;top=0;left=0;bottom=0;right=0;align=left;spacingLeft=6;fontStyle=5;overflow=hidden;whiteSpace=wrap;html=1;" parent="i_u9Ulbk1Ha4xllaxans-323" vertex="1">
          <mxGeometry x="30" width="200" height="90" as="geometry">
            <mxRectangle width="200" height="90" as="alternateBounds" />
          </mxGeometry>
        </mxCell>
        <mxCell id="i_u9Ulbk1Ha4xllaxans-326" value="" style="shape=tableRow;horizontal=0;startSize=0;swimlaneHead=0;swimlaneBody=0;fillColor=none;collapsible=0;dropTarget=0;points=[[0,0.5],[1,0.5]];portConstraint=eastwest;top=0;left=0;right=0;bottom=0;" parent="i_u9Ulbk1Ha4xllaxans-322" vertex="1">
          <mxGeometry y="120" width="230" height="143" as="geometry" />
        </mxCell>
        <mxCell id="i_u9Ulbk1Ha4xllaxans-327" value="" style="shape=partialRectangle;connectable=0;fillColor=none;top=0;left=0;bottom=0;right=0;editable=1;overflow=hidden;whiteSpace=wrap;html=1;" parent="i_u9Ulbk1Ha4xllaxans-326" vertex="1">
          <mxGeometry width="30" height="143" as="geometry">
            <mxRectangle width="30" height="143" as="alternateBounds" />
          </mxGeometry>
        </mxCell>
        <mxCell id="i_u9Ulbk1Ha4xllaxans-328" value="&lt;div style=&quot;text-align: justify;&quot;&gt;date_created: timestamp not null default current_timestamp&lt;/div&gt;&lt;div style=&quot;text-align: justify;&quot;&gt;&lt;br&gt;&lt;/div&gt;&lt;div style=&quot;text-align: justify;&quot;&gt;subject: VARCHAR(255)&lt;/div&gt;&lt;div style=&quot;text-align: justify;&quot;&gt;&lt;br&gt;&lt;/div&gt;&lt;div style=&quot;text-align: justify;&quot;&gt;&lt;div&gt;active: bit not null default 1&lt;/div&gt;&lt;div&gt;&lt;br&gt;&lt;/div&gt;&lt;div&gt;deleted: bit not null default 0&lt;/div&gt;&lt;/div&gt;" style="shape=partialRectangle;connectable=0;fillColor=none;top=0;left=0;bottom=0;right=0;align=left;spacingLeft=6;overflow=hidden;whiteSpace=wrap;html=1;" parent="i_u9Ulbk1Ha4xllaxans-326" vertex="1">
          <mxGeometry x="30" width="200" height="143" as="geometry">
            <mxRectangle width="200" height="143" as="alternateBounds" />
          </mxGeometry>
        </mxCell>
        <mxCell id="i_u9Ulbk1Ha4xllaxans-329" style="edgeStyle=orthogonalEdgeStyle;shape=connector;curved=1;rounded=0;orthogonalLoop=1;jettySize=auto;html=1;entryX=1;entryY=0.5;entryDx=0;entryDy=0;labelBackgroundColor=default;strokeColor=default;align=center;verticalAlign=middle;fontFamily=Helvetica;fontSize=11;fontColor=default;startArrow=ERmany;startFill=0;endArrow=ERone;endFill=0;" parent="1" source="i_u9Ulbk1Ha4xllaxans-326" target="i_u9Ulbk1Ha4xllaxans-139" edge="1">
          <mxGeometry relative="1" as="geometry" />
        </mxCell>
        <mxCell id="i_u9Ulbk1Ha4xllaxans-330" style="edgeStyle=orthogonalEdgeStyle;shape=connector;curved=1;rounded=0;orthogonalLoop=1;jettySize=auto;html=1;entryX=1.001;entryY=0.351;entryDx=0;entryDy=0;entryPerimeter=0;labelBackgroundColor=default;strokeColor=default;align=center;verticalAlign=middle;fontFamily=Helvetica;fontSize=11;fontColor=default;startArrow=ERone;startFill=0;endArrow=ERmany;endFill=0;" parent="1" source="i_u9Ulbk1Ha4xllaxans-323" target="i_u9Ulbk1Ha4xllaxans-139" edge="1">
          <mxGeometry relative="1" as="geometry" />
        </mxCell>
        <mxCell id="SQyXr_AzsCQ3mn8x2FYI-1" value="ApiCallLogs" style="shape=table;startSize=30;container=1;collapsible=1;childLayout=tableLayout;fixedRows=1;rowLines=0;fontStyle=1;align=center;resizeLast=1;html=1;" parent="1" vertex="1">
          <mxGeometry x="2260" y="-807" width="237" height="257.1666666666666" as="geometry" />
        </mxCell>
        <mxCell id="SQyXr_AzsCQ3mn8x2FYI-2" value="" style="shape=tableRow;horizontal=0;startSize=0;swimlaneHead=0;swimlaneBody=0;fillColor=none;collapsible=0;dropTarget=0;points=[[0,0.5],[1,0.5]];portConstraint=eastwest;top=0;left=0;right=0;bottom=1;" parent="SQyXr_AzsCQ3mn8x2FYI-1" vertex="1">
          <mxGeometry y="30" width="237" height="33" as="geometry" />
        </mxCell>
        <mxCell id="SQyXr_AzsCQ3mn8x2FYI-3" value="PK" style="shape=partialRectangle;connectable=0;fillColor=none;top=0;left=0;bottom=0;right=0;fontStyle=1;overflow=hidden;whiteSpace=wrap;html=1;" parent="SQyXr_AzsCQ3mn8x2FYI-2" vertex="1">
          <mxGeometry width="30" height="33" as="geometry">
            <mxRectangle width="30" height="33" as="alternateBounds" />
          </mxGeometry>
        </mxCell>
        <mxCell id="SQyXr_AzsCQ3mn8x2FYI-4" value="id: int auto_increment" style="shape=partialRectangle;connectable=0;fillColor=none;top=0;left=0;bottom=0;right=0;align=left;spacingLeft=6;fontStyle=5;overflow=hidden;whiteSpace=wrap;html=1;" parent="SQyXr_AzsCQ3mn8x2FYI-2" vertex="1">
          <mxGeometry x="30" width="207" height="33" as="geometry">
            <mxRectangle width="207" height="33" as="alternateBounds" />
          </mxGeometry>
        </mxCell>
        <mxCell id="SQyXr_AzsCQ3mn8x2FYI-5" value="" style="shape=tableRow;horizontal=0;startSize=0;swimlaneHead=0;swimlaneBody=0;fillColor=none;collapsible=0;dropTarget=0;points=[[0,0.5],[1,0.5]];portConstraint=eastwest;top=0;left=0;right=0;bottom=0;" parent="SQyXr_AzsCQ3mn8x2FYI-1" vertex="1">
          <mxGeometry y="63" width="237" height="194" as="geometry" />
        </mxCell>
        <mxCell id="SQyXr_AzsCQ3mn8x2FYI-6" value="" style="shape=partialRectangle;connectable=0;fillColor=none;top=0;left=0;bottom=0;right=0;editable=1;overflow=hidden;whiteSpace=wrap;html=1;" parent="SQyXr_AzsCQ3mn8x2FYI-5" vertex="1">
          <mxGeometry width="30" height="194" as="geometry">
            <mxRectangle width="30" height="194" as="alternateBounds" />
          </mxGeometry>
        </mxCell>
        <mxCell id="SQyXr_AzsCQ3mn8x2FYI-7" value="&lt;div style=&quot;text-align: justify;&quot;&gt;path: varchar(255)&lt;/div&gt;&lt;div style=&quot;text-align: justify;&quot;&gt;&lt;br&gt;&lt;/div&gt;&lt;div style=&quot;text-align: justify;&quot;&gt;method: varchar(10)&lt;/div&gt;&lt;div style=&quot;text-align: justify;&quot;&gt;&lt;br&gt;&lt;/div&gt;&lt;div style=&quot;text-align: justify;&quot;&gt;ip: inet&lt;/div&gt;&lt;div style=&quot;text-align: justify;&quot;&gt;&lt;br&gt;&lt;/div&gt;&lt;div style=&quot;text-align: justify;&quot;&gt;api_key: varchar(100)&lt;/div&gt;&lt;div style=&quot;text-align: justify;&quot;&gt;&lt;br&gt;&lt;/div&gt;&lt;div style=&quot;text-align: justify;&quot;&gt;&lt;br&gt;&lt;/div&gt;&lt;div style=&quot;text-align: justify;&quot;&gt;time: timestamp&lt;/div&gt;&lt;div style=&quot;text-align: justify;&quot;&gt;&lt;br&gt;&lt;/div&gt;&lt;div style=&quot;text-align: justify;&quot;&gt;status_code: int&lt;/div&gt;" style="shape=partialRectangle;connectable=0;fillColor=none;top=0;left=0;bottom=0;right=0;align=left;spacingLeft=6;overflow=hidden;whiteSpace=wrap;html=1;" parent="SQyXr_AzsCQ3mn8x2FYI-5" vertex="1">
          <mxGeometry x="30" width="207" height="194" as="geometry">
            <mxRectangle width="207" height="194" as="alternateBounds" />
          </mxGeometry>
        </mxCell>
        <mxCell id="ebknQcv6rec1tFLarQAg-26" style="edgeStyle=orthogonalEdgeStyle;rounded=0;orthogonalLoop=1;jettySize=auto;html=1;entryX=0;entryY=0.5;entryDx=0;entryDy=0;curved=1;startArrow=ERoneToMany;startFill=0;endArrow=ERzeroToMany;endFill=0;" parent="1" source="ebknQcv6rec1tFLarQAg-2" target="ebknQcv6rec1tFLarQAg-17" edge="1">
          <mxGeometry relative="1" as="geometry" />
        </mxCell>
        <mxCell id="ebknQcv6rec1tFLarQAg-2" value="Products" style="shape=table;startSize=30;container=1;collapsible=1;childLayout=tableLayout;fixedRows=1;rowLines=0;fontStyle=1;align=center;resizeLast=1;html=1;fillColor=#a20025;fontColor=#ffffff;strokeColor=#6F0000;" parent="1" vertex="1">
          <mxGeometry x="1393" y="815.33" width="230" height="329.49299719887927" as="geometry" />
        </mxCell>
        <mxCell id="ebknQcv6rec1tFLarQAg-3" value="" style="shape=tableRow;horizontal=0;startSize=0;swimlaneHead=0;swimlaneBody=0;fillColor=none;collapsible=0;dropTarget=0;points=[[0,0.5],[1,0.5]];portConstraint=eastwest;top=0;left=0;right=0;bottom=1;" parent="ebknQcv6rec1tFLarQAg-2" vertex="1">
          <mxGeometry y="30" width="230" height="75" as="geometry" />
        </mxCell>
        <mxCell id="ebknQcv6rec1tFLarQAg-4" value="PK&lt;br&gt;&lt;br&gt;FK" style="shape=partialRectangle;connectable=0;fillColor=none;top=0;left=0;bottom=0;right=0;fontStyle=1;overflow=hidden;whiteSpace=wrap;html=1;" parent="ebknQcv6rec1tFLarQAg-3" vertex="1">
          <mxGeometry width="30" height="75" as="geometry">
            <mxRectangle width="30" height="75" as="alternateBounds" />
          </mxGeometry>
        </mxCell>
        <mxCell id="ebknQcv6rec1tFLarQAg-5" value="id: int auto_increment&lt;br&gt;&lt;br&gt;category_id: int not null&lt;br&gt;&lt;br&gt;" style="shape=partialRectangle;connectable=0;fillColor=none;top=0;left=0;bottom=0;right=0;align=left;spacingLeft=6;fontStyle=5;overflow=hidden;whiteSpace=wrap;html=1;" parent="ebknQcv6rec1tFLarQAg-3" vertex="1">
          <mxGeometry x="30" width="200" height="75" as="geometry">
            <mxRectangle width="200" height="75" as="alternateBounds" />
          </mxGeometry>
        </mxCell>
        <mxCell id="ebknQcv6rec1tFLarQAg-6" value="" style="shape=tableRow;horizontal=0;startSize=0;swimlaneHead=0;swimlaneBody=0;fillColor=none;collapsible=0;dropTarget=0;points=[[0,0.5],[1,0.5]];portConstraint=eastwest;top=0;left=0;right=0;bottom=0;" parent="ebknQcv6rec1tFLarQAg-2" vertex="1">
          <mxGeometry y="105" width="230" height="223" as="geometry" />
        </mxCell>
        <mxCell id="ebknQcv6rec1tFLarQAg-7" value="" style="shape=partialRectangle;connectable=0;fillColor=none;top=0;left=0;bottom=0;right=0;editable=1;overflow=hidden;whiteSpace=wrap;html=1;" parent="ebknQcv6rec1tFLarQAg-6" vertex="1">
          <mxGeometry width="30" height="223" as="geometry">
            <mxRectangle width="30" height="223" as="alternateBounds" />
          </mxGeometry>
        </mxCell>
        <mxCell id="ebknQcv6rec1tFLarQAg-8" value="&lt;div style=&quot;text-align: justify;&quot;&gt;description: text&lt;/div&gt;&lt;div style=&quot;text-align: justify;&quot;&gt;&lt;br&gt;&lt;/div&gt;&lt;div style=&quot;text-align: justify;&quot;&gt;price_cents: unsigned decimal&lt;/div&gt;&lt;div style=&quot;text-align: justify;&quot;&gt;&lt;br&gt;&lt;/div&gt;&lt;div style=&quot;text-align: justify;&quot;&gt;image_url: varchar(255)&lt;/div&gt;&lt;div style=&quot;text-align: justify;&quot;&gt;&lt;br&gt;&lt;/div&gt;&lt;div style=&quot;text-align: justify;&quot;&gt;stock: int&lt;/div&gt;&lt;div style=&quot;text-align: justify;&quot;&gt;&lt;br&gt;&lt;/div&gt;&lt;div style=&quot;text-align: justify;&quot;&gt;created_at: timestamp&lt;/div&gt;&lt;div style=&quot;text-align: justify;&quot;&gt;&lt;br&gt;&lt;/div&gt;&lt;div style=&quot;text-align: justify;&quot;&gt;&lt;div&gt;active: bit not null default 1&lt;/div&gt;&lt;div&gt;&lt;br&gt;&lt;/div&gt;&lt;div&gt;deleted: bit not null default 0&lt;/div&gt;&lt;/div&gt;" style="shape=partialRectangle;connectable=0;fillColor=none;top=0;left=0;bottom=0;right=0;align=left;spacingLeft=6;overflow=hidden;whiteSpace=wrap;html=1;" parent="ebknQcv6rec1tFLarQAg-6" vertex="1">
          <mxGeometry x="30" width="200" height="223" as="geometry">
            <mxRectangle width="200" height="223" as="alternateBounds" />
          </mxGeometry>
        </mxCell>
        <mxCell id="ebknQcv6rec1tFLarQAg-25" style="edgeStyle=orthogonalEdgeStyle;rounded=0;orthogonalLoop=1;jettySize=auto;html=1;entryX=0.75;entryY=0;entryDx=0;entryDy=0;curved=1;endArrow=ERone;endFill=0;startArrow=ERone;startFill=0;" parent="1" source="ebknQcv6rec1tFLarQAg-9" target="ebknQcv6rec1tFLarQAg-2" edge="1">
          <mxGeometry relative="1" as="geometry" />
        </mxCell>
        <mxCell id="ebknQcv6rec1tFLarQAg-9" value="ProductCategories" style="shape=table;startSize=30;container=1;collapsible=1;childLayout=tableLayout;fixedRows=1;rowLines=0;fontStyle=1;align=center;resizeLast=1;html=1;fillColor=#a20025;fontColor=#ffffff;strokeColor=#6F0000;" parent="1" vertex="1">
          <mxGeometry x="1707" y="629.41" width="230" height="179.7282913165265" as="geometry" />
        </mxCell>
        <mxCell id="ebknQcv6rec1tFLarQAg-10" value="" style="shape=tableRow;horizontal=0;startSize=0;swimlaneHead=0;swimlaneBody=0;fillColor=none;collapsible=0;dropTarget=0;points=[[0,0.5],[1,0.5]];portConstraint=eastwest;top=0;left=0;right=0;bottom=1;" parent="ebknQcv6rec1tFLarQAg-9" vertex="1">
          <mxGeometry y="30" width="230" height="50" as="geometry" />
        </mxCell>
        <mxCell id="ebknQcv6rec1tFLarQAg-11" value="PK" style="shape=partialRectangle;connectable=0;fillColor=none;top=0;left=0;bottom=0;right=0;fontStyle=1;overflow=hidden;whiteSpace=wrap;html=1;" parent="ebknQcv6rec1tFLarQAg-10" vertex="1">
          <mxGeometry width="30" height="50" as="geometry">
            <mxRectangle width="30" height="50" as="alternateBounds" />
          </mxGeometry>
        </mxCell>
        <mxCell id="ebknQcv6rec1tFLarQAg-12" value="id: int auto_increment" style="shape=partialRectangle;connectable=0;fillColor=none;top=0;left=0;bottom=0;right=0;align=left;spacingLeft=6;fontStyle=5;overflow=hidden;whiteSpace=wrap;html=1;" parent="ebknQcv6rec1tFLarQAg-10" vertex="1">
          <mxGeometry x="30" width="200" height="50" as="geometry">
            <mxRectangle width="200" height="50" as="alternateBounds" />
          </mxGeometry>
        </mxCell>
        <mxCell id="ebknQcv6rec1tFLarQAg-13" value="" style="shape=tableRow;horizontal=0;startSize=0;swimlaneHead=0;swimlaneBody=0;fillColor=none;collapsible=0;dropTarget=0;points=[[0,0.5],[1,0.5]];portConstraint=eastwest;top=0;left=0;right=0;bottom=0;" parent="ebknQcv6rec1tFLarQAg-9" vertex="1">
          <mxGeometry y="80" width="230" height="98" as="geometry" />
        </mxCell>
        <mxCell id="ebknQcv6rec1tFLarQAg-14" value="" style="shape=partialRectangle;connectable=0;fillColor=none;top=0;left=0;bottom=0;right=0;editable=1;overflow=hidden;whiteSpace=wrap;html=1;" parent="ebknQcv6rec1tFLarQAg-13" vertex="1">
          <mxGeometry width="30" height="98" as="geometry">
            <mxRectangle width="30" height="98" as="alternateBounds" />
          </mxGeometry>
        </mxCell>
        <mxCell id="ebknQcv6rec1tFLarQAg-15" value="&lt;div style=&quot;text-align: justify;&quot;&gt;name: varchar(100)&lt;/div&gt;&lt;div style=&quot;text-align: justify;&quot;&gt;&lt;br&gt;&lt;/div&gt;&lt;div style=&quot;text-align: justify;&quot;&gt;&lt;div&gt;active: bit not null default 1&lt;/div&gt;&lt;div&gt;&lt;br&gt;&lt;/div&gt;&lt;div&gt;deleted: bit not null default 0&lt;/div&gt;&lt;/div&gt;" style="shape=partialRectangle;connectable=0;fillColor=none;top=0;left=0;bottom=0;right=0;align=left;spacingLeft=6;overflow=hidden;whiteSpace=wrap;html=1;" parent="ebknQcv6rec1tFLarQAg-13" vertex="1">
          <mxGeometry x="30" width="200" height="98" as="geometry">
            <mxRectangle width="200" height="98" as="alternateBounds" />
          </mxGeometry>
        </mxCell>
        <mxCell id="ebknQcv6rec1tFLarQAg-16" value="ProductStockChanges" style="shape=table;startSize=30;container=1;collapsible=1;childLayout=tableLayout;fixedRows=1;rowLines=0;fontStyle=1;align=center;resizeLast=1;html=1;fillColor=#a20025;fontColor=#ffffff;strokeColor=#6F0000;" parent="1" vertex="1">
          <mxGeometry x="1695" y="855.12" width="230" height="268.9635854341733" as="geometry" />
        </mxCell>
        <mxCell id="ebknQcv6rec1tFLarQAg-17" value="" style="shape=tableRow;horizontal=0;startSize=0;swimlaneHead=0;swimlaneBody=0;fillColor=none;collapsible=0;dropTarget=0;points=[[0,0.5],[1,0.5]];portConstraint=eastwest;top=0;left=0;right=0;bottom=1;" parent="ebknQcv6rec1tFLarQAg-16" vertex="1">
          <mxGeometry y="30" width="230" height="75" as="geometry" />
        </mxCell>
        <mxCell id="ebknQcv6rec1tFLarQAg-18" value="PK&lt;br&gt;&lt;br&gt;FK" style="shape=partialRectangle;connectable=0;fillColor=none;top=0;left=0;bottom=0;right=0;fontStyle=1;overflow=hidden;whiteSpace=wrap;html=1;" parent="ebknQcv6rec1tFLarQAg-17" vertex="1">
          <mxGeometry width="30" height="75" as="geometry">
            <mxRectangle width="30" height="75" as="alternateBounds" />
          </mxGeometry>
        </mxCell>
        <mxCell id="ebknQcv6rec1tFLarQAg-19" value="id: int auto_increment&lt;br&gt;&lt;br&gt;product_id: int not null" style="shape=partialRectangle;connectable=0;fillColor=none;top=0;left=0;bottom=0;right=0;align=left;spacingLeft=6;fontStyle=5;overflow=hidden;whiteSpace=wrap;html=1;" parent="ebknQcv6rec1tFLarQAg-17" vertex="1">
          <mxGeometry x="30" width="200" height="75" as="geometry">
            <mxRectangle width="200" height="75" as="alternateBounds" />
          </mxGeometry>
        </mxCell>
        <mxCell id="ebknQcv6rec1tFLarQAg-20" value="" style="shape=tableRow;horizontal=0;startSize=0;swimlaneHead=0;swimlaneBody=0;fillColor=none;collapsible=0;dropTarget=0;points=[[0,0.5],[1,0.5]];portConstraint=eastwest;top=0;left=0;right=0;bottom=0;" parent="ebknQcv6rec1tFLarQAg-16" vertex="1">
          <mxGeometry y="105" width="230" height="162" as="geometry" />
        </mxCell>
        <mxCell id="ebknQcv6rec1tFLarQAg-21" value="" style="shape=partialRectangle;connectable=0;fillColor=none;top=0;left=0;bottom=0;right=0;editable=1;overflow=hidden;whiteSpace=wrap;html=1;" parent="ebknQcv6rec1tFLarQAg-20" vertex="1">
          <mxGeometry width="30" height="162" as="geometry">
            <mxRectangle width="30" height="162" as="alternateBounds" />
          </mxGeometry>
        </mxCell>
        <mxCell id="ebknQcv6rec1tFLarQAg-22" value="&lt;div style=&quot;text-align: justify;&quot;&gt;change: int&lt;/div&gt;&lt;div style=&quot;text-align: justify;&quot;&gt;&lt;br&gt;&lt;/div&gt;&lt;div style=&quot;text-align: justify;&quot;&gt;reason: varchar(255)&lt;/div&gt;&lt;div style=&quot;text-align: justify;&quot;&gt;&lt;br&gt;&lt;/div&gt;&lt;div style=&quot;text-align: justify;&quot;&gt;created_at: timestamp&lt;/div&gt;&lt;div style=&quot;text-align: justify;&quot;&gt;&lt;br&gt;&lt;/div&gt;&lt;div style=&quot;text-align: justify;&quot;&gt;&lt;div&gt;active: bit not null default 1&lt;/div&gt;&lt;div&gt;&lt;br&gt;&lt;/div&gt;&lt;div&gt;deleted: bit not null default 0&lt;/div&gt;&lt;/div&gt;" style="shape=partialRectangle;connectable=0;fillColor=none;top=0;left=0;bottom=0;right=0;align=left;spacingLeft=6;overflow=hidden;whiteSpace=wrap;html=1;" parent="ebknQcv6rec1tFLarQAg-20" vertex="1">
          <mxGeometry x="30" width="200" height="162" as="geometry">
            <mxRectangle width="200" height="162" as="alternateBounds" />
          </mxGeometry>
        </mxCell>
        <mxCell id="ebknQcv6rec1tFLarQAg-23" style="edgeStyle=orthogonalEdgeStyle;rounded=0;orthogonalLoop=1;jettySize=auto;html=1;entryX=0;entryY=0.5;entryDx=0;entryDy=0;curved=1;endArrow=ERoneToMany;endFill=0;startArrow=ERone;startFill=0;" parent="1" source="i_u9Ulbk1Ha4xllaxans-323" target="i_u9Ulbk1Ha4xllaxans-155" edge="1">
          <mxGeometry relative="1" as="geometry" />
        </mxCell>
        <mxCell id="ebknQcv6rec1tFLarQAg-27" value="Carts" style="shape=table;startSize=30;container=1;collapsible=1;childLayout=tableLayout;fixedRows=1;rowLines=0;fontStyle=1;align=center;resizeLast=1;html=1;fillColor=#a20025;fontColor=#ffffff;strokeColor=#6F0000;" parent="1" vertex="1">
          <mxGeometry x="698" y="603" width="230" height="206.49299719887952" as="geometry" />
        </mxCell>
        <mxCell id="ebknQcv6rec1tFLarQAg-28" value="" style="shape=tableRow;horizontal=0;startSize=0;swimlaneHead=0;swimlaneBody=0;fillColor=none;collapsible=0;dropTarget=0;points=[[0,0.5],[1,0.5]];portConstraint=eastwest;top=0;left=0;right=0;bottom=1;" parent="ebknQcv6rec1tFLarQAg-27" vertex="1">
          <mxGeometry y="30" width="230" height="75" as="geometry" />
        </mxCell>
        <mxCell id="ebknQcv6rec1tFLarQAg-29" value="PK&lt;br&gt;&lt;br&gt;FK" style="shape=partialRectangle;connectable=0;fillColor=none;top=0;left=0;bottom=0;right=0;fontStyle=1;overflow=hidden;whiteSpace=wrap;html=1;" parent="ebknQcv6rec1tFLarQAg-28" vertex="1">
          <mxGeometry width="30" height="75" as="geometry">
            <mxRectangle width="30" height="75" as="alternateBounds" />
          </mxGeometry>
        </mxCell>
        <mxCell id="ebknQcv6rec1tFLarQAg-30" value="id: int auto_increment&lt;br&gt;&lt;br&gt;user_id: int not null&lt;br&gt;" style="shape=partialRectangle;connectable=0;fillColor=none;top=0;left=0;bottom=0;right=0;align=left;spacingLeft=6;fontStyle=5;overflow=hidden;whiteSpace=wrap;html=1;" parent="ebknQcv6rec1tFLarQAg-28" vertex="1">
          <mxGeometry x="30" width="200" height="75" as="geometry">
            <mxRectangle width="200" height="75" as="alternateBounds" />
          </mxGeometry>
        </mxCell>
        <mxCell id="ebknQcv6rec1tFLarQAg-31" value="" style="shape=tableRow;horizontal=0;startSize=0;swimlaneHead=0;swimlaneBody=0;fillColor=none;collapsible=0;dropTarget=0;points=[[0,0.5],[1,0.5]];portConstraint=eastwest;top=0;left=0;right=0;bottom=0;" parent="ebknQcv6rec1tFLarQAg-27" vertex="1">
          <mxGeometry y="105" width="230" height="100" as="geometry" />
        </mxCell>
        <mxCell id="ebknQcv6rec1tFLarQAg-32" value="" style="shape=partialRectangle;connectable=0;fillColor=none;top=0;left=0;bottom=0;right=0;editable=1;overflow=hidden;whiteSpace=wrap;html=1;" parent="ebknQcv6rec1tFLarQAg-31" vertex="1">
          <mxGeometry width="30" height="100" as="geometry">
            <mxRectangle width="30" height="100" as="alternateBounds" />
          </mxGeometry>
        </mxCell>
        <mxCell id="ebknQcv6rec1tFLarQAg-33" value="&lt;div style=&quot;text-align: justify;&quot;&gt;&lt;span style=&quot;background-color: initial;&quot;&gt;created_at: timestamp&lt;/span&gt;&lt;br&gt;&lt;/div&gt;&lt;div style=&quot;text-align: justify;&quot;&gt;&lt;br&gt;&lt;/div&gt;&lt;div style=&quot;text-align: justify;&quot;&gt;&lt;div&gt;active: bit not null default 1&lt;/div&gt;&lt;div&gt;&lt;br&gt;&lt;/div&gt;&lt;div&gt;deleted: bit not null default 0&lt;/div&gt;&lt;/div&gt;" style="shape=partialRectangle;connectable=0;fillColor=none;top=0;left=0;bottom=0;right=0;align=left;spacingLeft=6;overflow=hidden;whiteSpace=wrap;html=1;" parent="ebknQcv6rec1tFLarQAg-31" vertex="1">
          <mxGeometry x="30" width="200" height="100" as="geometry">
            <mxRectangle width="200" height="100" as="alternateBounds" />
          </mxGeometry>
        </mxCell>
        <mxCell id="ebknQcv6rec1tFLarQAg-34" value="CartsItems" style="shape=table;startSize=30;container=1;collapsible=1;childLayout=tableLayout;fixedRows=1;rowLines=0;fontStyle=1;align=center;resizeLast=1;html=1;fillColor=#a20025;fontColor=#ffffff;strokeColor=#6F0000;" parent="1" vertex="1">
          <mxGeometry x="1045" y="563.17" width="230" height="260.0812324929973" as="geometry" />
        </mxCell>
        <mxCell id="ebknQcv6rec1tFLarQAg-35" value="" style="shape=tableRow;horizontal=0;startSize=0;swimlaneHead=0;swimlaneBody=0;fillColor=none;collapsible=0;dropTarget=0;points=[[0,0.5],[1,0.5]];portConstraint=eastwest;top=0;left=0;right=0;bottom=1;" parent="ebknQcv6rec1tFLarQAg-34" vertex="1">
          <mxGeometry y="30" width="230" height="102" as="geometry" />
        </mxCell>
        <mxCell id="ebknQcv6rec1tFLarQAg-36" value="PK&lt;br&gt;&lt;br&gt;FK&lt;br&gt;&lt;br&gt;FK" style="shape=partialRectangle;connectable=0;fillColor=none;top=0;left=0;bottom=0;right=0;fontStyle=1;overflow=hidden;whiteSpace=wrap;html=1;" parent="ebknQcv6rec1tFLarQAg-35" vertex="1">
          <mxGeometry width="30" height="102" as="geometry">
            <mxRectangle width="30" height="102" as="alternateBounds" />
          </mxGeometry>
        </mxCell>
        <mxCell id="ebknQcv6rec1tFLarQAg-37" value="id: int auto_increment&lt;br&gt;&lt;br&gt;cart_id: int not null&lt;br&gt;&lt;br&gt;product_id: int not null" style="shape=partialRectangle;connectable=0;fillColor=none;top=0;left=0;bottom=0;right=0;align=left;spacingLeft=6;fontStyle=5;overflow=hidden;whiteSpace=wrap;html=1;" parent="ebknQcv6rec1tFLarQAg-35" vertex="1">
          <mxGeometry x="30" width="200" height="102" as="geometry">
            <mxRectangle width="200" height="102" as="alternateBounds" />
          </mxGeometry>
        </mxCell>
        <mxCell id="ebknQcv6rec1tFLarQAg-38" value="" style="shape=tableRow;horizontal=0;startSize=0;swimlaneHead=0;swimlaneBody=0;fillColor=none;collapsible=0;dropTarget=0;points=[[0,0.5],[1,0.5]];portConstraint=eastwest;top=0;left=0;right=0;bottom=0;" parent="ebknQcv6rec1tFLarQAg-34" vertex="1">
          <mxGeometry y="132" width="230" height="127" as="geometry" />
        </mxCell>
        <mxCell id="ebknQcv6rec1tFLarQAg-39" value="" style="shape=partialRectangle;connectable=0;fillColor=none;top=0;left=0;bottom=0;right=0;editable=1;overflow=hidden;whiteSpace=wrap;html=1;" parent="ebknQcv6rec1tFLarQAg-38" vertex="1">
          <mxGeometry width="30" height="127" as="geometry">
            <mxRectangle width="30" height="127" as="alternateBounds" />
          </mxGeometry>
        </mxCell>
        <mxCell id="ebknQcv6rec1tFLarQAg-40" value="&lt;div style=&quot;text-align: justify;&quot;&gt;quantity: unsigned int default=1&lt;/div&gt;&lt;div style=&quot;text-align: justify;&quot;&gt;&lt;br&gt;&lt;/div&gt;&lt;div style=&quot;text-align: justify;&quot;&gt;added_at: timestamp&lt;/div&gt;&lt;div style=&quot;text-align: justify;&quot;&gt;&lt;br&gt;&lt;/div&gt;&lt;div style=&quot;text-align: justify;&quot;&gt;&lt;div&gt;active: bit not null default 1&lt;/div&gt;&lt;div&gt;&lt;br&gt;&lt;/div&gt;&lt;div&gt;deleted: bit not null default 0&lt;/div&gt;&lt;/div&gt;" style="shape=partialRectangle;connectable=0;fillColor=none;top=0;left=0;bottom=0;right=0;align=left;spacingLeft=6;overflow=hidden;whiteSpace=wrap;html=1;" parent="ebknQcv6rec1tFLarQAg-38" vertex="1">
          <mxGeometry x="30" width="200" height="127" as="geometry">
            <mxRectangle width="200" height="127" as="alternateBounds" />
          </mxGeometry>
        </mxCell>
        <mxCell id="ebknQcv6rec1tFLarQAg-81" style="edgeStyle=orthogonalEdgeStyle;rounded=0;orthogonalLoop=1;jettySize=auto;html=1;curved=1;startArrow=ERone;startFill=0;endArrow=ERone;endFill=0;" parent="1" source="ebknQcv6rec1tFLarQAg-41" target="ebknQcv6rec1tFLarQAg-34" edge="1">
          <mxGeometry relative="1" as="geometry" />
        </mxCell>
        <mxCell id="ebknQcv6rec1tFLarQAg-41" value="CheckoutSessions" style="shape=table;startSize=30;container=1;collapsible=1;childLayout=tableLayout;fixedRows=1;rowLines=0;fontStyle=1;align=center;resizeLast=1;html=1;fillColor=#a20025;fontColor=#ffffff;strokeColor=#6F0000;" parent="1" vertex="1">
          <mxGeometry x="1337" y="454" width="258" height="263.8723529411766" as="geometry" />
        </mxCell>
        <mxCell id="ebknQcv6rec1tFLarQAg-42" value="" style="shape=tableRow;horizontal=0;startSize=0;swimlaneHead=0;swimlaneBody=0;fillColor=none;collapsible=0;dropTarget=0;points=[[0,0.5],[1,0.5]];portConstraint=eastwest;top=0;left=0;right=0;bottom=1;" parent="ebknQcv6rec1tFLarQAg-41" vertex="1">
          <mxGeometry y="30" width="258" height="75" as="geometry" />
        </mxCell>
        <mxCell id="ebknQcv6rec1tFLarQAg-43" value="PK&lt;br&gt;&lt;br&gt;FK" style="shape=partialRectangle;connectable=0;fillColor=none;top=0;left=0;bottom=0;right=0;fontStyle=1;overflow=hidden;whiteSpace=wrap;html=1;" parent="ebknQcv6rec1tFLarQAg-42" vertex="1">
          <mxGeometry width="30" height="75" as="geometry">
            <mxRectangle width="30" height="75" as="alternateBounds" />
          </mxGeometry>
        </mxCell>
        <mxCell id="ebknQcv6rec1tFLarQAg-44" value="id: int auto_increment&lt;br&gt;&lt;br&gt;cart_id: int not null" style="shape=partialRectangle;connectable=0;fillColor=none;top=0;left=0;bottom=0;right=0;align=left;spacingLeft=6;fontStyle=5;overflow=hidden;whiteSpace=wrap;html=1;" parent="ebknQcv6rec1tFLarQAg-42" vertex="1">
          <mxGeometry x="30" width="228" height="75" as="geometry">
            <mxRectangle width="228" height="75" as="alternateBounds" />
          </mxGeometry>
        </mxCell>
        <mxCell id="ebknQcv6rec1tFLarQAg-45" value="" style="shape=tableRow;horizontal=0;startSize=0;swimlaneHead=0;swimlaneBody=0;fillColor=none;collapsible=0;dropTarget=0;points=[[0,0.5],[1,0.5]];portConstraint=eastwest;top=0;left=0;right=0;bottom=0;" parent="ebknQcv6rec1tFLarQAg-41" vertex="1">
          <mxGeometry y="105" width="258" height="157" as="geometry" />
        </mxCell>
        <mxCell id="ebknQcv6rec1tFLarQAg-46" value="" style="shape=partialRectangle;connectable=0;fillColor=none;top=0;left=0;bottom=0;right=0;editable=1;overflow=hidden;whiteSpace=wrap;html=1;" parent="ebknQcv6rec1tFLarQAg-45" vertex="1">
          <mxGeometry width="30" height="157" as="geometry">
            <mxRectangle width="30" height="157" as="alternateBounds" />
          </mxGeometry>
        </mxCell>
        <mxCell id="ebknQcv6rec1tFLarQAg-47" value="&lt;div style=&quot;text-align: justify;&quot;&gt;&lt;span style=&quot;background-color: initial;&quot;&gt;stripe_session_id: varchar(255) unique&lt;/span&gt;&lt;br&gt;&lt;/div&gt;&lt;div style=&quot;text-align: justify;&quot;&gt;&lt;br&gt;&lt;/div&gt;&lt;div style=&quot;text-align: justify;&quot;&gt;&lt;div&gt;created_at: timestamp&lt;/div&gt;&lt;div&gt;&lt;br&gt;&lt;/div&gt;&lt;div&gt;completed: boolean (default=false)&lt;/div&gt;&lt;div&gt;&lt;br&gt;&lt;/div&gt;&lt;div&gt;active: bit not null default 1&lt;/div&gt;&lt;div&gt;&lt;br&gt;&lt;/div&gt;&lt;div&gt;deleted: bit not null default 0&lt;/div&gt;&lt;/div&gt;" style="shape=partialRectangle;connectable=0;fillColor=none;top=0;left=0;bottom=0;right=0;align=left;spacingLeft=6;overflow=hidden;whiteSpace=wrap;html=1;" parent="ebknQcv6rec1tFLarQAg-45" vertex="1">
          <mxGeometry x="30" width="228" height="157" as="geometry">
            <mxRectangle width="228" height="157" as="alternateBounds" />
          </mxGeometry>
        </mxCell>
        <mxCell id="ebknQcv6rec1tFLarQAg-48" value="CheckoutLogs" style="shape=table;startSize=30;container=1;collapsible=1;childLayout=tableLayout;fixedRows=1;rowLines=0;fontStyle=1;align=center;resizeLast=1;html=1;fillColor=#a20025;fontColor=#ffffff;strokeColor=#6F0000;" parent="1" vertex="1">
          <mxGeometry x="1054" y="1190" width="258" height="235.63705882352951" as="geometry" />
        </mxCell>
        <mxCell id="ebknQcv6rec1tFLarQAg-49" value="" style="shape=tableRow;horizontal=0;startSize=0;swimlaneHead=0;swimlaneBody=0;fillColor=none;collapsible=0;dropTarget=0;points=[[0,0.5],[1,0.5]];portConstraint=eastwest;top=0;left=0;right=0;bottom=1;" parent="ebknQcv6rec1tFLarQAg-48" vertex="1">
          <mxGeometry y="30" width="258" height="47" as="geometry" />
        </mxCell>
        <mxCell id="ebknQcv6rec1tFLarQAg-50" value="PK" style="shape=partialRectangle;connectable=0;fillColor=none;top=0;left=0;bottom=0;right=0;fontStyle=1;overflow=hidden;whiteSpace=wrap;html=1;" parent="ebknQcv6rec1tFLarQAg-49" vertex="1">
          <mxGeometry width="30" height="47" as="geometry">
            <mxRectangle width="30" height="47" as="alternateBounds" />
          </mxGeometry>
        </mxCell>
        <mxCell id="ebknQcv6rec1tFLarQAg-51" value="id: int auto_increment" style="shape=partialRectangle;connectable=0;fillColor=none;top=0;left=0;bottom=0;right=0;align=left;spacingLeft=6;fontStyle=5;overflow=hidden;whiteSpace=wrap;html=1;" parent="ebknQcv6rec1tFLarQAg-49" vertex="1">
          <mxGeometry x="30" width="228" height="47" as="geometry">
            <mxRectangle width="228" height="47" as="alternateBounds" />
          </mxGeometry>
        </mxCell>
        <mxCell id="ebknQcv6rec1tFLarQAg-52" value="" style="shape=tableRow;horizontal=0;startSize=0;swimlaneHead=0;swimlaneBody=0;fillColor=none;collapsible=0;dropTarget=0;points=[[0,0.5],[1,0.5]];portConstraint=eastwest;top=0;left=0;right=0;bottom=0;" parent="ebknQcv6rec1tFLarQAg-48" vertex="1">
          <mxGeometry y="77" width="258" height="157" as="geometry" />
        </mxCell>
        <mxCell id="ebknQcv6rec1tFLarQAg-53" value="" style="shape=partialRectangle;connectable=0;fillColor=none;top=0;left=0;bottom=0;right=0;editable=1;overflow=hidden;whiteSpace=wrap;html=1;" parent="ebknQcv6rec1tFLarQAg-52" vertex="1">
          <mxGeometry width="30" height="157" as="geometry">
            <mxRectangle width="30" height="157" as="alternateBounds" />
          </mxGeometry>
        </mxCell>
        <mxCell id="ebknQcv6rec1tFLarQAg-54" value="&lt;div style=&quot;text-align: justify;&quot;&gt;&lt;span style=&quot;background-color: initial;&quot;&gt;stripe_event_id: varchar(255) unique&lt;/span&gt;&lt;br&gt;&lt;/div&gt;&lt;div style=&quot;text-align: justify;&quot;&gt;&lt;br&gt;&lt;/div&gt;&lt;div style=&quot;text-align: justify;&quot;&gt;&lt;div&gt;payload: text&lt;/div&gt;&lt;div&gt;&lt;br&gt;&lt;/div&gt;&lt;div&gt;received_at: timestamp&lt;/div&gt;&lt;div&gt;&lt;br&gt;&lt;/div&gt;&lt;div&gt;active: bit not null default 1&lt;/div&gt;&lt;div&gt;&lt;br&gt;&lt;/div&gt;&lt;div&gt;deleted: bit not null default 0&lt;/div&gt;&lt;/div&gt;" style="shape=partialRectangle;connectable=0;fillColor=none;top=0;left=0;bottom=0;right=0;align=left;spacingLeft=6;overflow=hidden;whiteSpace=wrap;html=1;" parent="ebknQcv6rec1tFLarQAg-52" vertex="1">
          <mxGeometry x="30" width="228" height="157" as="geometry">
            <mxRectangle width="228" height="157" as="alternateBounds" />
          </mxGeometry>
        </mxCell>
        <mxCell id="ebknQcv6rec1tFLarQAg-55" value="Purchases" style="shape=table;startSize=30;container=1;collapsible=1;childLayout=tableLayout;fixedRows=1;rowLines=0;fontStyle=1;align=center;resizeLast=1;html=1;fillColor=#a20025;fontColor=#ffffff;strokeColor=#6F0000;" parent="1" vertex="1">
          <mxGeometry x="724" y="864" width="230" height="246.0224089635856" as="geometry" />
        </mxCell>
        <mxCell id="ebknQcv6rec1tFLarQAg-56" value="" style="shape=tableRow;horizontal=0;startSize=0;swimlaneHead=0;swimlaneBody=0;fillColor=none;collapsible=0;dropTarget=0;points=[[0,0.5],[1,0.5]];portConstraint=eastwest;top=0;left=0;right=0;bottom=1;" parent="ebknQcv6rec1tFLarQAg-55" vertex="1">
          <mxGeometry y="30" width="230" height="75" as="geometry" />
        </mxCell>
        <mxCell id="ebknQcv6rec1tFLarQAg-57" value="PK&lt;br&gt;&lt;br&gt;FK" style="shape=partialRectangle;connectable=0;fillColor=none;top=0;left=0;bottom=0;right=0;fontStyle=1;overflow=hidden;whiteSpace=wrap;html=1;" parent="ebknQcv6rec1tFLarQAg-56" vertex="1">
          <mxGeometry width="30" height="75" as="geometry">
            <mxRectangle width="30" height="75" as="alternateBounds" />
          </mxGeometry>
        </mxCell>
        <mxCell id="ebknQcv6rec1tFLarQAg-58" value="id: int auto_increment&lt;br&gt;&lt;br&gt;user_id: int not null&lt;br&gt;" style="shape=partialRectangle;connectable=0;fillColor=none;top=0;left=0;bottom=0;right=0;align=left;spacingLeft=6;fontStyle=5;overflow=hidden;whiteSpace=wrap;html=1;" parent="ebknQcv6rec1tFLarQAg-56" vertex="1">
          <mxGeometry x="30" width="200" height="75" as="geometry">
            <mxRectangle width="200" height="75" as="alternateBounds" />
          </mxGeometry>
        </mxCell>
        <mxCell id="ebknQcv6rec1tFLarQAg-59" value="" style="shape=tableRow;horizontal=0;startSize=0;swimlaneHead=0;swimlaneBody=0;fillColor=none;collapsible=0;dropTarget=0;points=[[0,0.5],[1,0.5]];portConstraint=eastwest;top=0;left=0;right=0;bottom=0;" parent="ebknQcv6rec1tFLarQAg-55" vertex="1">
          <mxGeometry y="105" width="230" height="140" as="geometry" />
        </mxCell>
        <mxCell id="ebknQcv6rec1tFLarQAg-60" value="" style="shape=partialRectangle;connectable=0;fillColor=none;top=0;left=0;bottom=0;right=0;editable=1;overflow=hidden;whiteSpace=wrap;html=1;" parent="ebknQcv6rec1tFLarQAg-59" vertex="1">
          <mxGeometry width="30" height="140" as="geometry">
            <mxRectangle width="30" height="140" as="alternateBounds" />
          </mxGeometry>
        </mxCell>
        <mxCell id="ebknQcv6rec1tFLarQAg-61" value="&lt;div style=&quot;text-align: justify;&quot;&gt;&lt;span style=&quot;background-color: initial;&quot;&gt;created_at: timestamp&lt;/span&gt;&lt;br&gt;&lt;/div&gt;&lt;div style=&quot;text-align: justify;&quot;&gt;&lt;br&gt;&lt;/div&gt;&lt;div style=&quot;text-align: justify;&quot;&gt;total_cents: unsignet int&lt;/div&gt;&lt;div style=&quot;text-align: justify;&quot;&gt;&lt;br&gt;&lt;/div&gt;&lt;div style=&quot;text-align: justify;&quot;&gt;completed: boolean (default=true)&lt;/div&gt;&lt;div style=&quot;text-align: justify;&quot;&gt;&lt;br&gt;&lt;/div&gt;&lt;div style=&quot;text-align: justify;&quot;&gt;&lt;div&gt;active: bit not null default 1&lt;/div&gt;&lt;div&gt;&lt;br&gt;&lt;/div&gt;&lt;div&gt;deleted: bit not null default 0&lt;/div&gt;&lt;/div&gt;" style="shape=partialRectangle;connectable=0;fillColor=none;top=0;left=0;bottom=0;right=0;align=left;spacingLeft=6;overflow=hidden;whiteSpace=wrap;html=1;" parent="ebknQcv6rec1tFLarQAg-59" vertex="1">
          <mxGeometry x="30" width="200" height="140" as="geometry">
            <mxRectangle width="200" height="140" as="alternateBounds" />
          </mxGeometry>
        </mxCell>
        <mxCell id="ebknQcv6rec1tFLarQAg-62" value="PurchaseItems" style="shape=table;startSize=30;container=1;collapsible=1;childLayout=tableLayout;fixedRows=1;rowLines=0;fontStyle=1;align=center;resizeLast=1;html=1;fillColor=#a20025;fontColor=#ffffff;strokeColor=#6F0000;" parent="1" vertex="1">
          <mxGeometry x="1051" y="864" width="230" height="260.0812324929973" as="geometry" />
        </mxCell>
        <mxCell id="ebknQcv6rec1tFLarQAg-63" value="" style="shape=tableRow;horizontal=0;startSize=0;swimlaneHead=0;swimlaneBody=0;fillColor=none;collapsible=0;dropTarget=0;points=[[0,0.5],[1,0.5]];portConstraint=eastwest;top=0;left=0;right=0;bottom=1;" parent="ebknQcv6rec1tFLarQAg-62" vertex="1">
          <mxGeometry y="30" width="230" height="102" as="geometry" />
        </mxCell>
        <mxCell id="ebknQcv6rec1tFLarQAg-64" value="PK&lt;br&gt;&lt;br&gt;FK&lt;br&gt;&lt;br&gt;FK" style="shape=partialRectangle;connectable=0;fillColor=none;top=0;left=0;bottom=0;right=0;fontStyle=1;overflow=hidden;whiteSpace=wrap;html=1;" parent="ebknQcv6rec1tFLarQAg-63" vertex="1">
          <mxGeometry width="30" height="102" as="geometry">
            <mxRectangle width="30" height="102" as="alternateBounds" />
          </mxGeometry>
        </mxCell>
        <mxCell id="ebknQcv6rec1tFLarQAg-65" value="id: int auto_increment&lt;br&gt;&lt;br&gt;purchase_id: int not null&lt;br&gt;&lt;br&gt;product_id: int not null" style="shape=partialRectangle;connectable=0;fillColor=none;top=0;left=0;bottom=0;right=0;align=left;spacingLeft=6;fontStyle=5;overflow=hidden;whiteSpace=wrap;html=1;" parent="ebknQcv6rec1tFLarQAg-63" vertex="1">
          <mxGeometry x="30" width="200" height="102" as="geometry">
            <mxRectangle width="200" height="102" as="alternateBounds" />
          </mxGeometry>
        </mxCell>
        <mxCell id="ebknQcv6rec1tFLarQAg-66" value="" style="shape=tableRow;horizontal=0;startSize=0;swimlaneHead=0;swimlaneBody=0;fillColor=none;collapsible=0;dropTarget=0;points=[[0,0.5],[1,0.5]];portConstraint=eastwest;top=0;left=0;right=0;bottom=0;" parent="ebknQcv6rec1tFLarQAg-62" vertex="1">
          <mxGeometry y="132" width="230" height="127" as="geometry" />
        </mxCell>
        <mxCell id="ebknQcv6rec1tFLarQAg-67" value="" style="shape=partialRectangle;connectable=0;fillColor=none;top=0;left=0;bottom=0;right=0;editable=1;overflow=hidden;whiteSpace=wrap;html=1;" parent="ebknQcv6rec1tFLarQAg-66" vertex="1">
          <mxGeometry width="30" height="127" as="geometry">
            <mxRectangle width="30" height="127" as="alternateBounds" />
          </mxGeometry>
        </mxCell>
        <mxCell id="ebknQcv6rec1tFLarQAg-68" value="&lt;div style=&quot;text-align: justify;&quot;&gt;price_cents: unsigned int&lt;/div&gt;&lt;div style=&quot;text-align: justify;&quot;&gt;&lt;br&gt;&lt;/div&gt;&lt;div style=&quot;text-align: justify;&quot;&gt;&lt;div&gt;active: bit not null default 1&lt;/div&gt;&lt;div&gt;&lt;br&gt;&lt;/div&gt;&lt;div&gt;deleted: bit not null default 0&lt;/div&gt;&lt;/div&gt;" style="shape=partialRectangle;connectable=0;fillColor=none;top=0;left=0;bottom=0;right=0;align=left;spacingLeft=6;overflow=hidden;whiteSpace=wrap;html=1;" parent="ebknQcv6rec1tFLarQAg-66" vertex="1">
          <mxGeometry x="30" width="200" height="127" as="geometry">
            <mxRectangle width="200" height="127" as="alternateBounds" />
          </mxGeometry>
        </mxCell>
        <mxCell id="ebknQcv6rec1tFLarQAg-84" style="edgeStyle=orthogonalEdgeStyle;rounded=0;orthogonalLoop=1;jettySize=auto;html=1;entryX=0.5;entryY=1;entryDx=0;entryDy=0;curved=1;endArrow=ERone;endFill=0;startArrow=ERone;startFill=0;" parent="1" source="ebknQcv6rec1tFLarQAg-69" target="ebknQcv6rec1tFLarQAg-55" edge="1">
          <mxGeometry relative="1" as="geometry" />
        </mxCell>
        <mxCell id="ebknQcv6rec1tFLarQAg-69" value="Payments" style="shape=table;startSize=30;container=1;collapsible=1;childLayout=tableLayout;fixedRows=1;rowLines=0;fontStyle=1;align=center;resizeLast=1;html=1;fillColor=#a20025;fontColor=#ffffff;strokeColor=#6F0000;" parent="1" vertex="1">
          <mxGeometry x="734" y="1199" width="257.82352941176464" height="276.43417366946824" as="geometry" />
        </mxCell>
        <mxCell id="ebknQcv6rec1tFLarQAg-70" value="" style="shape=tableRow;horizontal=0;startSize=0;swimlaneHead=0;swimlaneBody=0;fillColor=none;collapsible=0;dropTarget=0;points=[[0,0.5],[1,0.5]];portConstraint=eastwest;top=0;left=0;right=0;bottom=1;" parent="ebknQcv6rec1tFLarQAg-69" vertex="1">
          <mxGeometry y="30" width="257.82352941176464" height="70" as="geometry" />
        </mxCell>
        <mxCell id="ebknQcv6rec1tFLarQAg-71" value="PK&lt;br&gt;&lt;br&gt;FK" style="shape=partialRectangle;connectable=0;fillColor=none;top=0;left=0;bottom=0;right=0;fontStyle=1;overflow=hidden;whiteSpace=wrap;html=1;" parent="ebknQcv6rec1tFLarQAg-70" vertex="1">
          <mxGeometry width="30" height="70" as="geometry">
            <mxRectangle width="30" height="70" as="alternateBounds" />
          </mxGeometry>
        </mxCell>
        <mxCell id="ebknQcv6rec1tFLarQAg-72" value="id: int auto_increment&lt;br&gt;&lt;br&gt;purchase_id: int not null" style="shape=partialRectangle;connectable=0;fillColor=none;top=0;left=0;bottom=0;right=0;align=left;spacingLeft=6;fontStyle=5;overflow=hidden;whiteSpace=wrap;html=1;" parent="ebknQcv6rec1tFLarQAg-70" vertex="1">
          <mxGeometry x="30" width="227.82352941176464" height="70" as="geometry">
            <mxRectangle width="227.82352941176464" height="70" as="alternateBounds" />
          </mxGeometry>
        </mxCell>
        <mxCell id="ebknQcv6rec1tFLarQAg-73" value="" style="shape=tableRow;horizontal=0;startSize=0;swimlaneHead=0;swimlaneBody=0;fillColor=none;collapsible=0;dropTarget=0;points=[[0,0.5],[1,0.5]];portConstraint=eastwest;top=0;left=0;right=0;bottom=0;" parent="ebknQcv6rec1tFLarQAg-69" vertex="1">
          <mxGeometry y="100" width="257.82352941176464" height="175" as="geometry" />
        </mxCell>
        <mxCell id="ebknQcv6rec1tFLarQAg-74" value="" style="shape=partialRectangle;connectable=0;fillColor=none;top=0;left=0;bottom=0;right=0;editable=1;overflow=hidden;whiteSpace=wrap;html=1;" parent="ebknQcv6rec1tFLarQAg-73" vertex="1">
          <mxGeometry width="30" height="175" as="geometry">
            <mxRectangle width="30" height="175" as="alternateBounds" />
          </mxGeometry>
        </mxCell>
        <mxCell id="ebknQcv6rec1tFLarQAg-75" value="&lt;div style=&quot;text-align: justify;&quot;&gt;stripe_session_id: varchar(255) unique&lt;/div&gt;&lt;div style=&quot;text-align: justify;&quot;&gt;&lt;br&gt;&lt;/div&gt;&lt;div style=&quot;text-align: justify;&quot;&gt;currency: varchar(10)&lt;/div&gt;&lt;div style=&quot;text-align: justify;&quot;&gt;&lt;br&gt;&lt;/div&gt;&lt;div style=&quot;text-align: justify;&quot;&gt;status: varchar(50)&lt;/div&gt;&lt;div style=&quot;text-align: justify;&quot;&gt;&lt;br&gt;&lt;/div&gt;&lt;div style=&quot;text-align: justify;&quot;&gt;amount_cents: unsigned int&lt;/div&gt;&lt;div style=&quot;text-align: justify;&quot;&gt;&lt;br&gt;&lt;/div&gt;&lt;div style=&quot;text-align: justify;&quot;&gt;&lt;div&gt;active: bit not null default 1&lt;/div&gt;&lt;div&gt;&lt;br&gt;&lt;/div&gt;&lt;div&gt;deleted: bit not null default 0&lt;/div&gt;&lt;/div&gt;" style="shape=partialRectangle;connectable=0;fillColor=none;top=0;left=0;bottom=0;right=0;align=left;spacingLeft=6;overflow=hidden;whiteSpace=wrap;html=1;" parent="ebknQcv6rec1tFLarQAg-73" vertex="1">
          <mxGeometry x="30" width="227.82352941176464" height="175" as="geometry">
            <mxRectangle width="227.82352941176464" height="175" as="alternateBounds" />
          </mxGeometry>
        </mxCell>
        <mxCell id="ebknQcv6rec1tFLarQAg-76" style="edgeStyle=orthogonalEdgeStyle;rounded=0;orthogonalLoop=1;jettySize=auto;html=1;entryX=1.019;entryY=0.96;entryDx=0;entryDy=0;entryPerimeter=0;curved=1;endArrow=ERone;endFill=0;startArrow=ERoneToMany;startFill=0;" parent="1" source="ebknQcv6rec1tFLarQAg-27" target="i_u9Ulbk1Ha4xllaxans-139" edge="1">
          <mxGeometry relative="1" as="geometry" />
        </mxCell>
        <mxCell id="ebknQcv6rec1tFLarQAg-78" style="edgeStyle=orthogonalEdgeStyle;rounded=0;orthogonalLoop=1;jettySize=auto;html=1;entryX=1.004;entryY=1.024;entryDx=0;entryDy=0;entryPerimeter=0;curved=1;exitX=0;exitY=0.5;exitDx=0;exitDy=0;endArrow=ERone;endFill=0;startArrow=ERoneToMany;startFill=0;" parent="1" source="ebknQcv6rec1tFLarQAg-56" edge="1">
          <mxGeometry relative="1" as="geometry">
            <mxPoint x="974.96" y="893" as="sourcePoint" />
            <mxPoint x="424.99999999999994" y="555.0079999999998" as="targetPoint" />
            <Array as="points">
              <mxPoint x="724" y="821" />
              <mxPoint x="580" y="821" />
              <mxPoint x="580" y="555" />
            </Array>
          </mxGeometry>
        </mxCell>
        <mxCell id="ebknQcv6rec1tFLarQAg-79" style="edgeStyle=orthogonalEdgeStyle;rounded=0;orthogonalLoop=1;jettySize=auto;html=1;entryX=0;entryY=0.5;entryDx=0;entryDy=0;curved=1;endArrow=ERoneToMany;endFill=0;startArrow=ERoneToMany;startFill=0;" parent="1" source="ebknQcv6rec1tFLarQAg-59" target="ebknQcv6rec1tFLarQAg-62" edge="1">
          <mxGeometry relative="1" as="geometry" />
        </mxCell>
        <mxCell id="ebknQcv6rec1tFLarQAg-80" style="edgeStyle=orthogonalEdgeStyle;rounded=0;orthogonalLoop=1;jettySize=auto;html=1;entryX=0;entryY=0.5;entryDx=0;entryDy=0;curved=1;endArrow=ERone;endFill=0;startArrow=ERone;startFill=0;" parent="1" source="ebknQcv6rec1tFLarQAg-28" target="ebknQcv6rec1tFLarQAg-35" edge="1">
          <mxGeometry relative="1" as="geometry" />
        </mxCell>
        <mxCell id="ebknQcv6rec1tFLarQAg-82" style="edgeStyle=orthogonalEdgeStyle;rounded=0;orthogonalLoop=1;jettySize=auto;html=1;entryX=1;entryY=0.5;entryDx=0;entryDy=0;exitX=0;exitY=0.5;exitDx=0;exitDy=0;curved=1;startArrow=ERoneToMany;startFill=0;endArrow=ERoneToMany;endFill=0;" parent="1" source="ebknQcv6rec1tFLarQAg-3" target="ebknQcv6rec1tFLarQAg-38" edge="1">
          <mxGeometry relative="1" as="geometry" />
        </mxCell>
        <mxCell id="ebknQcv6rec1tFLarQAg-83" style="edgeStyle=orthogonalEdgeStyle;rounded=0;orthogonalLoop=1;jettySize=auto;html=1;entryX=1;entryY=0.5;entryDx=0;entryDy=0;curved=1;endArrow=ERoneToMany;endFill=0;startArrow=ERoneToMany;startFill=0;" parent="1" source="ebknQcv6rec1tFLarQAg-6" target="ebknQcv6rec1tFLarQAg-63" edge="1">
          <mxGeometry relative="1" as="geometry" />
        </mxCell>
        <mxCell id="ebknQcv6rec1tFLarQAg-85" value="ChatRooms" style="shape=table;startSize=24;container=1;collapsible=1;childLayout=tableLayout;fixedRows=1;rowLines=0;fontStyle=1;align=center;resizeLast=1;html=1;fillColor=#76608a;fontColor=#ffffff;strokeColor=#432D57;" parent="1" vertex="1">
          <mxGeometry x="952" y="-88.94" width="250.28" height="298" as="geometry" />
        </mxCell>
        <mxCell id="ebknQcv6rec1tFLarQAg-86" value="" style="shape=tableRow;horizontal=0;startSize=0;swimlaneHead=0;swimlaneBody=0;fillColor=none;collapsible=0;dropTarget=0;points=[[0,0.5],[1,0.5]];portConstraint=eastwest;top=0;left=0;right=0;bottom=1;" parent="ebknQcv6rec1tFLarQAg-85" vertex="1">
          <mxGeometry y="24" width="250.28" height="73" as="geometry" />
        </mxCell>
        <mxCell id="ebknQcv6rec1tFLarQAg-87" value="PK&lt;br&gt;&lt;br&gt;FK" style="shape=partialRectangle;connectable=0;fillColor=none;top=0;left=0;bottom=0;right=0;fontStyle=1;overflow=hidden;whiteSpace=wrap;html=1;" parent="ebknQcv6rec1tFLarQAg-86" vertex="1">
          <mxGeometry width="30" height="73" as="geometry">
            <mxRectangle width="30" height="73" as="alternateBounds" />
          </mxGeometry>
        </mxCell>
        <mxCell id="ebknQcv6rec1tFLarQAg-88" value="id: int auto_increment&lt;br&gt;&lt;br&gt;created_by: Users(id)" style="shape=partialRectangle;connectable=0;fillColor=none;top=0;left=0;bottom=0;right=0;align=left;spacingLeft=6;fontStyle=5;overflow=hidden;whiteSpace=wrap;html=1;" parent="ebknQcv6rec1tFLarQAg-86" vertex="1">
          <mxGeometry x="30" width="220.28" height="73" as="geometry">
            <mxRectangle width="220.28" height="73" as="alternateBounds" />
          </mxGeometry>
        </mxCell>
        <mxCell id="ebknQcv6rec1tFLarQAg-89" value="" style="shape=tableRow;horizontal=0;startSize=0;swimlaneHead=0;swimlaneBody=0;fillColor=none;collapsible=0;dropTarget=0;points=[[0,0.5],[1,0.5]];portConstraint=eastwest;top=0;left=0;right=0;bottom=0;" parent="ebknQcv6rec1tFLarQAg-85" vertex="1">
          <mxGeometry y="97" width="250.28" height="195" as="geometry" />
        </mxCell>
        <mxCell id="ebknQcv6rec1tFLarQAg-90" value="" style="shape=partialRectangle;connectable=0;fillColor=none;top=0;left=0;bottom=0;right=0;editable=1;overflow=hidden;whiteSpace=wrap;html=1;" parent="ebknQcv6rec1tFLarQAg-89" vertex="1">
          <mxGeometry width="30" height="195" as="geometry">
            <mxRectangle width="30" height="195" as="alternateBounds" />
          </mxGeometry>
        </mxCell>
        <mxCell id="ebknQcv6rec1tFLarQAg-91" value="&lt;div style=&quot;text-align: justify;&quot;&gt;&lt;div&gt;&amp;nbsp;name VARCHAR(100)&lt;/div&gt;&lt;div&gt;&lt;br&gt;&lt;/div&gt;&lt;div&gt;&amp;nbsp; &amp;nbsp; created_at DATETIME,&lt;/div&gt;&lt;div&gt;&lt;br&gt;&lt;/div&gt;&lt;div&gt;&amp;nbsp; &amp;nbsp; is_closed BOOLEAN,&lt;/div&gt;&lt;div&gt;&lt;br&gt;&lt;/div&gt;&lt;div&gt;&amp;nbsp; &amp;nbsp; closed_at DATETIME NULLABLE,&lt;/div&gt;&lt;div&gt;&lt;br&gt;&lt;/div&gt;&lt;div&gt;&amp;nbsp; &amp;nbsp; active BOOLEAN,&lt;/div&gt;&lt;div&gt;&lt;br&gt;&lt;/div&gt;&lt;div&gt;&amp;nbsp; &amp;nbsp; deleted BOOLEAN&lt;/div&gt;&lt;/div&gt;" style="shape=partialRectangle;connectable=0;fillColor=none;top=0;left=0;bottom=0;right=0;align=left;spacingLeft=6;overflow=hidden;whiteSpace=wrap;html=1;" parent="ebknQcv6rec1tFLarQAg-89" vertex="1">
          <mxGeometry x="30" width="220.28" height="195" as="geometry">
            <mxRectangle width="220.28" height="195" as="alternateBounds" />
          </mxGeometry>
        </mxCell>
        <mxCell id="ebknQcv6rec1tFLarQAg-92" value="ChatRoomMemberships" style="shape=table;startSize=30;container=1;collapsible=1;childLayout=tableLayout;fixedRows=1;rowLines=0;fontStyle=1;align=center;resizeLast=1;html=1;fillColor=#76608a;fontColor=#ffffff;strokeColor=#432D57;" parent="1" vertex="1">
          <mxGeometry x="930" y="-386.89" width="258.2777777777778" height="268.8888888888888" as="geometry" />
        </mxCell>
        <mxCell id="ebknQcv6rec1tFLarQAg-93" value="" style="shape=tableRow;horizontal=0;startSize=0;swimlaneHead=0;swimlaneBody=0;fillColor=none;collapsible=0;dropTarget=0;points=[[0,0.5],[1,0.5]];portConstraint=eastwest;top=0;left=0;right=0;bottom=1;" parent="ebknQcv6rec1tFLarQAg-92" vertex="1">
          <mxGeometry y="30" width="258.2777777777778" height="104" as="geometry" />
        </mxCell>
        <mxCell id="ebknQcv6rec1tFLarQAg-94" value="PK&lt;br&gt;&lt;br&gt;FK&lt;br&gt;&lt;br&gt;FK" style="shape=partialRectangle;connectable=0;fillColor=none;top=0;left=0;bottom=0;right=0;fontStyle=1;overflow=hidden;whiteSpace=wrap;html=1;" parent="ebknQcv6rec1tFLarQAg-93" vertex="1">
          <mxGeometry width="30" height="104" as="geometry">
            <mxRectangle width="30" height="104" as="alternateBounds" />
          </mxGeometry>
        </mxCell>
        <mxCell id="ebknQcv6rec1tFLarQAg-95" value="id: int auto_increment&lt;br&gt;&lt;br&gt;room_id: ChatRooms(id)&lt;br&gt;&lt;br&gt;user_id: Users(id)" style="shape=partialRectangle;connectable=0;fillColor=none;top=0;left=0;bottom=0;right=0;align=left;spacingLeft=6;fontStyle=5;overflow=hidden;whiteSpace=wrap;html=1;" parent="ebknQcv6rec1tFLarQAg-93" vertex="1">
          <mxGeometry x="30" width="228.27777777777783" height="104" as="geometry">
            <mxRectangle width="228.27777777777783" height="104" as="alternateBounds" />
          </mxGeometry>
        </mxCell>
        <mxCell id="ebknQcv6rec1tFLarQAg-96" value="" style="shape=tableRow;horizontal=0;startSize=0;swimlaneHead=0;swimlaneBody=0;fillColor=none;collapsible=0;dropTarget=0;points=[[0,0.5],[1,0.5]];portConstraint=eastwest;top=0;left=0;right=0;bottom=0;" parent="ebknQcv6rec1tFLarQAg-92" vertex="1">
          <mxGeometry y="134" width="258.2777777777778" height="124" as="geometry" />
        </mxCell>
        <mxCell id="ebknQcv6rec1tFLarQAg-97" value="" style="shape=partialRectangle;connectable=0;fillColor=none;top=0;left=0;bottom=0;right=0;editable=1;overflow=hidden;whiteSpace=wrap;html=1;" parent="ebknQcv6rec1tFLarQAg-96" vertex="1">
          <mxGeometry width="30" height="124" as="geometry">
            <mxRectangle width="30" height="124" as="alternateBounds" />
          </mxGeometry>
        </mxCell>
        <mxCell id="ebknQcv6rec1tFLarQAg-98" value="&lt;div style=&quot;text-align: justify;&quot;&gt;&lt;div&gt;joined_at DATETIME,&lt;/div&gt;&lt;div&gt;&lt;br&gt;&lt;/div&gt;&lt;div&gt;&amp;nbsp;abandoned_at DATETIME NULLABLE,&lt;/div&gt;&lt;div&gt;&amp;nbsp; &amp;nbsp;&amp;nbsp;&lt;/div&gt;&lt;div&gt;active BOOLEAN,&lt;/div&gt;&lt;div&gt;&lt;br&gt;&lt;/div&gt;&lt;div&gt;deleted BOOLEAN&lt;/div&gt;&lt;/div&gt;" style="shape=partialRectangle;connectable=0;fillColor=none;top=0;left=0;bottom=0;right=0;align=left;spacingLeft=6;overflow=hidden;whiteSpace=wrap;html=1;" parent="ebknQcv6rec1tFLarQAg-96" vertex="1">
          <mxGeometry x="30" width="228.27777777777783" height="124" as="geometry">
            <mxRectangle width="228.27777777777783" height="124" as="alternateBounds" />
          </mxGeometry>
        </mxCell>
        <mxCell id="ebknQcv6rec1tFLarQAg-99" value="ChatMessages" style="shape=table;startSize=30;container=1;collapsible=1;childLayout=tableLayout;fixedRows=1;rowLines=0;fontStyle=1;align=center;resizeLast=1;html=1;fillColor=#76608a;fontColor=#ffffff;strokeColor=#432D57;" parent="1" vertex="1">
          <mxGeometry x="664" y="-474" width="212.72222222222217" height="268.8888888888888" as="geometry" />
        </mxCell>
        <mxCell id="ebknQcv6rec1tFLarQAg-100" value="" style="shape=tableRow;horizontal=0;startSize=0;swimlaneHead=0;swimlaneBody=0;fillColor=none;collapsible=0;dropTarget=0;points=[[0,0.5],[1,0.5]];portConstraint=eastwest;top=0;left=0;right=0;bottom=1;" parent="ebknQcv6rec1tFLarQAg-99" vertex="1">
          <mxGeometry y="30" width="212.72222222222217" height="104" as="geometry" />
        </mxCell>
        <mxCell id="ebknQcv6rec1tFLarQAg-101" value="PK&lt;br&gt;&lt;br&gt;FK&lt;br&gt;&lt;br&gt;FK" style="shape=partialRectangle;connectable=0;fillColor=none;top=0;left=0;bottom=0;right=0;fontStyle=1;overflow=hidden;whiteSpace=wrap;html=1;" parent="ebknQcv6rec1tFLarQAg-100" vertex="1">
          <mxGeometry width="30" height="104" as="geometry">
            <mxRectangle width="30" height="104" as="alternateBounds" />
          </mxGeometry>
        </mxCell>
        <mxCell id="ebknQcv6rec1tFLarQAg-102" value="id: int auto_increment&lt;br&gt;&lt;br&gt;room_id: ChatRooms(id)&lt;br&gt;&lt;br&gt;user_id: Users(id)" style="shape=partialRectangle;connectable=0;fillColor=none;top=0;left=0;bottom=0;right=0;align=left;spacingLeft=6;fontStyle=5;overflow=hidden;whiteSpace=wrap;html=1;" parent="ebknQcv6rec1tFLarQAg-100" vertex="1">
          <mxGeometry x="30" width="182.72222222222217" height="104" as="geometry">
            <mxRectangle width="182.72222222222217" height="104" as="alternateBounds" />
          </mxGeometry>
        </mxCell>
        <mxCell id="ebknQcv6rec1tFLarQAg-103" value="" style="shape=tableRow;horizontal=0;startSize=0;swimlaneHead=0;swimlaneBody=0;fillColor=none;collapsible=0;dropTarget=0;points=[[0,0.5],[1,0.5]];portConstraint=eastwest;top=0;left=0;right=0;bottom=0;" parent="ebknQcv6rec1tFLarQAg-99" vertex="1">
          <mxGeometry y="134" width="212.72222222222217" height="124" as="geometry" />
        </mxCell>
        <mxCell id="ebknQcv6rec1tFLarQAg-104" value="" style="shape=partialRectangle;connectable=0;fillColor=none;top=0;left=0;bottom=0;right=0;editable=1;overflow=hidden;whiteSpace=wrap;html=1;" parent="ebknQcv6rec1tFLarQAg-103" vertex="1">
          <mxGeometry width="30" height="124" as="geometry">
            <mxRectangle width="30" height="124" as="alternateBounds" />
          </mxGeometry>
        </mxCell>
        <mxCell id="ebknQcv6rec1tFLarQAg-105" value="&lt;div style=&quot;text-align: justify;&quot;&gt;&lt;div&gt;message TEXT&lt;/div&gt;&lt;div&gt;&lt;span style=&quot;background-color: initial;&quot;&gt;&lt;br&gt;&lt;/span&gt;&lt;/div&gt;&lt;div&gt;&lt;span style=&quot;background-color: initial;&quot;&gt;timestamp DATETIME&lt;/span&gt;&lt;br&gt;&lt;/div&gt;&lt;div&gt;&lt;br&gt;&lt;/div&gt;&lt;div&gt;active BOOLEAN&lt;/div&gt;&lt;div&gt;&lt;span style=&quot;background-color: initial;&quot;&gt;&lt;br&gt;&lt;/span&gt;&lt;/div&gt;&lt;div&gt;&lt;span style=&quot;background-color: initial;&quot;&gt;deleted BOOLEAN&lt;/span&gt;&lt;br&gt;&lt;/div&gt;&lt;/div&gt;" style="shape=partialRectangle;connectable=0;fillColor=none;top=0;left=0;bottom=0;right=0;align=left;spacingLeft=6;overflow=hidden;whiteSpace=wrap;html=1;" parent="ebknQcv6rec1tFLarQAg-103" vertex="1">
          <mxGeometry x="30" width="182.72222222222217" height="124" as="geometry">
            <mxRectangle width="182.72222222222217" height="124" as="alternateBounds" />
          </mxGeometry>
        </mxCell>
        <mxCell id="ebknQcv6rec1tFLarQAg-106" style="edgeStyle=orthogonalEdgeStyle;rounded=0;orthogonalLoop=1;jettySize=auto;html=1;entryX=0;entryY=0.5;entryDx=0;entryDy=0;curved=1;exitX=1.013;exitY=0.185;exitDx=0;exitDy=0;exitPerimeter=0;endArrow=ERzeroToMany;endFill=0;startArrow=ERone;startFill=0;" parent="1" source="i_u9Ulbk1Ha4xllaxans-139" target="ebknQcv6rec1tFLarQAg-89" edge="1">
          <mxGeometry relative="1" as="geometry" />
        </mxCell>
        <mxCell id="ebknQcv6rec1tFLarQAg-107" style="edgeStyle=orthogonalEdgeStyle;rounded=0;orthogonalLoop=1;jettySize=auto;html=1;entryX=0.953;entryY=0.003;entryDx=0;entryDy=0;entryPerimeter=0;curved=1;startArrow=ERoneToMany;startFill=0;endArrow=ERoneToMany;endFill=0;" parent="1" source="ebknQcv6rec1tFLarQAg-99" target="i_u9Ulbk1Ha4xllaxans-135" edge="1">
          <mxGeometry relative="1" as="geometry">
            <Array as="points">
              <mxPoint x="642" y="-340" />
              <mxPoint x="642" y="190" />
            </Array>
          </mxGeometry>
        </mxCell>
        <mxCell id="ebknQcv6rec1tFLarQAg-108" style="edgeStyle=orthogonalEdgeStyle;rounded=0;orthogonalLoop=1;jettySize=auto;html=1;entryX=1;entryY=0.006;entryDx=0;entryDy=0;entryPerimeter=0;curved=1;endArrow=ERoneToMany;endFill=0;startArrow=ERoneToMany;startFill=0;" parent="1" source="ebknQcv6rec1tFLarQAg-96" target="i_u9Ulbk1Ha4xllaxans-139" edge="1">
          <mxGeometry relative="1" as="geometry" />
        </mxCell>
      </root>
    </mxGraphModel>
  </diagram>
</mxfile>
